<svg width="430" height="410" viewBox="0 0 430 410" fill="none" xmlns="http://www.w3.org/2000/svg">
<path d="M15.9232 65.7294C15.8243 58.3935 15.7396 51.0506 15.6195 43.7147C15.5489 39.4542 15.3936 35.2008 15.3088 30.9403C15.2523 28.1682 15.2806 28.1611 18.1476 28.1611C73.4552 28.1611 128.763 28.1611 184.07 28.1611C242.174 28.1611 300.271 28.1611 358.375 28.1611C361.532 28.1611 361.56 28.1611 361.581 31.3142C361.687 44.8997 361.772 58.4923 361.857 72.0778C361.878 74.7723 361.878 74.8076 364.469 74.1304C376.538 70.9845 388.606 67.8173 400.668 64.6431C401.296 64.4809 401.932 64.2552 402.497 63.9307C412.263 58.3018 423.018 61.5254 426.987 72.099C431.182 83.2721 431.274 94.7133 425.497 105.597C421.973 112.235 416.592 116.002 408.676 115.987C401.402 115.973 394.136 116.566 386.855 116.827C385.203 116.883 384.991 117.229 385.888 118.689C394.129 132.028 401.212 145.909 405.943 160.92C410.011 173.835 412.023 187.047 412.073 200.569C412.08 201.937 412.277 202.995 413.351 204.075C415.957 206.699 415.837 209.421 413.104 211.904C412.299 212.638 412.094 213.364 412.037 214.366C410.222 246.425 395.668 271.198 369.095 289.051C367.986 289.792 367.57 290.533 367.605 291.88C368.191 314.79 368.728 337.694 369.271 360.604C369.342 363.673 369.335 363.687 366.355 363.729C324.959 364.35 283.563 364.971 242.167 365.599C228.489 365.803 214.817 366.05 201.138 366.262C200.143 366.276 199.309 366.149 199.43 367.679C199.994 374.853 200.496 382.027 200.927 389.207C201.011 390.576 201.456 391.034 202.84 391.197C217.522 392.904 230.748 398.427 242.923 406.651C243.41 406.976 243.933 407.293 244.307 407.731C245.161 408.739 244.78 409.536 243.636 409.889C243.029 410.08 242.323 409.967 241.666 409.967C208.419 409.967 175.18 409.967 141.933 409.967C141.566 409.967 141.198 409.96 140.831 409.967C140.047 409.988 139.334 409.84 139.052 408.993C138.762 408.147 139.355 407.597 139.857 407.082C142.78 404.105 146.29 401.989 150.019 400.197C159.234 395.767 168.986 393.129 179.085 391.768C181.083 391.5 181.754 390.943 181.712 388.848C181.563 382.09 181.627 375.333 181.69 368.575C181.705 367.143 181.479 366.551 179.798 366.579C142.448 367.172 105.092 367.693 67.7352 368.244C53.767 368.448 39.7919 368.688 25.8237 368.9C23.1473 368.942 22.9567 368.73 22.8931 366.057C22.6389 355.491 22.3776 344.917 22.1234 334.35C21.8409 320.186 21.5867 306.016 21.276 291.852C20.7605 268.285 20.2097 244.725 19.6659 221.159C18.6773 178.364 17.6816 135.569 16.6717 92.7664C16.4528 83.7659 16.1774 74.7441 15.9232 65.7294ZM324.655 302.891C319.507 302.827 314.373 302.609 309.282 301.833C289.777 298.877 272.653 290.547 257.075 278.725C253 275.635 249.13 272.292 245.013 268.701C244.208 272.172 243.502 275.289 242.76 278.4C242.485 279.55 242.88 280.037 244.01 280.474C253.078 283.987 261.1 289.263 268.486 295.491C271.939 298.405 274.969 301.797 275.562 306.559C275.831 308.738 276.071 310.847 276.84 312.949C277.518 314.812 277.448 316.857 276.614 318.762C275.597 321.103 275.59 321.125 278.083 321.125C293.005 321.132 307.926 321.125 322.848 321.118C323.504 321.118 324.154 321.012 324.811 320.948C333.631 321.005 342.444 321.047 351.264 321.125C352.288 321.132 352.464 320.645 352.457 319.763C352.366 312.935 352.267 306.107 352.253 299.279C352.253 297.805 351.702 297.727 350.551 298.172C342.211 301.36 333.532 302.637 324.655 302.891ZM232.351 60.82C236.257 62.6893 240.105 64.629 243.135 67.8526C248.367 73.411 250.26 80.2249 250.549 87.6031C250.768 93.1826 250.783 98.7621 250.938 104.342C250.959 104.984 250.429 106.26 251.919 105.957C253.65 105.604 255.648 105.682 256.51 103.559C257.011 102.331 258.211 102.077 259.363 101.774C270.513 98.8538 281.663 95.9265 292.807 92.971C301.959 90.5445 311.097 88.0757 320.235 85.6281C320.814 85.5434 321.407 85.5152 321.965 85.3671C329.987 83.2509 337.995 81.0713 346.031 79.0328C347.542 78.6519 348.008 78.0735 347.959 76.5217C347.691 67.641 347.493 58.7533 347.38 49.8726C347.359 48.1021 346.949 47.5731 345.057 47.6224C319.034 48.356 293.019 49.005 266.996 49.6469C232.373 50.4933 197.749 51.2974 163.125 52.1439C129.681 52.9621 96.2363 53.8086 62.7849 54.6409C55.0664 54.8314 47.3479 55.0853 39.6294 55.1488C37.638 55.1629 37.1013 55.7766 37.2849 57.6811C37.518 60.157 37.4685 62.6681 37.5392 65.1581C37.5109 65.5954 37.4615 66.0327 37.4685 66.4701C37.9629 91.2922 38.4784 116.107 38.9586 140.929C39.4882 168.467 39.9896 196.012 40.5263 223.55C40.5404 224.312 40.2367 225.158 40.9217 225.906C43.0191 224.27 45.0599 222.598 47.1784 221.039C57.8275 213.188 69.0063 206.12 80.1356 198.975C108.27 180.924 139.045 172.615 172.411 173.821C174.184 173.885 174.48 173.391 174.431 171.797C174.064 160.49 173.788 149.182 173.471 137.875C173.428 136.486 173.774 134.835 173.146 133.77C172.454 132.606 170.604 133.227 169.276 132.966C163.852 131.88 160.103 128.183 159.7 123.415C159.312 118.809 161.946 115.324 167.539 113.342C168.831 112.884 168.986 112.192 168.986 111.071C168.958 104.532 168.93 97.9933 168.986 91.4545C169.05 84.8239 170.307 78.4826 173.795 72.7056C176.881 67.5987 181.549 64.4033 186.711 61.7723C201.838 56.7359 217.042 56.4326 232.351 60.82ZM34.7003 65.2145C34.6862 61.8357 34.7568 58.457 34.6297 55.0853C34.5662 53.3924 35.0676 52.7294 36.8259 52.6941C44.1066 52.546 51.3802 52.2568 58.6538 52.0734C100.777 51.0224 142.9 49.9784 185.024 48.9485C223.913 47.9963 262.802 47.0652 301.684 46.1129C316.824 45.7391 331.971 45.3723 347.112 44.9279C349.167 44.8644 350.014 45.4146 349.972 47.6154C349.894 51.502 350.127 55.3957 350.212 59.2893C350.325 64.8689 350.452 70.4484 350.494 76.035C350.508 77.4739 350.89 77.8266 352.295 77.3611C353.891 76.825 355.55 76.4017 357.21 76.1408C358.954 75.8657 359.336 74.9769 359.314 73.3051C359.152 60.157 359.088 47.0088 358.99 33.8606C358.968 30.8133 358.961 30.8134 355.988 30.8134C246.334 30.8134 136.672 30.8134 27.0172 30.8134C24.5879 30.8134 22.1587 30.9121 19.7365 30.771C18.2112 30.6864 17.9287 31.2507 17.964 32.6262C18.1759 40.0397 18.2818 47.4602 18.4725 54.8737C18.5643 58.4641 18.7549 62.0615 18.9032 65.6518C18.875 66.5265 18.8044 67.4082 18.8255 68.2829C19.7153 108.003 20.6051 147.722 21.5161 187.442C22.3917 225.617 23.2674 263.799 24.1784 301.974C24.4326 312.688 24.4114 323.41 25.0399 334.111C25.2094 344.388 25.4 354.665 25.5201 364.936C25.5413 366.734 26.7418 366.24 27.6457 366.226C40.2932 366.036 52.9338 365.81 65.5813 365.613C116.602 364.83 167.623 364.047 218.645 363.292C254.815 362.756 290.992 362.276 327.162 361.754C328.25 361.74 329.373 361.959 330.418 361.437C330.7 361.507 330.983 361.648 331.265 361.641C342.571 361.479 353.877 361.296 365.183 361.148C366.39 361.134 366.644 360.612 366.602 359.532C366.468 356.09 366.44 352.641 366.32 349.199C366.072 342.095 366.249 334.978 365.691 327.882C366.044 326.055 365.755 324.221 365.719 322.394C365.55 312.78 365.296 303.159 365.14 293.544C365.112 291.837 364.632 291.725 363.248 292.472C361.122 293.629 358.961 294.751 356.73 295.668C355.296 296.26 354.781 297.022 354.816 298.602C354.978 306.164 354.971 313.725 355.12 321.287C355.155 323.079 354.597 323.819 352.74 323.763C349.506 323.664 346.271 323.706 343.037 323.756C336.943 323.84 330.841 323.523 324.747 323.918C323.871 323.862 322.996 323.763 322.12 323.763C229.258 323.756 136.389 323.756 43.5275 323.763C39.7354 323.763 39.7707 323.763 39.7 320.031C39.1351 290.667 38.5419 261.302 37.977 231.93C37.2143 192.281 36.4799 152.639 35.7172 112.99C35.4136 97.0693 35.0393 81.1419 34.7003 65.2145ZM323.405 237.947C323.667 237.834 323.921 237.7 324.189 237.615C330.22 235.838 335.509 232.861 339.662 228.057C340.58 226.992 341.159 225.836 341.229 224.312C341.611 216.052 343.969 208.441 349.124 201.86C350.056 200.668 350.346 199.511 350.311 198.051C349.887 180.304 349.477 162.549 349.16 144.802C349.124 142.912 348.623 141.529 347.295 140.154C341.491 134.13 335.672 128.085 332.395 120.177C332.049 119.352 331.519 119.345 330.841 119.38C327.473 119.557 324.083 119.437 320.729 119.987C318.893 120.008 317.057 119.98 315.228 120.057C296.797 120.869 278.366 121.687 259.942 122.547C258.353 122.618 257.18 122.413 256.298 120.833C255.288 119.013 253.353 119.973 251.891 120.057C250.528 120.135 251.178 121.595 251.171 122.42C251.1 131.449 251.107 140.485 249.695 149.436C249.285 152.039 248.749 154.635 248.085 157.188C245.479 167.205 238.806 172.841 228.813 174.837C227.705 175.063 226.391 175.034 226.638 176.868C226.85 178.413 226.13 180.014 228.595 180.748C235.663 182.85 242.252 186.088 248.424 190.158C259.73 197.613 269.277 207.073 278.662 216.715C284.869 223.092 291.204 229.313 298.753 234.145C306.408 239.047 314.458 241.326 323.405 237.947ZM341.25 230.477C336.138 235.732 330.093 238.765 323.49 240.797C316.704 242.884 310.045 242.645 303.491 239.731C297.235 236.945 291.868 232.875 286.811 228.375C278.578 221.039 271.382 212.638 263.197 205.246C255.203 198.03 246.814 191.413 236.991 186.793C235.543 186.116 234.54 185.784 234.703 188.034C234.766 188.895 234.569 189.798 234.357 190.644C232.069 199.786 226.137 205.746 217.366 208.434C196.88 214.712 172.906 203.44 169.361 178.766C169.092 176.918 168.626 176.205 166.592 176.248C161.226 176.36 155.866 176.544 150.52 177.087C128.968 179.288 108.672 185.509 89.8384 196.245C79.0551 202.396 68.7873 209.386 58.4772 216.299C53.4139 219.692 48.4425 223.233 43.7182 227.091C41.8044 228.65 40.4769 230.202 40.5545 233.101C41.2748 261.732 41.8256 290.37 42.3412 319.009C42.3765 320.871 43.0685 321.125 44.6644 321.125C73.1233 321.082 101.589 321.075 130.048 321.139C132.152 321.146 132.096 320.56 131.7 318.811C128.127 302.997 131.171 288.536 140.972 275.579C141.643 274.697 141.559 274.302 140.845 273.632C138.536 271.459 135.803 270.063 132.767 269.336C126.482 267.834 121.588 269.858 118.008 275.353C117.591 275.988 117.061 276.291 116.341 276.03C115.607 275.762 115.381 275.134 115.529 274.422C115.635 273.928 115.755 273.357 116.066 272.99C117.958 270.761 116.468 269.449 114.788 268.271C109.237 264.391 103.206 262.769 96.4411 264.25C89.2028 265.837 82.812 269.188 76.7459 273.293C75.8773 273.886 74.8534 275.014 73.9142 273.709C72.8549 272.249 74.4297 271.678 75.3124 271.057C79.1116 268.398 82.9885 265.597 87.4586 264.455C94.8452 262.564 100.325 258.128 105.402 252.873C105.657 252.612 105.953 252.386 106.215 252.132C106.914 251.434 107.726 250.644 108.644 251.575C109.661 252.619 108.757 253.395 107.966 254.121C105.614 256.287 103.277 258.466 100.904 260.674C101.172 260.857 101.278 260.984 101.391 260.991C108.086 261.358 114.067 263.397 118.735 268.433C119.392 269.146 119.83 268.765 120.437 268.475C128.417 264.652 136.75 265.971 142.985 272.08C143.635 272.722 144.08 272.983 145.033 272.574C146.827 271.819 148.677 272.087 149.715 273.801C150.442 275.007 151.283 275.035 152.412 275.085C168.662 275.783 184.918 275.233 201.167 275.522C213.214 275.734 225.275 276.037 237.132 278.598C239.893 279.197 239.844 279.19 240.472 276.319C242.64 266.409 245.677 256.773 249.822 247.505C250.21 246.637 250.641 245.558 251.877 246.066C253.106 246.566 252.71 247.582 252.301 248.492C252.004 249.162 251.637 249.811 251.432 250.51C250.952 252.153 249.674 253.536 250.105 255.489C251.58 262.183 253.65 268.652 257.018 274.662C257.456 275.445 257.993 276.086 258.72 276.637C269.538 284.763 281.134 291.449 294.106 295.52C316.944 302.686 339.337 302.291 360.804 290.843C383.345 278.83 398.359 260.469 405.894 236.063C408.047 229.094 409.022 221.935 409.417 214.564C408.944 214.641 408.655 214.655 408.379 214.747C393.451 219.614 378.932 218.048 364.823 211.714C360.409 209.732 356.617 206.755 354.329 202.325C353.587 200.886 353.185 201.035 352.295 202.107C347.677 207.7 345.05 214.119 344.153 221.293C343.383 227.43 344.223 233.454 345.226 239.477C345.396 240.486 345.982 241.869 344.28 242.116C342.592 242.362 342.74 240.853 342.585 239.851C342.098 236.875 341.724 233.898 341.25 230.477ZM176.034 153.788C176.387 153.788 176.74 153.788 177.093 153.788C177.093 160.25 177.058 166.711 177.107 173.165C177.136 176.826 177.199 176.904 173.499 176.558C172.016 176.417 171.74 176.833 171.91 178.201C172.51 183.012 174.043 187.498 176.535 191.632C184.826 205.394 201.301 209.767 214.987 206.402C224.442 204.082 231.772 195.998 232.281 186.758C232.415 184.324 231.066 184.359 229.816 183.887C226.758 182.723 226.702 182.779 226.66 185.876C226.638 187.682 226.081 188.465 224.11 187.915C220.918 187.026 217.755 186.059 214.803 184.571C211.237 182.772 207.861 180.691 205.849 177.024C204.592 174.731 205.022 173.969 207.642 174.033C213.023 174.167 218.376 173.948 223.701 173.158C237.98 171.035 243.749 165.872 246.468 152.568C248.586 142.213 248.389 131.696 248.438 121.193C248.445 119.564 247.4 119.938 246.517 119.923C243.149 119.867 242.478 119.289 242.195 115.917C242.104 114.824 242.118 113.709 242.231 112.616C242.676 108.369 242.789 108.214 246.969 107.114C247.937 106.86 248.304 106.465 248.254 105.47C247.887 98.212 248.226 90.9395 247.569 83.6812C247.35 81.3041 246.312 80.112 244.102 79.3079C237.958 77.0719 231.575 76.1196 225.134 75.5976C216.159 74.864 207.233 75.125 198.434 77.4316C191.224 79.3291 186.704 83.5119 185.094 90.996C183.752 97.2597 183.011 103.594 182.164 109.914C181.528 114.619 181.613 114.577 176.952 114.654C173.125 114.725 169.276 114.915 165.858 116.94C161.543 119.5 161.134 124.769 164.947 128.042C167.39 130.137 170.363 130.624 173.414 130.546C175.476 130.497 176.09 131.28 176.062 133.262C175.985 140.125 176.034 146.953 176.034 153.788ZM270.894 303.392C270.478 301.36 270.569 301.268 269.27 300.013C261.297 292.338 252.336 286.068 241.758 282.632C229.887 278.774 217.444 278.562 205.114 278.231C187.248 277.758 169.375 278.379 151.509 277.666C150.336 277.617 149.637 277.85 149.143 279.028C148.38 280.848 147.406 282.59 146.481 284.339C140.746 295.146 138.953 306.446 141.968 318.423C142.484 320.476 143.395 321.153 145.591 321.153C184.275 321.075 222.966 321.096 261.651 321.082C262.406 321.082 263.501 321.555 263.854 320.716C264.263 319.749 263.367 318.966 262.674 318.317C260.655 316.42 258.19 315.256 255.634 314.325C249.985 312.265 244.293 310.297 238.622 308.287C237.655 307.941 236.765 307.412 237.323 306.213C237.824 305.134 238.721 305.515 239.604 305.818C243.346 307.13 247.125 308.343 250.853 309.676C254.794 311.087 258.783 312.399 262.328 314.699C264.08 315.834 265.902 317.062 266.403 319.143C266.841 320.962 267.766 321.301 269.334 321.111C269.913 321.04 270.52 321.033 271.099 321.111C272.935 321.364 273.105 320.44 272.582 319.058C271.586 316.42 269.644 314.501 267.554 312.752C260.005 306.425 251.326 301.931 242.619 297.48C241.659 296.994 240.246 296.62 240.995 295.174C241.736 293.749 242.909 294.68 243.855 295.146C245.769 296.084 247.689 297.008 249.54 298.059C258.423 303.067 267.66 307.596 274.086 315.968C274.122 316.018 274.333 315.926 274.566 315.877C274.616 314.706 274.411 313.556 273.945 312.477C272.384 308.9 269.87 306.051 266.975 303.504C261.015 298.263 254.172 294.44 247.068 291.012C246.15 290.568 244.921 290.201 245.557 288.84C246.207 287.457 247.329 288.184 248.205 288.628C251.277 290.201 254.349 291.767 257.35 293.46C262.088 296.126 266.46 299.307 270.894 303.392ZM366.652 117.236C366.616 117.483 366.588 117.723 366.553 117.97C370.585 120.713 374.229 123.866 376.997 127.922C377.562 128.748 378.395 129.735 377.089 130.56C375.973 131.259 375.401 130.356 374.843 129.509C373.339 127.224 371.489 125.242 369.406 123.471C363.664 118.59 356.97 115.465 349.972 112.905C345.699 111.339 344.697 108.292 347.316 104.518C348.701 102.529 350.049 100.49 350.911 98.2261C351.582 96.4626 353.072 94.3042 351.031 92.7876C349.103 91.3557 347.267 93.0627 345.713 94.2195C341.123 97.6335 338.08 102.268 335.538 107.311C333.207 111.939 333.348 116.425 335.686 121.017C339.146 127.795 344.259 133.276 349.484 138.637C352.267 141.494 354.399 144.64 355.635 148.406C360.006 161.71 361.108 175.38 360.303 189.276C360.268 189.918 360.063 190.517 360.381 191.202C363.445 197.642 368.247 202.05 375.161 204.11C386.191 207.397 397.081 206.388 407.941 203.242C409.375 202.826 409.439 201.973 409.439 200.802C409.446 187.943 407.553 175.366 403.817 163.064C399.178 147.793 391.989 133.721 383.72 120.135C382.357 117.899 381.072 116.834 378.226 117.144C374.412 117.553 370.514 117.236 366.652 117.236ZM397.681 68.4663C397.024 68.1912 396.544 68.4451 396.057 68.5721C389.821 70.2297 383.586 71.9015 377.343 73.545C339.019 83.6107 300.702 93.7328 262.343 103.643C258.79 104.56 257.392 106.514 256.693 109.66C256.248 111.656 256.389 113.582 256.947 115.529C258.204 119.895 258.423 119.987 262.964 119.775C284.693 118.767 306.429 117.793 328.165 116.834C331.103 116.707 331.082 116.756 331.117 113.949C331.131 112.926 331.138 111.854 331.442 110.895C333.92 102.966 338.235 96.2722 345.106 91.4545C348.34 89.1832 351.066 89.0703 353.015 90.8337C355.607 93.1756 354.639 95.9689 353.658 98.5858C352.599 101.407 350.946 103.94 349.237 106.437C347.938 108.327 348.383 109.434 350.558 110.288C354.11 111.678 357.711 112.961 361.044 114.852C361.934 115.353 362.866 115.331 363.827 115.289C373.078 114.894 382.336 114.52 391.587 114.111C395.132 113.956 398.669 113.716 402.49 113.497C389.743 103.319 388.585 81.4946 397.681 68.4663ZM144.235 407.187C175.589 407.187 206.95 407.187 238.77 407.187C222.62 396.903 205.481 392.163 186.775 393.637C171.55 394.829 157.01 398.321 144.235 407.187ZM427.128 88.9222C427.065 83.0958 426.577 78.4403 424.981 73.9682C422.955 68.2899 419.078 64.7772 412.984 64.0154C407.066 63.2747 402.772 66.0045 399.503 70.6247C392.681 80.2672 392.61 96.6319 399.34 106.274C401.48 109.343 404.114 111.875 407.906 112.806C413.443 114.16 418.845 111.494 422.475 105.682C425.892 100.208 427.107 94.1702 427.128 88.9222ZM388.988 214.832C397.038 214.874 402.553 214.274 407.807 212.088C409.389 211.432 410.816 210.55 411.974 209.287C412.821 208.363 412.616 207.39 411.938 206.487C411.331 205.676 410.844 204.942 409.46 205.422C401.445 208.187 393.147 209.16 384.723 208.511C373.685 207.658 363.968 204.315 358.665 193.452C358.347 192.81 357.923 192.076 357.033 192.21C356.243 192.33 355.833 192.986 355.529 193.684C354.675 195.66 355.098 197.571 355.861 199.44C357.803 204.216 361.595 207.15 366.023 209.351C374.01 213.315 382.583 214.712 388.988 214.832ZM132.781 306.241C132.83 311.376 133.423 315.651 134.702 319.82C135.062 320.984 137.675 321.745 139.228 321.061C140.542 320.483 139.468 319.53 139.313 318.846C136.926 308.541 137.42 298.44 141.615 288.663C143.345 284.629 145.421 280.735 147.307 276.764C147.533 276.284 148.013 275.713 147.462 275.155C146.883 274.577 146.205 274.838 145.619 275.148C144.03 275.995 142.78 277.257 141.77 278.703C135.803 287.203 133.155 296.754 132.781 306.241ZM351.843 147.539C352.147 162.422 352.443 177.306 352.747 192.189C353.898 191.272 354.597 189.939 355.812 189.826C357.902 189.629 357.775 188.26 357.831 186.892C358.206 177.701 357.605 168.573 355.798 159.544C354.964 155.418 354.216 151.263 351.843 147.539ZM184.43 390.879C189.141 391.02 193.159 390.47 197.17 390.816C197.989 390.886 198.406 390.611 198.342 389.708C198.088 386.231 197.869 382.753 197.601 378.747C193.13 382.866 189.006 386.661 184.43 390.879Z" fill="#0E0D0C"/>
<path d="M15.9237 65.7297C16.1709 74.7514 16.4533 83.7661 16.6652 92.7879C17.675 135.583 18.6637 178.378 19.6594 221.18C20.2031 244.747 20.7539 268.306 21.2694 291.873C21.5801 306.037 21.8344 320.208 22.1168 334.372C19.4687 334.4 16.8205 334.386 14.1794 334.464C12.7742 334.506 12.2304 333.984 12.2163 332.538C12.1739 328.214 11.9762 323.89 11.8914 319.566C11.6937 308.703 11.7078 297.826 11.2841 286.978C10.9663 278.901 11.1429 270.825 10.8957 262.755C10.4014 246.687 10.2461 230.611 9.96358 214.543C9.68111 198.622 9.39158 182.702 9.05968 166.782C8.76309 152.251 8.48061 137.72 8.19108 123.19C7.90155 108.588 7.5061 93.987 7.33661 79.3857C7.29424 75.5767 7.14594 71.7606 7.01883 67.9445C6.95527 66.167 7.61201 65.6027 9.31389 65.6873C11.5101 65.7931 13.7204 65.7156 15.9237 65.7297Z" fill="#1631A4"/>
<path d="M1.5246 182.504C1.72233 182.61 2.10367 182.702 2.32965 182.942C4.17982 184.896 6.33365 186.553 7.84486 188.839C8.48042 189.798 8.46629 190.609 7.57651 191.329C6.59493 192.126 6.05118 191.202 5.63454 190.63C4.16569 188.613 2.26609 187.005 0.627765 185.157C0.218184 184.691 -0.254955 184.099 0.161688 183.386C0.422972 182.949 0.804301 182.589 1.5246 182.504Z" fill="#F2F2F2"/>
<path d="M319.395 1.27944C319.431 1.75204 319.177 2.09767 318.951 2.47857C318.004 4.08683 316.578 5.24365 315.286 6.53448C314.636 7.18343 313.838 7.33861 313.146 6.64029C312.546 6.02661 312.68 5.30007 313.202 4.65818C314.262 3.36029 315.314 2.05535 316.415 0.792728C316.973 0.150836 317.722 -0.173635 318.583 0.0944076C319.134 0.256644 319.388 0.708084 319.395 1.27944Z" fill="#F2F2F2"/>
<path d="M341.251 230.477C341.724 233.891 342.105 236.868 342.571 239.83C342.727 240.832 342.578 242.341 344.266 242.095C345.968 241.848 345.382 240.472 345.212 239.456C344.21 233.433 343.369 227.409 344.139 221.272C345.036 214.098 347.656 207.679 352.281 202.086C353.171 201.014 353.574 200.865 354.315 202.304C356.603 206.727 360.395 209.711 364.809 211.693C378.925 218.034 393.437 219.6 408.366 214.726C408.634 214.634 408.931 214.627 409.404 214.543C409.008 221.907 408.027 229.073 405.88 236.042C398.345 260.448 383.332 278.809 360.791 290.822C339.323 302.27 316.93 302.665 294.093 295.499C281.12 291.429 269.518 284.749 258.706 276.616C257.979 276.072 257.442 275.424 257.004 274.641C253.636 268.631 251.567 262.162 250.091 255.468C249.66 253.515 250.938 252.132 251.418 250.489C251.623 249.79 251.99 249.141 252.287 248.471C252.697 247.561 253.085 246.545 251.863 246.045C250.628 245.537 250.197 246.616 249.808 247.484C245.663 256.752 242.627 266.388 240.459 276.298C239.83 279.176 239.88 279.176 237.118 278.577C225.262 276.016 213.2 275.713 201.153 275.501C184.904 275.212 168.648 275.762 152.399 275.064C151.269 275.014 150.428 274.986 149.701 273.78C148.663 272.059 146.813 271.791 145.019 272.553C144.059 272.955 143.621 272.694 142.971 272.059C136.736 265.95 128.41 264.631 120.423 268.454C119.816 268.744 119.378 269.125 118.721 268.412C114.053 263.376 108.065 261.337 101.378 260.97C101.265 260.963 101.166 260.836 100.89 260.653C103.263 258.445 105.601 256.258 107.952 254.1C108.743 253.374 109.654 252.598 108.63 251.554C107.719 250.623 106.907 251.413 106.201 252.111C105.94 252.372 105.643 252.591 105.389 252.852C100.311 258.107 94.8314 262.543 87.4449 264.434C82.9818 265.576 79.0979 268.377 75.2987 271.036C74.4159 271.657 72.8412 272.228 73.9004 273.688C74.8397 274.993 75.8636 273.858 76.7322 273.272C82.7982 269.174 89.1891 265.823 96.4274 264.229C103.2 262.741 109.23 264.363 114.774 268.25C116.454 269.428 117.952 270.74 116.052 272.969C115.741 273.336 115.614 273.9 115.515 274.401C115.367 275.113 115.593 275.741 116.327 276.009C117.048 276.27 117.577 275.974 117.994 275.332C121.574 269.837 126.468 267.813 132.753 269.315C135.797 270.042 138.522 271.438 140.832 273.611C141.545 274.281 141.63 274.676 140.959 275.558C131.157 288.515 128.12 302.975 131.687 318.79C132.082 320.539 132.139 321.125 130.034 321.118C101.575 321.054 73.1095 321.061 44.6507 321.104C43.0477 321.104 42.3627 320.85 42.3274 318.988C41.8119 290.349 41.2611 261.711 40.5408 233.08C40.4702 230.181 41.7978 228.629 43.7044 227.07C48.4287 223.212 53.4002 219.671 58.4635 216.278C68.7736 209.372 79.0343 202.375 89.8247 196.224C108.651 185.488 128.954 179.26 150.506 177.066C155.852 176.523 161.212 176.339 166.579 176.227C168.62 176.184 169.086 176.904 169.347 178.745C172.892 203.419 196.867 214.698 217.353 208.413C226.123 205.725 232.055 199.758 234.343 190.623C234.555 189.777 234.753 188.874 234.689 188.013C234.527 185.763 235.53 186.095 236.977 186.772C246.8 191.392 255.189 198.009 263.183 205.225C271.368 212.617 278.564 221.018 286.798 228.354C291.854 232.861 297.221 236.931 303.478 239.71C310.031 242.624 316.69 242.863 323.476 240.776C330.086 238.765 336.138 235.732 341.251 230.477Z" fill="#FDFDFD"/>
<path d="M186.733 61.7794C181.563 64.4104 176.896 67.6058 173.817 72.7127C170.328 78.4897 169.071 84.8311 169.008 91.4616C168.944 98.0004 168.979 104.539 169.008 111.078C169.015 112.2 168.852 112.891 167.56 113.349C161.96 115.331 159.333 118.823 159.721 123.422C160.124 128.19 163.874 131.887 169.297 132.973C170.625 133.241 172.475 132.613 173.167 133.777C173.796 134.835 173.457 136.486 173.492 137.882C173.81 149.19 174.085 160.497 174.452 171.804C174.502 173.405 174.205 173.892 172.433 173.828C139.066 172.622 108.284 180.931 80.1569 198.982C69.0276 206.12 57.8489 213.188 47.1998 221.046C45.0812 222.605 43.0404 224.277 40.943 225.913C40.2581 225.165 40.5617 224.319 40.5476 223.557C40.0109 196.019 39.5166 168.474 38.9799 140.937C38.4997 116.114 37.9842 91.2994 37.4899 66.4772C37.4828 66.0399 37.5393 65.6025 37.5605 65.1652C39.3895 65.0664 41.2184 64.883 43.0545 64.876C54.5863 64.8266 66.104 64.3681 77.6288 64.0437C88.4897 63.7333 99.3578 63.4652 110.219 63.1901C123.728 62.8516 137.244 62.6682 150.753 62.2379C161.621 61.8852 172.496 61.7864 183.371 61.6454C184.473 61.6172 185.659 60.7566 186.733 61.7794ZM96.8155 123.859C96.8155 123.867 96.8155 123.867 96.8155 123.874C109.096 123.874 121.369 123.733 133.642 123.944C138.55 124.029 140.627 121.645 140.231 117.419C140.048 115.451 140.203 113.455 140.203 111.473C140.203 106.655 138.755 105.111 133.981 104.998C128.106 104.85 122.231 104.913 116.362 104.589C109.837 104.229 103.291 104.433 96.759 104.222C83.8361 103.799 70.899 103.742 57.9689 103.58C55.0665 103.545 53.3788 105.322 53.3435 108.257C53.3081 111.558 53.3223 114.866 53.3293 118.167C53.3364 122.152 54.9394 123.838 58.8869 123.845C71.5274 123.874 84.168 123.859 96.8155 123.859ZM64.8117 72.0708C64.8329 68.5722 62.3542 65.9693 58.9787 65.9552C55.7303 65.9411 53.1034 68.544 53.0681 71.8028C53.0257 75.1674 55.6173 77.742 59.0635 77.7773C62.7426 77.8196 64.7905 75.7881 64.8117 72.0708ZM74.8606 145.38V145.373C69.8679 145.373 64.8682 145.366 59.8756 145.38C58.9293 145.38 57.75 145.253 57.7147 146.615C57.6723 148.117 58.9152 148.026 59.9462 148.026C69.9385 148.033 79.9309 148.026 89.9233 148.026C90.8907 148.026 92.0277 148.103 92.0771 146.77C92.1336 145.232 90.8696 145.388 89.8527 145.388C84.853 145.38 79.8603 145.38 74.8606 145.38ZM99.9863 71.8733C99.9439 68.5087 97.2322 65.8494 93.9414 65.9341C90.7212 66.0187 88.1155 68.7062 88.1508 71.9015C88.1861 75.3649 90.8766 77.9043 94.4287 77.8337C97.9242 77.7632 100.036 75.506 99.9863 71.8733ZM77.2051 77.8126C80.9054 77.8126 83.0381 75.64 83.0028 71.8945C82.9745 68.6356 80.397 65.9764 77.2122 65.9058C73.9002 65.8353 71.1744 68.551 71.2097 71.8733C71.252 75.3649 73.7236 77.8126 77.2051 77.8126ZM69.1406 165.237C72.2972 165.237 75.4538 165.23 78.6174 165.237C79.5566 165.237 80.517 165.138 80.5806 163.988C80.6512 162.634 79.5637 162.556 78.5751 162.556C72.2619 162.542 65.9416 162.542 59.6284 162.542C58.7033 162.542 57.7217 162.641 57.6723 163.812C57.6158 165.138 58.6398 165.237 59.6637 165.237C62.8274 165.23 65.984 165.237 69.1406 165.237Z" fill="#7BAEEB"/>
<path d="M324.754 323.932C330.848 323.537 336.95 323.854 343.044 323.77C346.278 323.728 349.513 323.678 352.747 323.777C354.604 323.833 355.162 323.086 355.127 321.301C354.978 313.739 354.993 306.178 354.823 298.616C354.788 297.043 355.303 296.274 356.737 295.682C358.968 294.758 361.129 293.643 363.255 292.486C364.632 291.732 365.119 291.852 365.147 293.559C365.303 303.173 365.55 312.794 365.726 322.408C365.762 324.235 366.051 326.069 365.698 327.896C363.735 328.552 361.97 329.589 360.204 330.633C350.713 336.262 343.002 343.845 336.321 352.507C334.146 355.328 331.745 358.044 330.425 361.444C329.38 361.966 328.257 361.747 327.169 361.761C290.999 362.283 254.822 362.763 218.652 363.299C167.63 364.054 116.609 364.837 65.5883 365.62C52.9407 365.81 40.3002 366.043 27.6527 366.233C26.7488 366.248 25.5483 366.741 25.5271 364.943C25.407 354.665 25.2164 344.388 25.0469 334.118C34.4814 334.16 43.9088 334.195 53.3433 334.238C48.9579 339.253 47.6798 344.832 50.8364 350.87C53.8447 356.633 58.9009 358.862 65.3059 358.361C70.9341 357.917 74.7898 354.863 76.308 349.509C77.8828 343.958 76.9295 338.942 73.102 334.541C73.9636 333.899 74.9522 334.195 75.8773 334.195C157.342 334.181 238.813 334.174 320.277 334.174C321.23 334.174 322.191 334.118 323.144 334.188C324.564 334.294 325.171 333.716 325.1 332.277C324.945 329.498 324.867 326.711 324.754 323.932ZM315.376 345.686C317.572 345.686 319.769 345.686 321.965 345.686C322.883 345.686 323.85 345.665 323.85 344.423C323.85 343.217 322.883 343.083 321.979 343.076C317.586 343.055 313.194 343.062 308.802 343.076C307.834 343.076 306.966 343.351 307.029 344.515C307.086 345.559 307.919 345.7 308.795 345.693C310.984 345.679 313.18 345.686 315.376 345.686Z" fill="#FDFDFC"/>
<path d="M176.034 153.788C176.034 146.96 175.978 140.132 176.07 133.304C176.098 131.322 175.483 130.539 173.421 130.589C170.371 130.659 167.398 130.18 164.954 128.085C161.141 124.812 161.551 119.543 165.865 116.982C169.283 114.951 173.132 114.76 176.959 114.697C181.62 114.612 181.542 114.654 182.171 109.956C183.025 103.636 183.76 97.302 185.102 91.0383C186.705 83.5543 191.231 79.3643 198.441 77.4739C207.24 75.1603 216.166 74.9064 225.142 75.64C231.582 76.169 237.966 77.1142 244.109 79.3502C246.32 80.1544 247.358 81.3464 247.577 83.7236C248.234 90.9748 247.902 98.2543 248.262 105.513C248.311 106.507 247.944 106.895 246.977 107.156C242.796 108.257 242.683 108.405 242.238 112.658C242.125 113.744 242.111 114.866 242.203 115.959C242.478 119.331 243.149 119.909 246.525 119.966C247.414 119.98 248.452 119.606 248.445 121.235C248.396 131.731 248.601 142.249 246.475 152.61C243.749 165.907 237.98 171.077 223.708 173.2C218.384 173.99 213.031 174.216 207.65 174.075C205.023 174.012 204.599 174.773 205.856 177.066C207.869 180.734 211.244 182.815 214.81 184.613C217.762 186.102 220.926 187.068 224.118 187.957C226.095 188.507 226.646 187.724 226.667 185.918C226.709 182.815 226.766 182.765 229.824 183.929C231.073 184.402 232.422 184.366 232.288 186.8C231.773 196.04 224.443 204.124 214.994 206.445C201.315 209.802 184.84 205.436 176.543 191.674C174.05 187.541 172.518 183.054 171.917 178.244C171.748 176.875 172.023 176.459 173.506 176.6C177.199 176.946 177.143 176.868 177.115 173.207C177.065 166.746 177.101 160.285 177.101 153.831C176.74 153.781 176.387 153.781 176.034 153.788ZM234.76 124.706C234.852 123.133 234.167 121.828 232.832 120.833C231.582 119.902 230.233 119.077 228.687 118.894C226.858 118.682 226.519 117.737 226.603 116.086C226.745 113.526 226.639 110.951 226.639 108.383C226.639 107.431 226.462 106.521 225.311 106.479C224.068 106.437 224.012 107.403 224.012 108.334C224.019 111.861 224.047 115.381 223.998 118.901C223.983 120.142 224.4 120.798 225.699 120.96C227.232 121.151 228.729 121.546 230.127 122.244C231.292 122.83 232.253 123.577 232.104 125.101C231.963 126.589 230.925 127.28 229.689 127.64C228.574 127.965 227.387 128.063 226.229 128.233C225.551 128.331 225.156 128.719 225.05 129.347C224.937 130.003 225.255 130.462 225.876 130.723C229.35 132.169 234.76 128.578 234.76 124.706ZM240.063 112.136C240.063 111.515 240.056 111.149 240.063 110.782C240.084 109.075 239.159 108.108 237.535 108.087C235.953 108.073 234.922 108.976 234.837 110.662C234.795 111.537 234.753 112.432 234.859 113.3C235.099 115.36 237.238 116.347 238.983 115.247C240.289 114.429 240.021 113.102 240.063 112.136ZM200.242 108.743C199.267 108.708 198.653 108.913 198.533 109.724C198.356 110.909 199.26 111.226 200.122 111.438C203.257 112.2 206.364 113.011 209.133 114.767C209.825 115.204 210.559 115.268 211.075 114.527C211.576 113.794 211.336 113.067 210.651 112.616C207.403 110.521 203.759 109.477 200.242 108.743ZM209.267 144.95C210.185 145.035 210.891 144.781 211.018 143.751C211.138 142.799 210.531 142.531 209.719 142.34C207.756 141.868 205.849 141.31 205.482 138.835C205.348 137.939 204.585 137.727 203.78 137.903C202.791 138.122 202.841 138.898 202.947 139.646C203.328 142.22 206.449 144.83 209.267 144.95ZM206.414 99.3476C206.174 98.3389 205.545 97.9721 204.493 98.1485C202.685 98.4518 200.976 99.0584 199.282 99.7074C198.512 100.004 197.707 100.406 198.187 101.45C198.582 102.317 199.38 102.529 200.214 102.162C201.753 101.478 203.37 101.104 205.009 100.758C205.722 100.603 206.421 100.321 206.414 99.3476ZM235.748 94.8403C235.219 94.9108 234.781 95.1436 234.505 95.6232C234.195 96.1593 234.35 96.6672 234.802 96.9705C236.37 98.0145 237.966 99.0231 239.576 99.9966C240.042 100.279 240.557 100.145 240.946 99.7003C241.327 99.27 241.37 98.7904 241.186 98.2825C240.995 97.7323 236.334 94.8121 235.748 94.8403Z" fill="#FCFCFC"/>
<path d="M323.406 237.947C314.465 241.326 306.408 239.047 298.746 234.131C291.197 229.292 284.863 223.078 278.655 216.701C269.277 207.059 259.73 197.599 248.417 190.144C242.245 186.074 235.664 182.836 228.588 180.734C226.123 180 226.843 178.399 226.632 176.854C226.377 175.02 227.691 175.049 228.807 174.823C238.799 172.82 245.472 167.184 248.078 157.174C248.742 154.621 249.279 152.025 249.688 149.422C251.1 140.471 251.093 131.435 251.164 122.406C251.171 121.588 250.521 120.121 251.884 120.043C253.346 119.959 255.274 118.999 256.291 120.819C257.174 122.406 258.346 122.611 259.935 122.533C278.366 121.673 296.79 120.855 315.221 120.043C317.05 119.966 318.886 119.994 320.722 119.973C321.153 120.537 321.139 121.2 321.153 121.863C321.238 128.021 321.379 134.186 321.471 140.344C321.57 146.834 321.887 153.323 321.781 159.827C321.647 168.249 322.212 176.685 322.417 185.114C322.65 194.947 322.403 204.78 322.862 214.606C323.222 222.386 323.236 230.174 323.406 237.947Z" fill="#7BAEEB"/>
<path d="M53.3369 334.231C43.9024 334.189 34.475 334.153 25.0405 334.111C24.412 323.41 24.4332 312.689 24.179 301.974C23.268 263.799 22.3923 225.617 21.5167 187.442C20.6057 147.723 19.7159 108.003 18.8262 68.2832C18.805 67.4086 18.8756 66.5268 18.9039 65.6522C24.1507 65.0244 29.4329 65.3559 34.6939 65.2148C35.0399 81.1422 35.4071 97.0696 35.7179 112.997C36.4876 152.646 37.222 192.288 37.9776 231.937C38.5425 261.302 39.1287 290.667 39.7007 320.039C39.7713 323.777 39.743 323.77 43.5281 323.77C136.39 323.77 229.259 323.763 322.121 323.77C322.996 323.77 323.872 323.876 324.748 323.925C324.854 326.712 324.938 329.491 325.08 332.27C325.157 333.709 324.543 334.28 323.124 334.181C322.17 334.111 321.21 334.167 320.256 334.167C238.792 334.167 157.321 334.174 75.8568 334.189C74.9317 334.189 73.936 333.892 73.0815 334.534C71.309 332.975 69.4235 331.508 67.079 331.043C65.0806 330.648 63.8801 329.977 64.3108 327.699C64.4521 326.93 63.9083 326.408 63.1739 326.359C62.2982 326.295 61.8322 326.874 61.7474 327.699C61.6839 328.277 61.7121 328.87 61.7262 329.463C61.7404 330.147 61.5214 330.507 60.7517 330.612C57.8917 330.993 55.5543 332.503 53.3369 334.231Z" fill="#7BAEEB"/>
<path d="M34.7009 65.2146C29.4399 65.3556 24.1577 65.0241 18.9108 65.6519C18.7625 62.0615 18.5719 58.4712 18.4801 54.8738C18.2894 47.4603 18.1835 40.0397 17.9716 32.6262C17.9293 31.2578 18.2188 30.6864 19.7441 30.7711C22.1663 30.9122 24.5955 30.8134 27.0248 30.8134C136.679 30.8134 246.341 30.8134 355.996 30.8134C358.962 30.8134 358.969 30.8134 358.997 33.8606C359.096 47.0088 359.16 60.157 359.322 73.3052C359.343 74.977 358.962 75.8587 357.218 76.1408C355.551 76.4018 353.899 76.825 352.303 77.3611C350.897 77.8337 350.516 77.474 350.502 76.035C350.459 70.4555 350.332 64.8689 350.219 59.2894C350.142 55.3957 349.909 51.5021 349.979 47.6155C350.022 45.4076 349.174 44.8645 347.119 44.928C331.979 45.3724 316.831 45.7462 301.691 46.113C262.802 47.0653 223.913 47.9964 185.031 48.9486C142.908 49.9785 100.785 51.0224 58.6614 52.0734C51.3807 52.2568 44.1071 52.546 36.8335 52.6942C35.0681 52.7294 34.5738 53.3925 34.6373 55.0854C34.7503 58.4571 34.6868 61.8358 34.7009 65.2146Z" fill="#FCFCFC"/>
<path d="M270.894 303.392C266.467 299.308 262.088 296.119 257.357 293.46C254.356 291.767 251.277 290.194 248.212 288.628C247.336 288.177 246.214 287.457 245.564 288.84C244.921 290.201 246.15 290.568 247.075 291.012C254.172 294.441 261.022 298.264 266.982 303.505C269.878 306.051 272.391 308.901 273.952 312.477C274.425 313.556 274.63 314.706 274.574 315.877C274.341 315.926 274.129 316.011 274.093 315.969C267.667 307.596 258.423 303.067 249.547 298.059C247.697 297.015 245.769 296.084 243.862 295.146C242.916 294.68 241.744 293.749 241.002 295.174C240.254 296.613 241.666 296.987 242.626 297.481C251.326 301.932 260.012 306.425 267.561 312.752C269.652 314.501 271.594 316.42 272.589 319.058C273.112 320.448 272.942 321.365 271.106 321.111C270.527 321.033 269.927 321.04 269.341 321.111C267.773 321.308 266.848 320.97 266.41 319.143C265.909 317.062 264.087 315.835 262.336 314.699C258.784 312.392 254.794 311.087 250.86 309.677C247.132 308.336 243.354 307.123 239.611 305.818C238.728 305.508 237.831 305.134 237.33 306.213C236.772 307.412 237.662 307.941 238.629 308.287C244.3 310.297 249.992 312.265 255.641 314.325C258.197 315.256 260.662 316.42 262.682 318.318C263.374 318.966 264.271 319.749 263.861 320.716C263.508 321.555 262.42 321.083 261.658 321.083C222.973 321.097 184.282 321.076 145.598 321.153C143.409 321.16 142.491 320.483 141.975 318.423C138.96 306.446 140.754 295.146 146.488 284.34C147.413 282.59 148.387 280.855 149.15 279.028C149.644 277.85 150.343 277.617 151.516 277.667C169.382 278.379 187.262 277.758 205.121 278.231C217.451 278.556 229.894 278.774 241.765 282.633C252.343 286.068 261.305 292.339 269.277 300.013C270.57 301.269 270.478 301.36 270.894 303.392Z" fill="#FCFCFC"/>
<path d="M366.652 117.236C370.515 117.236 374.413 117.553 378.233 117.13C381.079 116.813 382.364 117.885 383.727 120.121C391.997 133.707 399.186 147.786 403.825 163.05C407.561 175.345 409.453 187.929 409.446 200.788C409.446 201.959 409.383 202.812 407.949 203.228C397.088 206.374 386.199 207.383 375.169 204.096C368.255 202.036 363.453 197.628 360.388 191.188C360.064 190.51 360.268 189.911 360.311 189.262C361.116 175.373 360.014 161.696 355.643 148.392C354.407 144.626 352.274 141.48 349.492 138.623C344.266 133.262 339.154 127.788 335.693 121.003C333.356 116.411 333.215 111.925 335.545 107.297C338.08 102.254 341.131 97.6266 345.721 94.2056C347.275 93.0487 349.111 91.3347 351.039 92.7736C353.072 94.2832 351.589 96.4416 350.919 98.2121C350.057 100.476 348.708 102.515 347.324 104.504C344.704 108.271 345.7 111.325 349.979 112.891C356.978 115.451 363.672 118.576 369.413 123.457C371.496 125.228 373.347 127.21 374.851 129.495C375.409 130.342 375.974 131.252 377.096 130.546C378.403 129.728 377.57 128.734 377.005 127.908C374.236 123.852 370.593 120.707 366.56 117.956C366.581 117.723 366.617 117.483 366.652 117.236Z" fill="#FCFCFC"/>
<path d="M397.681 68.4664C388.585 81.4876 389.743 103.312 402.49 113.476C398.669 113.695 395.131 113.935 391.586 114.09C382.336 114.499 373.078 114.873 363.827 115.268C362.866 115.31 361.934 115.332 361.044 114.831C357.711 112.94 354.11 111.664 350.558 110.267C348.39 109.413 347.945 108.313 349.237 106.416C350.946 103.926 352.599 101.386 353.658 98.5648C354.639 95.9478 355.607 93.1545 353.015 90.8127C351.066 89.0493 348.34 89.1621 345.106 91.4334C338.228 96.2511 333.92 102.945 331.442 110.874C331.145 111.833 331.131 112.905 331.117 113.928C331.081 116.735 331.103 116.686 328.165 116.813C306.429 117.779 284.7 118.746 262.964 119.754C258.423 119.966 258.204 119.874 256.947 115.508C256.389 113.561 256.248 111.635 256.693 109.639C257.392 106.5 258.79 104.546 262.342 103.622C300.709 93.7118 339.019 83.5967 377.343 73.524C383.585 71.8875 389.821 70.2087 396.057 68.5511C396.544 68.4453 397.024 68.1984 397.681 68.4664Z" fill="#FCFCFC"/>
<path d="M186.733 61.7795C185.659 60.7567 184.48 61.6173 183.364 61.6314C172.489 61.7795 161.614 61.8712 150.746 62.2239C137.237 62.6612 123.721 62.8446 110.212 63.1762C99.3508 63.4513 88.4828 63.7193 77.6219 64.0297C66.0971 64.3541 54.5794 64.8197 43.0476 64.862C41.2186 64.8691 39.3896 65.0525 37.5536 65.1512C37.483 62.6542 37.5324 60.1501 37.2993 57.6742C37.1157 55.7627 37.6524 55.156 39.6438 55.1419C47.3623 55.0784 55.0808 54.8316 62.7993 54.6341C96.2437 53.8017 129.688 52.9553 163.14 52.137C197.763 51.2906 232.387 50.4865 267.011 49.64C293.033 49.0052 319.056 48.3492 345.071 47.6156C346.964 47.5592 347.373 48.0882 347.394 49.8657C347.5 58.7535 347.705 67.6341 347.973 76.5148C348.023 78.0666 347.557 78.645 346.046 79.0259C338.002 81.0645 330.001 83.2441 321.979 85.3602C321.421 85.5083 320.828 85.5366 320.249 85.6212C320.108 77.1214 319.945 68.6217 319.854 60.1289C319.84 58.563 319.218 58.0622 317.735 58.1468C314.444 58.3232 311.147 58.4219 307.856 58.5348C301.041 58.7605 294.22 58.6335 287.398 58.9298C275.386 59.4447 263.353 59.5717 251.327 59.8679C245.607 60.009 239.894 60.1572 234.174 60.3123C233.531 60.3264 232.825 60.1783 232.352 60.8202C217.042 56.4328 201.838 56.7361 186.733 61.7795Z" fill="#FCFBF9"/>
<path d="M323.406 237.947C323.237 230.174 323.23 222.386 322.862 214.62C322.403 204.787 322.651 194.954 322.417 185.128C322.22 176.699 321.648 168.263 321.782 159.841C321.888 153.337 321.57 146.848 321.471 140.358C321.379 134.2 321.238 128.035 321.153 121.877C321.146 121.214 321.153 120.551 320.723 119.987C324.07 119.437 327.46 119.564 330.828 119.38C331.506 119.345 332.043 119.345 332.382 120.177C335.658 128.085 341.477 134.13 347.282 140.154C348.609 141.529 349.111 142.919 349.146 144.802C349.471 162.556 349.874 180.304 350.297 198.051C350.333 199.504 350.043 200.668 349.111 201.86C343.956 208.441 341.597 216.059 341.216 224.312C341.145 225.836 340.573 226.985 339.648 228.058C335.496 232.868 330.207 235.838 324.176 237.615C323.915 237.7 323.66 237.834 323.406 237.947Z" fill="#FDFDFC"/>
<path d="M232.352 60.8202C232.825 60.1783 233.531 60.3335 234.173 60.3123C239.893 60.1571 245.606 60.009 251.326 59.8679C263.353 59.5717 275.379 59.4377 287.398 58.9298C294.219 58.6406 301.041 58.7675 307.856 58.5348C311.153 58.4219 314.444 58.3232 317.735 58.1468C319.218 58.0692 319.839 58.5701 319.854 60.1289C319.938 68.6287 320.108 77.1285 320.249 85.6212C311.104 88.0688 301.966 90.5377 292.821 92.9641C281.678 95.9197 270.527 98.847 259.377 101.767C258.219 102.071 257.025 102.324 256.524 103.552C255.655 105.675 253.664 105.597 251.934 105.95C250.444 106.253 250.973 104.977 250.952 104.335C250.797 98.7553 250.783 93.1687 250.564 87.5962C250.274 80.218 248.382 73.4041 243.149 67.8457C240.105 64.6292 236.257 62.6894 232.352 60.8202Z" fill="#7BAEEB"/>
<path d="M324.805 320.941C324.148 320.998 323.498 321.111 322.841 321.111C307.92 321.125 292.998 321.125 278.077 321.118C275.584 321.118 275.591 321.09 276.608 318.755C277.434 316.85 277.512 314.798 276.834 312.943C276.064 310.841 275.824 308.731 275.556 306.552C274.963 301.798 271.933 298.398 268.48 295.484C261.094 289.256 253.071 283.98 244.004 280.467C242.874 280.03 242.479 279.543 242.754 278.393C243.503 275.283 244.209 272.165 245.007 268.694C249.124 272.292 253.001 275.628 257.068 278.718C272.647 290.54 289.771 298.87 309.276 301.826C314.367 302.595 319.508 302.82 324.656 302.884C324.706 308.908 324.755 314.925 324.805 320.941Z" fill="#7BAEEB"/>
<path d="M144.235 407.188C157.017 398.314 171.557 394.829 186.775 393.637C205.482 392.17 222.621 396.903 238.771 407.188C206.951 407.188 175.589 407.188 144.235 407.188Z" fill="#FCFCFC"/>
<path d="M330.426 361.444C331.746 358.044 334.147 355.328 336.322 352.507C343.003 343.845 350.721 336.255 360.205 330.633C361.963 329.589 363.736 328.545 365.699 327.896C366.257 334.993 366.08 342.11 366.328 349.213C366.448 352.655 366.476 356.104 366.61 359.547C366.653 360.626 366.398 361.148 365.191 361.162C353.885 361.303 342.579 361.493 331.273 361.656C330.991 361.656 330.701 361.515 330.426 361.444Z" fill="#FF8500"/>
<path d="M324.805 320.941C324.755 314.925 324.706 308.908 324.656 302.891C333.526 302.644 342.212 301.36 350.538 298.158C351.689 297.713 352.239 297.798 352.239 299.265C352.254 306.093 352.352 312.921 352.444 319.749C352.458 320.631 352.275 321.118 351.251 321.111C342.438 321.04 333.625 320.998 324.805 320.941Z" fill="#FCFBF9"/>
<path d="M427.129 88.9225C427.108 94.1705 425.894 100.208 422.476 105.675C418.846 111.487 413.444 114.154 407.907 112.799C404.115 111.868 401.481 109.336 399.342 106.268C392.605 96.6252 392.682 80.2605 399.504 70.618C402.774 65.9978 407.067 63.2609 412.985 64.0086C419.079 64.7775 422.963 68.2902 424.983 73.9615C426.586 78.4406 427.073 83.0961 427.129 88.9225ZM425.329 88.7108C425.209 83.7873 424.947 79.6256 423.316 75.6896C423.048 75.0336 422.963 74.0249 422.243 73.905C421.466 73.771 421.212 74.7797 420.823 75.344C414.178 84.8524 408.656 95.031 402.879 105.068C402.336 106.014 402.724 106.465 403.374 107.058C407.738 111.029 414.086 110.93 418.493 106.649C423.754 101.542 425.244 95.0028 425.329 88.7108ZM398.339 99.6865C398.607 99.5172 398.762 99.4749 398.819 99.3761C404.567 89.3316 410.273 79.2588 416.968 69.7927C417.73 68.7135 417.13 68.4807 416.269 68.121C411.191 66.0189 405.69 67.2181 402.018 71.3516C398.311 75.5203 396.665 80.5426 396.213 85.9881C395.825 90.693 396.319 95.285 398.339 99.6865Z" fill="#F2F2F2"/>
<path d="M388.987 214.832C382.582 214.712 374.009 213.315 366.023 209.351C361.595 207.15 357.796 204.216 355.861 199.44C355.098 197.571 354.674 195.66 355.529 193.685C355.833 192.986 356.242 192.33 357.033 192.21C357.923 192.076 358.346 192.81 358.664 193.452C363.968 204.315 373.685 207.658 384.722 208.512C393.147 209.168 401.444 208.194 409.459 205.422C410.843 204.942 411.338 205.676 411.938 206.487C412.609 207.39 412.821 208.363 411.973 209.287C410.808 210.55 409.382 211.432 407.807 212.088C402.553 214.267 397.038 214.867 388.987 214.832Z" fill="#FCFBF9"/>
<path d="M132.781 306.241C133.148 296.754 135.804 287.203 141.764 278.71C142.781 277.264 144.024 276.002 145.612 275.155C146.199 274.845 146.876 274.584 147.456 275.162C148.013 275.713 147.533 276.291 147.3 276.771C145.415 280.742 143.339 284.636 141.608 288.67C137.414 298.447 136.926 308.548 139.306 318.853C139.462 319.538 140.535 320.49 139.222 321.068C137.668 321.752 135.055 320.991 134.695 319.827C133.424 315.651 132.831 311.376 132.781 306.241Z" fill="#F2F2F2"/>
<path d="M351.844 147.539C354.216 151.263 354.965 155.425 355.791 159.552C357.599 168.58 358.199 177.708 357.825 186.899C357.769 188.267 357.903 189.636 355.805 189.833C354.591 189.946 353.892 191.279 352.741 192.196C352.444 177.306 352.147 162.422 351.844 147.539Z" fill="#F2F2F2"/>
<path d="M184.432 390.879C189.008 386.661 193.125 382.866 197.595 378.754C197.863 382.754 198.089 386.238 198.336 389.716C198.4 390.618 197.983 390.894 197.164 390.823C193.16 390.47 189.142 391.021 184.432 390.879Z" fill="#F2F2F2"/>
<path d="M96.8156 123.859C84.168 123.859 71.5275 123.874 58.8799 123.852C54.9324 123.845 53.3294 122.152 53.3223 118.174C53.3152 114.873 53.3011 111.565 53.3364 108.264C53.3647 105.329 55.0524 103.552 57.9619 103.587C70.8919 103.742 83.829 103.806 96.752 104.229C103.291 104.44 109.83 104.236 116.355 104.596C122.231 104.92 128.106 104.857 133.974 105.005C138.748 105.125 140.196 106.662 140.196 111.48C140.196 113.462 140.04 115.458 140.224 117.426C140.627 121.652 138.543 124.036 133.635 123.951C121.362 123.74 109.082 123.881 96.8085 123.881C96.8156 123.866 96.8156 123.859 96.8156 123.859Z" fill="#FEFDFA"/>
<path d="M64.8115 72.0707C64.7904 75.781 62.7425 77.8125 59.0633 77.7772C55.6172 77.742 53.0255 75.1673 53.0679 71.8027C53.1032 68.5368 55.7372 65.941 58.9786 65.9551C62.347 65.9763 64.8327 68.5791 64.8115 72.0707Z" fill="#050505"/>
<path d="M74.8611 145.38C79.8537 145.38 84.8534 145.373 89.8461 145.387C90.863 145.387 92.1199 145.232 92.0705 146.77C92.0211 148.103 90.8841 148.026 89.9167 148.026C79.9243 148.026 69.932 148.033 59.9396 148.026C58.9086 148.026 57.6657 148.11 57.7081 146.615C57.7434 145.253 58.9298 145.38 59.869 145.38C64.8616 145.366 69.8613 145.373 74.854 145.373C74.861 145.38 74.8611 145.38 74.8611 145.38Z" fill="#0E0D0C"/>
<path d="M99.9862 71.8733C100.036 75.499 97.9242 77.7562 94.4286 77.8338C90.8836 77.9043 88.1861 75.365 88.1507 71.9016C88.1154 68.7062 90.7212 66.0187 93.9414 65.9341C97.2392 65.8494 99.9439 68.5158 99.9862 71.8733ZM97.3734 72.0285C97.3593 70.1522 95.848 68.5934 94.0614 68.6145C92.3172 68.6357 90.8342 70.1029 90.813 71.8381C90.7918 73.6721 92.2748 75.111 94.2168 75.1392C96.2294 75.1745 97.3804 74.0389 97.3734 72.0285Z" fill="#0E0D0C"/>
<path d="M77.2057 77.8126C73.7243 77.8126 71.2456 75.365 71.2103 71.8804C71.175 68.5581 73.9008 65.8424 77.2128 65.913C80.3976 65.9764 82.9751 68.6428 83.0034 71.9016C83.0387 75.6471 80.9131 77.8126 77.2057 77.8126ZM80.3058 72.1555C80.3694 70.1311 79.1194 68.7133 77.2128 68.6357C75.3909 68.5652 73.9573 69.9054 73.8938 71.7253C73.8302 73.6227 75.2284 75.1181 77.128 75.1957C79.1406 75.2733 80.2422 74.2223 80.3058 72.1555Z" fill="#0E0D0C"/>
<path d="M69.1404 165.237C65.9838 165.237 62.8272 165.23 59.6636 165.237C58.6326 165.244 57.6157 165.138 57.6722 163.812C57.7216 162.641 58.7032 162.542 59.6283 162.542C65.9415 162.542 72.2617 162.542 78.5749 162.556C79.5636 162.556 80.6511 162.634 80.5805 163.988C80.5169 165.138 79.5565 165.244 78.6173 165.237C75.4607 165.23 72.3041 165.237 69.1404 165.237Z" fill="#0E0D0C"/>
<path d="M53.3364 334.231C55.5538 332.502 57.8842 330.993 60.7442 330.612C61.5139 330.506 61.7399 330.146 61.7187 329.462C61.7046 328.877 61.6763 328.284 61.7399 327.699C61.8317 326.874 62.2978 326.295 63.1664 326.359C63.9078 326.415 64.4516 326.93 64.3033 327.699C63.8725 329.984 65.0801 330.647 67.0715 331.042C69.4089 331.508 71.3015 332.982 73.074 334.534C76.9014 338.935 77.8618 343.951 76.28 349.502C74.7617 354.856 70.906 357.91 65.2778 358.354C58.8799 358.855 53.8166 356.626 50.8083 350.863C47.68 344.825 48.9511 339.246 53.3364 334.231ZM61.7258 340.614C61.7187 340.614 61.7046 340.614 61.6975 340.614C61.6975 338.562 61.6763 336.502 61.7046 334.449C61.7187 333.434 61.295 333.257 60.3558 333.455C56.0622 334.358 52.4396 338.357 51.9099 342.85C51.3168 347.894 54.0708 352.747 58.7175 354.842C62.9898 356.767 69.2183 355.822 71.8311 352.662C76.1458 347.449 75.5456 336.333 66.2877 333.603C64.8329 333.173 64.3104 333.412 64.3457 334.999C64.4163 338.597 64.388 342.194 64.3527 345.792C64.3457 346.807 64.7623 348.303 63.0181 348.232C61.3868 348.162 61.7681 346.716 61.7399 345.672C61.6975 343.993 61.7258 342.3 61.7258 340.614Z" fill="#0E0D0C"/>
<path d="M315.377 345.686C313.181 345.686 310.984 345.679 308.788 345.693C307.913 345.7 307.079 345.559 307.023 344.515C306.959 343.351 307.835 343.083 308.795 343.076C313.188 343.069 317.58 343.055 321.972 343.076C322.876 343.083 323.844 343.217 323.844 344.423C323.844 345.665 322.876 345.693 321.958 345.686C319.769 345.686 317.573 345.686 315.377 345.686Z" fill="#0E0D0C"/>
<path d="M234.76 124.706C234.753 128.578 229.351 132.169 225.877 130.716C225.255 130.455 224.938 129.996 225.051 129.34C225.157 128.705 225.552 128.318 226.23 128.226C227.388 128.057 228.574 127.958 229.69 127.633C230.926 127.274 231.964 126.582 232.105 125.094C232.254 123.57 231.293 122.823 230.128 122.237C228.737 121.546 227.233 121.144 225.7 120.953C224.401 120.798 223.984 120.142 223.998 118.894C224.048 115.374 224.02 111.847 224.013 108.327C224.013 107.396 224.069 106.43 225.312 106.472C226.47 106.514 226.639 107.424 226.639 108.377C226.639 110.944 226.745 113.519 226.604 116.079C226.512 117.73 226.851 118.675 228.687 118.887C230.234 119.07 231.583 119.895 232.833 120.826C234.167 121.828 234.852 123.133 234.76 124.706Z" fill="#0E0D0C"/>
<path d="M240.064 112.136C240.021 113.102 240.29 114.429 238.99 115.247C237.246 116.347 235.107 115.367 234.866 113.3C234.768 112.432 234.803 111.544 234.845 110.662C234.923 108.969 235.954 108.066 237.543 108.087C239.16 108.101 240.092 109.075 240.071 110.782C240.057 111.149 240.064 111.515 240.064 112.136Z" fill="#0E0D0C"/>
<path d="M200.243 108.743C203.753 109.47 207.404 110.514 210.652 112.616C211.344 113.06 211.584 113.794 211.076 114.527C210.56 115.275 209.833 115.212 209.134 114.767C206.365 113.011 203.258 112.2 200.123 111.438C199.261 111.226 198.357 110.909 198.534 109.724C198.661 108.92 199.268 108.708 200.243 108.743Z" fill="#0E0D0C"/>
<path d="M209.267 144.957C206.449 144.83 203.335 142.22 202.954 139.653C202.841 138.905 202.798 138.122 203.787 137.911C204.599 137.734 205.355 137.946 205.489 138.842C205.856 141.318 207.763 141.875 209.726 142.347C210.531 142.545 211.145 142.806 211.025 143.758C210.884 144.781 210.185 145.035 209.267 144.957Z" fill="#0E0D0C"/>
<path d="M206.413 99.3476C206.42 100.321 205.721 100.603 205.001 100.758C203.362 101.104 201.752 101.478 200.206 102.162C199.38 102.529 198.575 102.317 198.179 101.45C197.706 100.406 198.504 100.004 199.274 99.7074C200.968 99.0584 202.677 98.4447 204.485 98.1485C205.544 97.9721 206.166 98.3389 206.413 99.3476Z" fill="#0E0D0C"/>
<path d="M235.748 94.8405C236.334 94.8123 240.995 97.7255 241.193 98.2757C241.376 98.7836 241.334 99.2632 240.952 99.6935C240.564 100.138 240.049 100.272 239.582 99.9898C237.965 99.0164 236.376 98.0147 234.809 96.9637C234.364 96.6675 234.201 96.1596 234.512 95.6165C234.788 95.1439 235.218 94.9181 235.748 94.8405Z" fill="#0E0D0C"/>
<path d="M425.327 88.7108C425.242 95.0027 423.752 101.542 418.491 106.648C414.085 110.93 407.736 111.029 403.372 107.058C402.715 106.465 402.327 106.014 402.878 105.068C408.647 95.0309 414.177 84.8524 420.822 75.3439C421.217 74.7796 421.464 73.7709 422.241 73.905C422.961 74.0249 423.046 75.0336 423.314 75.6896C424.946 79.6255 425.214 83.7943 425.327 88.7108Z" fill="#050505"/>
<path d="M398.337 99.6863C396.318 95.2918 395.823 90.6998 396.212 85.9879C396.664 80.5354 398.309 75.5131 402.017 71.3514C405.696 67.2179 411.19 66.0187 416.267 68.1207C417.129 68.4734 417.729 68.7062 416.966 69.7925C410.272 79.2586 404.566 89.3314 398.818 99.3759C398.768 99.4747 398.606 99.517 398.337 99.6863Z" fill="#050505"/>
<path d="M97.3739 72.0286C97.3881 74.0389 96.2299 75.1746 94.2173 75.1393C92.2753 75.104 90.7995 73.6721 90.8136 71.8382C90.8277 70.11 92.3107 68.6358 94.062 68.6146C95.8486 68.6005 97.3598 70.1523 97.3739 72.0286Z" fill="#7BAEEB"/>
<path d="M80.3057 72.1555C80.2422 74.2223 79.1406 75.2733 77.128 75.1957C75.2213 75.1181 73.8301 73.6227 73.8937 71.7253C73.9572 69.9054 75.3979 68.5722 77.2127 68.6357C79.1194 68.7063 80.3693 70.1311 80.3057 72.1555Z" fill="#7BAEEB"/>
<path d="M61.7258 340.614C61.7258 342.3 61.6975 343.993 61.7399 345.679C61.7682 346.716 61.3868 348.169 63.0181 348.239C64.7553 348.31 64.3386 346.815 64.3527 345.799C64.388 342.201 64.4234 338.604 64.3457 335.007C64.3104 333.419 64.84 333.18 66.2877 333.61C75.5456 336.347 76.1458 347.464 71.8311 352.669C69.2183 355.822 62.9898 356.774 58.7175 354.849C54.0709 352.754 51.3168 347.901 51.91 342.857C52.4396 338.364 56.0623 334.365 60.3558 333.462C61.295 333.264 61.7187 333.441 61.7046 334.456C61.6763 336.509 61.6975 338.569 61.6975 340.621C61.7046 340.614 61.7187 340.614 61.7258 340.614Z" fill="#FCFBF9"/>
</svg>
