<svg width="430" height="467" viewBox="0 0 430 467" fill="none" xmlns="http://www.w3.org/2000/svg">
<path d="M145.413 196.925C138.804 194.446 132.365 193.072 126.033 191.333C103.451 185.117 81.3422 177.759 60.9367 165.915C36.8925 151.958 19.3499 131.811 5.40139 108.195C3.475 104.931 2.12832 101.337 0.451652 97.921C-0.431277 96.1284 -0.0388823 95.1385 1.79832 94.202C26.8414 81.4664 51.8577 68.6774 76.874 55.8793C112.129 37.8462 147.366 19.7952 182.611 1.74422C183.022 1.53018 183.432 1.31614 183.851 1.11101C187.32 -0.592415 187.24 -0.538906 189.532 2.6985C195.142 10.6092 198.174 19.6703 201.322 28.678C202.08 30.8452 202.571 31.6835 205.068 30.4439C211.784 27.0994 219.124 25.5209 226.499 24.8609C236.408 23.9691 246.111 21.7038 256.019 20.9546C258.989 20.7316 261.959 20.366 264.911 20.7584C268.354 21.2222 271.109 22.9524 272.411 26.2433C273.66 29.3826 272.296 32.1473 270.102 34.3323C268.657 35.7771 268.808 36.7225 269.861 38.301C273.232 43.3578 274.597 49.137 275.328 55.0678C277.308 71.0943 279.93 87.0405 281.33 103.138C282.168 112.761 282.784 122.384 280.822 131.99C279.1 140.391 274.73 146.598 266.802 150.139C266.481 150.281 266.204 150.504 265.955 150.665C265.937 151.298 266.347 151.289 266.695 151.307C295.118 152.395 321.891 160.056 347.674 171.641C362.051 178.098 375.456 186.151 387.585 196.256C404.244 210.142 415.392 227.72 422.099 248.179C431.981 278.306 432.694 308.656 423.669 339.121C416.159 364.458 399.419 381.288 375.349 391.366C358.288 398.509 340.566 402.46 322.043 402.46C319.947 402.46 319.198 404.217 317.646 404.913C311.216 407.793 304.91 410.942 298.56 414.001C265.821 429.768 233.081 445.536 200.332 461.304C196.658 463.07 192.957 464.782 189.3 466.593C187.811 467.333 186.964 467.003 186.206 465.532C174.228 442.219 165.104 417.916 160.672 391.99C160.431 390.59 159.967 389.716 158.603 389.047C132.177 375.963 115.268 355.049 107.741 326.608C98.5459 291.871 103.942 259.122 121.645 228.166C128.128 216.867 136.146 206.673 145.413 196.925ZM283.337 283.363C289.437 277.851 293.432 271.555 291.363 262.815C290.819 260.523 290.534 258.097 292.683 256.063C288.367 254.253 284.523 252.005 280.278 250.65C272.982 247.475 265.705 244.246 258.383 241.125C247.021 236.273 236.104 230.601 225.946 223.538C225.233 222.833 224.555 222.084 223.788 221.442C218.562 217.099 214.183 212.033 210.642 206.227C208.475 202.677 207.191 198.727 205.345 195.034C205.3 194.579 205.327 194.098 205.202 193.67C202.179 183.164 201.768 172.479 202.937 161.67C203.07 160.431 203.079 159.173 203.177 157.389C200.627 158.852 198.558 160.02 196.497 161.224C180.667 170.5 165.925 181.228 152.663 193.937C151.45 195.106 150.558 195.837 152.913 196.907C165.666 202.677 174.282 212.024 177.474 225.928C179.169 233.99 179.276 242.133 178.634 250.311C177.341 266.721 173.782 282.765 170.67 298.881C169.011 307.452 171.544 314.961 177.688 320.954C183.842 326.956 191.887 328.294 200.092 328.526C215.405 328.972 229.112 323.978 241.598 315.469C248.269 310.93 254.2 305.579 256.358 297.302C257.535 292.79 257.767 288.143 258.231 283.523C259.016 275.738 262.137 269.45 269.513 265.9C273.196 264.126 276.969 262.574 281.143 262.431C285.272 263.929 286.039 266.079 283.711 269.753C283.221 270.529 282.641 271.243 282.106 271.983C278.699 274.373 276.015 277.361 274.302 281.196C273.41 283.202 273.018 285.289 273.357 287.439C273.651 289.338 274.534 290.248 276.559 289.008C279.109 287.439 281.526 285.78 283.337 283.363ZM316.656 269.655C315.506 268.496 314.025 267.889 312.5 267.042C312.554 269.584 314.587 269.602 316.005 270.315C319.385 273.588 319.617 277.851 319.778 282.159C319.813 283.131 319.483 284.13 320.197 285.093C323.621 289.695 323.987 295.046 323.639 300.486C323.051 309.646 319.751 317.975 315.416 325.94C309.744 336.365 302.137 345.337 294.137 354.006C286.645 361.337 279.038 368.57 270.637 374.848C241.072 396.948 208.618 404.948 172.498 394.639C169.68 393.836 166.942 392.721 164.159 391.749C163.642 392.882 164.043 393.773 164.186 394.656C165.104 400.248 166.514 405.724 167.976 411.191C171.401 424.034 175.905 436.484 181.327 448.613C182.237 450.647 183.164 450.834 185.037 449.889C190.326 447.204 195.704 444.689 201.055 442.112C231.547 427.423 262.048 412.743 292.54 398.045C293.7 397.484 295.047 397.171 295.903 395.976C293.95 395.397 292.112 395.022 290.409 394.326C286.422 392.694 285.299 388.556 288.037 385.301C288.929 384.24 288.5 383.901 287.894 383.107C285.941 380.53 286.021 378.264 288.037 375.794C288.438 375.303 288.902 375 288.884 374.18C288.688 368.035 290.106 366.099 296.161 365.003C302.636 363.825 309.173 362.987 315.666 361.917C317.86 361.551 320 360.936 321.9 359.651C323.202 358.768 323.8 357.618 323.39 356.084C322.997 354.604 321.793 354.113 320.438 353.953C317.807 353.631 315.47 354.363 313.436 356.039C310.93 358.109 308.077 359.366 304.83 359.571C300.63 359.83 298.837 358.26 298.391 354.14C299.096 351.776 300.585 349.921 302.172 348.075C307.969 341.333 315.568 339.522 323.987 340.12C326.243 340.281 326.957 339.817 326.903 337.382C326.52 320.062 326.315 302.734 326.02 285.405C325.824 274.988 325.798 274.997 316.656 269.655ZM165.345 323.969C164.953 325.583 164.543 327.197 164.177 328.829C161.76 339.629 160.431 350.537 160.895 361.622C160.681 369.72 161.573 377.729 162.598 385.738C162.795 387.29 163.517 388.119 164.98 388.726C184.119 396.592 203.82 398.045 223.949 393.72C243.534 389.51 260.487 380.075 275.524 367.027C279.903 363.228 284.514 359.651 288.197 355.112C288.902 354.568 289.678 354.086 290.302 353.462C298.293 345.391 305.615 336.767 311.341 326.912C316.656 317.752 320.732 308.156 320.607 297.276C320.58 294.992 320.545 292.683 319.314 290.239C318.779 292.237 318.368 293.904 317.896 295.554C317.022 298.596 315.934 301.548 314.311 304.286C313.802 305.142 313.133 305.909 312.09 305.338C311.109 304.803 311.109 303.875 311.697 302.948C311.947 302.555 312.161 302.136 312.348 301.717C316.005 293.797 317.931 285.601 316.219 276.852C315.978 275.622 315.844 274.275 314.587 273.588C314.016 273.927 314.132 274.418 314.123 274.872C313.945 283.06 310.529 290.123 306.489 296.972C305.936 297.918 305.303 298.792 304.081 298.078C302.815 297.338 303.439 296.402 303.947 295.465C305.232 293.102 306.569 290.756 307.693 288.321C309.86 283.648 311.358 278.779 311.18 273.561C311.046 269.504 308.995 266.989 305.026 265.963C305.856 274.748 301.04 281.731 297.74 289.195C297.294 290.203 296.634 291.059 295.394 290.48C294.083 289.864 294.556 288.821 295.011 287.867C295.332 287.198 295.68 286.547 296.019 285.887C298.061 281.82 300.077 277.735 301.414 273.383C302.779 268.942 302.351 264.554 299.925 260.514C298.873 258.766 297.134 257.954 295.136 258.596C292.924 259.31 294.137 261.138 294.36 262.387C295.466 268.514 294.77 274.159 290.935 279.305C288.652 282.364 285.896 284.986 283.47 287.902C282.124 288.866 280.831 289.927 279.404 290.765C277.433 291.933 275.355 293.53 272.964 292.148C270.494 290.721 270.235 288.099 270.334 285.521C270.556 279.626 273.696 275.256 277.861 271.457C279.163 270.271 280.527 269.147 281.499 267.648C282.391 266.275 281.972 265.686 280.358 265.562C273.571 265.053 263.912 272.054 262.173 278.805C261.076 283.051 260.978 287.43 260.425 291.755C259.515 298.917 257.357 305.534 251.979 310.662C235.766 326.1 216.537 333.369 194.161 331.005C182.353 329.766 172.971 324.45 168.77 312.428C168.654 312.107 168.502 311.759 167.798 311.822C166.995 315.835 166.166 319.902 165.345 323.969ZM45.4097 151.325C46.2391 152.047 47.0328 152.823 47.8979 153.492C65.8062 167.235 86.2474 175.833 107.5 182.78C118.96 186.526 130.751 189.112 142.211 192.805C146.162 194.08 148.561 193.955 151.762 190.834C166.246 176.698 182.799 165.264 200.511 155.534C203.115 154.098 204.06 152.68 202.758 149.996C200.627 139.08 198.388 128.172 196.426 117.221C195.9 114.278 194.955 112.77 191.735 113.314C190.593 113.502 189.327 113.172 188.159 112.922C183.352 111.905 179.758 108.32 179.026 103.914C178.25 99.2231 180.114 94.9601 184.966 92.7572C188.248 91.2768 187.971 89.2879 187.249 86.8264C185.162 79.7719 183.985 72.5569 183.254 65.2437C181.889 51.5806 185.082 40.1204 198.468 33.5832C199.664 33.0035 199.458 32.4238 199.146 31.4427C197.175 25.2533 194.714 19.2512 192.234 13.249C191.334 11.064 190.415 10.9927 188.399 12.0897C171.517 21.2311 154.572 30.2387 137.645 39.2821C111.888 53.0433 86.1314 66.8045 60.3838 80.5746C43.9559 89.3593 27.5549 98.2064 11.0914 106.938C9.19175 107.945 9.04904 108.677 10.1906 110.425C14.2842 116.73 18.4134 123.009 23.1313 128.868C29.7667 137.127 36.8747 144.93 45.4097 151.325ZM305.116 396.788C308.612 398.607 312.375 399.035 316.148 399.258C337.748 400.543 358.145 395.753 377.73 386.915C400.151 376.802 414.759 360.008 421.502 336.276C427.789 314.158 428.627 291.844 424.552 269.298C421.091 250.15 414.197 232.394 402.693 216.563C402.042 215.672 401.551 214.762 400.186 214.646C390.01 213.772 380.833 216.26 372.941 222.815C364.718 229.647 361.079 238.94 359.126 249.116C358.849 250.534 359.616 251.39 360.374 252.318C366.448 259.711 370.506 268.121 372.138 277.512C374.929 293.548 374.26 309.289 365.378 323.541C357.039 336.918 344.91 343.892 328.848 343.224C325.138 343.072 321.436 342.84 317.717 343.134C310.975 343.67 306.177 347.335 302.387 352.597C301.744 353.489 301.138 354.613 301.842 355.709C302.592 356.878 303.912 356.905 305.116 356.682C307.622 356.218 309.869 355.121 311.849 353.524C313.713 352.026 315.827 351.188 318.19 350.911C322.159 350.448 325.387 352.178 326.252 355.272C327.171 358.546 325.521 361.355 321.704 363.13C317.155 365.243 312.241 365.645 307.381 366.349C302.984 366.982 298.489 367.098 294.253 368.632C292.621 369.221 291.31 370.264 291.47 372.316C291.631 374.385 293.334 374.367 294.726 374.661C299.72 375.705 304.723 375.071 309.691 374.429C314.56 373.796 319.403 372.878 324.246 372.057C325.271 371.888 326.413 371.549 326.779 372.913C327.198 374.492 325.842 374.661 324.808 375.009C324.629 375.063 324.451 375.107 324.272 375.143C313.856 376.962 303.466 379.21 292.79 377.328C291.39 377.078 290.034 377.426 289.588 378.88C289.143 380.316 290.07 381.377 291.328 382.001C292.148 382.411 293.04 382.706 293.932 382.938C297.374 383.812 300.906 383.981 304.438 383.972C311.528 383.945 318.475 382.795 325.325 381.056C326.359 380.797 327.456 380.521 327.875 381.858C328.295 383.187 327.314 383.678 326.234 383.928C316.433 386.22 306.569 387.968 296.465 386.38C294.645 386.095 293.076 386.487 291.408 386.862C290.391 387.094 289.678 387.557 289.499 388.601C289.33 389.618 289.856 390.393 290.605 391.009C291.729 391.936 293.138 392.141 294.485 392.445C302.395 394.219 310.351 393.765 318.306 392.792C321.436 392.409 324.54 391.838 327.661 391.357C328.687 391.196 329.606 391.41 329.739 392.605C329.846 393.568 329.249 394.139 328.277 394.291C327.635 394.389 327.001 394.549 326.368 394.665C319.349 395.834 312.286 396.61 305.116 396.788ZM398.563 211.31C391.598 203.23 384.026 196.586 375.679 190.852C349.886 173.104 321.213 162.482 290.596 156.783C281.268 155.044 271.876 154.072 262.36 154.393C260.523 154.455 259.943 154.91 260.282 156.81C260.764 159.548 260.978 162.33 261.246 165.104C262.476 177.67 253.968 187.864 241.402 188.568C228.212 189.309 218.045 183.182 209.438 173.844C208.225 172.533 207.11 171.124 205.63 169.394C205.505 170.482 205.398 170.999 205.389 171.516C205.122 193.402 213.327 210.998 231.627 223.556C242.954 231.324 255.466 236.719 268.041 241.972C285.861 249.419 303.448 257.294 319.626 267.97C321.517 269.218 323.452 270.395 325.655 271.787C325.655 270.485 325.664 269.575 325.655 268.674C325.45 255.029 325.245 241.384 325.057 227.729C325.039 226.668 324.629 225.357 325.967 224.777C327.117 224.287 328.17 224.867 329.044 225.589C330.185 226.525 331.505 227.399 332.299 228.594C335.153 232.893 339.131 235.685 343.626 238.039C348.29 240.483 352.241 244.006 356.334 247.662C361.302 224.965 374.323 211.944 398.563 211.31ZM279.127 113.564C278.94 110.897 278.761 107.464 278.449 104.048C276.906 86.8621 274.186 69.81 271.966 52.7133C271.359 48.0757 269.763 43.7235 267.328 39.7012C266.677 38.6221 266.16 38.1137 264.742 38.9164C254.298 44.8294 243.07 46.0244 231.36 44.3478C229.353 44.0624 227.373 43.1527 225.331 43.5986C219.873 44.7848 214.575 46.3901 209.875 49.5829C208.413 50.5729 207.886 51.5004 208.314 53.4446C213.211 75.9013 214.87 98.5721 212.569 121.493C211.427 132.873 208.787 143.985 206.593 155.16C205.362 161.438 206.522 166.352 210.874 171.07C219.168 180.042 228.64 186.258 241.366 185.67C250.543 185.242 257.321 178.491 258.204 169.385C258.383 167.565 257.812 166.932 256.073 166.727C252.934 166.361 249.883 165.47 246.94 164.346C243.186 162.91 239.654 161.073 237.192 157.71C236.613 156.917 235.757 156.141 236.229 154.99C236.72 153.786 237.879 153.974 238.869 153.902C246.405 153.367 253.727 151.798 260.889 149.434C270.039 146.42 276.327 140.756 278.119 130.937C279.118 125.461 279.377 119.905 279.127 113.564ZM110.577 325.627C110.871 325.467 111.085 325.422 111.174 325.289C124.026 305.668 141.417 295.715 165.408 299.853C166.906 300.112 166.817 299.336 166.835 298.328C166.986 288.143 168.708 278.163 171.731 268.496C174.728 258.917 176.19 249.241 176.056 239.207C175.807 220.675 168.324 206.878 150.951 199.128C149.167 198.334 148.061 198.334 146.67 199.895C142.104 205.032 137.555 210.169 133.497 215.716C113.252 243.381 103.371 273.99 107.241 308.468C107.884 314.247 108.856 319.991 110.577 325.627ZM159.709 386.291C159.325 383.152 158.96 380.494 158.692 377.836C157.524 366.26 157.354 354.684 158.746 343.108C160.262 330.47 163.553 318.172 166.094 305.73C166.46 303.947 166.505 303.037 164.222 302.573C140.579 297.775 120.307 313.926 112.762 328.802C112.12 330.069 112.209 331.202 112.637 332.521C117.132 346.256 124.383 358.296 134.63 368.499C141.836 375.678 149.979 381.582 159.709 386.291ZM368.544 308.076C369.873 303.804 370.238 299.755 370.443 295.715C371.05 283.737 369.293 272.215 363.3 261.629C355.764 248.322 343.955 240.215 330.15 234.543C327.929 233.633 328.143 234.891 328.161 236.291C328.357 248.072 328.598 259.845 328.669 271.626C328.678 273.588 329.481 274.605 330.961 275.63C339.193 281.356 346.988 287.626 354.444 294.324C359.269 298.649 363.79 303.26 368.544 308.076ZM329.008 277.967C328.937 278.779 328.865 279.207 328.874 279.644C328.981 288.366 329.079 297.079 329.213 305.802C329.383 316.468 329.632 327.135 329.713 337.801C329.731 339.924 330.426 340.566 332.46 340.388C335.144 340.156 337.828 339.951 340.415 339.175C353.552 335.242 362.024 326.43 366.947 313.846C367.589 312.196 367.349 311.215 366.171 309.967C358.448 301.797 350.225 294.181 341.44 287.171C337.499 284.023 333.539 280.875 329.008 277.967ZM205.407 53.9886C204.756 54.8181 204.506 55.0856 204.31 55.3888C201.037 60.2672 201.189 65.7343 201.59 71.2459C201.991 76.704 203.062 82.1264 202.5 87.6291C202.098 91.5532 201.813 91.6959 197.924 92.0794C193.76 92.4897 189.657 93.2745 185.992 95.4595C183.138 97.163 181.434 99.5888 181.898 103.04C182.353 106.394 184.413 108.516 187.552 109.658C190.148 110.603 192.841 110.666 195.525 110.282C197.309 110.023 198.058 110.683 198.379 112.378C199.137 116.48 200.02 120.556 200.841 124.641C202.179 131.303 203.516 137.956 204.854 144.618C205.095 144.6 205.336 144.574 205.576 144.556C212.631 114.599 211.98 84.6414 205.407 53.9886Z" fill="#0B0B0B"/>
<path d="M398.269 80.4587C398.153 106.224 379.193 124.971 353.365 124.846C328.366 124.73 308.487 104.637 308.701 79.7185C308.924 53.1415 327.385 35.0994 354.185 35.2421C378.524 35.3759 398.376 55.7367 398.269 80.4587ZM353.418 121.787C377.534 121.867 395.192 104.521 395.264 80.6817C395.335 57.2172 376.945 38.4081 353.837 38.3011C329.053 38.1941 311.813 55.05 311.698 79.4955C311.582 103.129 329.918 121.716 353.418 121.787Z" fill="#131313"/>
<path d="M74.0289 227.15C70.4615 226.276 66.7871 225.357 63.1037 224.474C61.8373 224.171 62.0157 223.484 62.5241 222.646C64.3434 219.64 66.1628 216.644 67.9554 213.62C68.5083 212.684 69.2397 212.363 70.2742 212.684C73.2708 213.629 76.2496 214.619 79.264 215.502C80.6731 215.912 80.6642 216.572 80.0845 217.732C78.7289 220.461 77.4893 223.243 76.2228 226.008C75.7947 226.945 75.322 227.676 74.0289 227.15Z" fill="#F73F5F"/>
<path d="M37.8731 269.45C38.3369 269.726 39.0592 270.128 39.7549 270.574C47.8261 275.827 55.8884 281.089 63.9507 286.359C64.9496 287.01 65.7879 287.849 65.0477 289.106C64.3074 290.364 63.2908 289.739 62.4167 289.169C54.0334 283.702 45.6678 278.217 37.2845 272.741C36.3837 272.152 35.5364 271.546 36.0002 270.306C36.241 269.637 36.8296 269.343 37.8731 269.45Z" fill="#7BADE9"/>
<path d="M340.236 20.5265C339.282 20.2055 338.426 19.6525 338.88 18.5377C340.673 14.0963 342.546 9.67274 344.455 5.27593C344.793 4.49111 345.56 3.96492 346.515 4.35733C347.514 4.76758 347.531 5.6951 347.219 6.47993C345.444 10.8321 343.607 15.1665 341.77 19.492C341.494 20.1341 340.976 20.4998 340.236 20.5265Z" fill="#F477B3"/>
<path d="M305.116 396.788C312.295 396.601 319.35 395.825 326.369 394.63C327.011 394.523 327.644 394.362 328.277 394.255C329.249 394.103 329.847 393.533 329.74 392.569C329.606 391.374 328.687 391.16 327.662 391.321C324.54 391.802 321.437 392.373 318.306 392.757C310.351 393.729 302.396 394.184 294.485 392.409C293.138 392.106 291.729 391.892 290.606 390.973C289.856 390.358 289.33 389.582 289.5 388.565C289.669 387.522 290.391 387.058 291.408 386.826C293.076 386.442 294.646 386.059 296.465 386.344C306.57 387.932 316.433 386.184 326.235 383.892C327.305 383.642 328.286 383.152 327.876 381.823C327.457 380.485 326.36 380.761 325.325 381.02C318.467 382.759 311.528 383.91 304.438 383.936C300.906 383.954 297.384 383.785 293.932 382.902C293.04 382.679 292.148 382.376 291.328 381.965C290.07 381.341 289.143 380.28 289.589 378.844C290.035 377.39 291.39 377.042 292.791 377.292C303.466 379.174 313.856 376.926 324.273 375.107C324.451 375.071 324.638 375.027 324.808 374.973C325.851 374.634 327.207 374.456 326.779 372.877C326.413 371.513 325.272 371.852 324.246 372.021C319.394 372.842 314.561 373.76 309.691 374.394C304.723 375.036 299.72 375.669 294.726 374.625C293.335 374.34 291.64 374.349 291.471 372.28C291.31 370.22 292.621 369.185 294.253 368.597C298.481 367.063 302.984 366.947 307.381 366.313C312.242 365.609 317.156 365.216 321.704 363.094C325.53 361.319 327.18 358.51 326.253 355.237C325.379 352.142 322.159 350.412 318.19 350.876C315.827 351.152 313.713 351.99 311.849 353.489C309.861 355.085 307.622 356.182 305.116 356.646C303.903 356.869 302.592 356.842 301.843 355.674C301.138 354.577 301.745 353.453 302.387 352.561C306.186 347.299 310.975 343.634 317.718 343.099C321.437 342.804 325.138 343.036 328.848 343.188C344.91 343.857 357.048 336.882 365.378 323.505C374.261 309.253 374.93 293.512 372.138 277.477C370.506 268.085 366.448 259.675 360.375 252.282C359.617 251.354 358.85 250.507 359.126 249.08C361.079 238.913 364.718 229.611 372.941 222.78C380.834 216.224 390.011 213.736 400.187 214.61C401.551 214.726 402.042 215.636 402.693 216.528C414.198 232.358 421.083 250.115 424.552 269.263C428.628 291.809 427.789 314.123 421.502 336.24C414.76 359.972 400.151 376.775 377.73 386.879C358.145 395.709 337.749 400.507 316.148 399.223C312.376 399.035 308.603 398.616 305.116 396.788Z" fill="#FCFCFC"/>
<path d="M398.563 211.311C374.323 211.944 361.302 224.965 356.343 247.662C352.249 244.006 348.299 240.483 343.634 238.039C339.139 235.685 335.162 232.893 332.308 228.595C331.514 227.399 330.203 226.525 329.053 225.589C328.178 224.876 327.117 224.287 325.976 224.777C324.638 225.357 325.048 226.668 325.066 227.729C325.253 241.375 325.467 255.02 325.664 268.674C325.681 269.575 325.664 270.485 325.664 271.787C323.461 270.395 321.525 269.218 319.635 267.97C303.448 257.294 285.869 249.419 268.05 241.972C255.475 236.719 242.963 231.324 231.636 223.556C213.335 210.998 205.13 193.402 205.398 171.516C205.407 170.999 205.514 170.482 205.639 169.394C207.119 171.133 208.234 172.533 209.447 173.844C218.053 183.182 228.22 189.309 241.411 188.568C253.986 187.864 262.485 177.67 261.254 165.104C260.987 162.33 260.773 159.548 260.291 156.81C259.952 154.91 260.532 154.455 262.369 154.393C271.885 154.063 281.276 155.044 290.605 156.783C321.222 162.482 349.895 173.104 375.687 190.852C384.026 196.595 391.598 203.239 398.563 211.311Z" fill="#FDFDFD"/>
<path d="M225.946 223.538C236.104 230.601 247.02 236.273 258.382 241.125C265.705 244.246 272.982 247.475 280.277 250.65C280.563 254.574 280.857 258.498 281.142 262.422C276.96 262.565 273.196 264.117 269.513 265.891C262.137 269.441 259.016 275.729 258.231 283.514C257.767 288.125 257.535 292.781 256.358 297.293C254.2 305.57 248.269 310.921 241.598 315.46C229.112 323.96 215.404 328.954 200.091 328.517C191.886 328.276 183.833 326.938 177.688 320.945C171.543 314.952 169.019 307.443 170.669 298.872C173.782 282.756 177.34 266.712 178.633 250.302C179.276 242.124 179.169 233.981 177.474 225.919C178.74 225.098 180.007 224.278 181.273 223.448C196.167 223.475 211.061 223.511 225.946 223.538ZM231.288 301.342C232.706 300.843 233.375 299.425 234.151 298.23C235.435 296.241 236.541 295.59 238.164 297.891C238.735 298.703 239.556 300.022 240.84 299.006C242.142 297.98 241.313 296.946 240.51 295.929C237.968 292.736 237.995 292.718 240.528 289.392C240.92 288.874 241.321 288.366 241.651 287.813C241.999 287.224 242.766 286.618 241.892 285.896C241.072 285.218 240.091 285.173 239.368 285.887C238.592 286.654 238.022 287.635 237.415 288.553C236.354 290.15 235.355 290.551 234.062 288.705C233.313 287.626 232.207 285.976 230.798 287.242C229.335 288.562 230.789 289.891 231.805 290.979C232.055 291.247 232.287 291.55 232.572 291.782C233.776 292.709 233.776 293.601 232.769 294.769C231.689 296.027 230.807 297.454 229.879 298.836C229.513 299.371 229.219 299.978 229.736 300.62C230.129 301.084 230.539 301.414 231.288 301.342ZM208.18 273.686C208.189 274.908 207.931 276.397 209.572 276.585C211.275 276.781 211.543 275.399 211.676 273.981C211.828 272.42 212.256 270.895 212.488 269.334C213.246 264.304 213.986 259.283 214.7 254.244C214.851 253.156 214.584 252.095 213.371 251.827C212.176 251.559 211.783 252.442 211.614 253.459C210.472 260.21 209.331 266.944 208.18 273.686ZM201.376 315.139C201.393 318.564 203.168 320.481 206.343 320.508C209.465 320.535 211.775 318.279 211.837 315.148C211.89 312.348 209.117 309.565 206.307 309.628C203.436 309.672 201.358 312 201.376 315.139ZM209.286 243.89C209.438 242.302 209.349 241.187 207.993 240.768C207.19 240.518 206.352 240.759 206.2 241.606C205.309 246.422 204.488 251.247 203.712 256.081C203.57 257 204.114 257.704 205.077 257.883C206.102 258.07 206.584 257.517 206.771 256.536C207.627 252.175 208.501 247.832 209.286 243.89Z" fill="#7BAEEB"/>
<path d="M279.127 113.564C279.377 119.905 279.127 125.461 278.12 130.964C276.327 140.783 270.04 146.446 260.889 149.461C253.719 151.824 246.406 153.394 238.869 153.929C237.88 154 236.72 153.813 236.23 155.017C235.757 156.168 236.613 156.943 237.193 157.737C239.654 161.099 243.186 162.937 246.941 164.373C249.884 165.496 252.934 166.388 256.073 166.754C257.821 166.959 258.383 167.592 258.205 169.411C257.331 178.508 250.544 185.269 241.367 185.697C228.631 186.285 219.16 180.069 210.874 171.097C206.513 166.379 205.363 161.465 206.594 155.186C208.787 144.012 211.418 132.899 212.569 121.519C214.879 98.5898 213.211 75.928 208.315 53.4713C207.887 51.5271 208.413 50.5996 209.876 49.6096C214.576 46.4168 219.873 44.8115 225.331 43.6253C227.383 43.1794 229.354 44.0891 231.36 44.3745C243.07 46.0511 254.298 44.8561 264.742 38.9431C266.16 38.1405 266.677 38.6488 267.328 39.7279C269.772 43.7502 271.368 48.1024 271.966 52.74C274.187 69.8456 276.907 86.8888 278.45 104.075C278.753 107.473 278.94 110.897 279.127 113.564ZM261.514 95.3703C261.514 93.9166 260.417 92.3202 258.508 91.2143C256.947 90.3135 255.235 89.8676 253.478 89.7695C251.98 89.6803 251.427 89.0828 251.311 87.5934C251.097 84.7305 250.678 81.8856 250.339 79.0406C250.196 77.8633 250.294 76.3204 248.573 76.4542C246.816 76.588 247.155 78.0685 247.306 79.2635C247.743 82.7507 248.341 86.2289 248.582 89.7338C248.733 91.9456 249.741 92.6502 251.739 92.5877C253.344 92.5342 254.834 93.0426 256.332 93.5509C257.473 93.9433 258.267 94.6657 258.446 95.8876C258.642 97.2342 257.982 98.1885 256.912 98.9198C255.574 99.8384 254.058 100.186 252.497 100.445C251.65 100.588 251.204 101.176 251.257 102.023C251.311 102.728 251.703 103.12 252.479 103.272C256.43 104.066 261.594 100.052 261.514 95.3703ZM260.265 76.9804C260.229 73.2257 259.213 71.5312 256.956 71.6293C255.137 71.7096 254.04 72.6906 253.986 74.5724C253.888 78.229 254.932 80.0216 257.179 80.0216C259.15 80.0127 260.274 79.0317 260.265 76.9804ZM219.641 79.1833C219.739 79.9146 219.829 80.6548 219.927 81.3861C220.212 83.4195 221.407 84.3381 223.405 83.9992C225.304 83.6782 225.964 82.3582 225.75 80.5389C225.67 79.8967 225.492 79.2635 225.447 78.6214C225.313 76.5969 224.252 75.4732 222.245 75.6515C220.212 75.8299 219.436 77.2034 219.641 79.1833ZM272.216 107.49C272.269 106.492 271.921 106.01 271.244 105.734C270.53 105.448 269.941 105.662 269.531 106.242C268.318 107.99 267.141 109.765 265.973 111.539C265.554 112.182 265.723 112.779 266.285 113.261C266.838 113.733 267.542 113.894 268.06 113.386C269.852 111.62 270.949 109.363 272.216 107.49ZM225.171 65.3507C225.162 65.315 225.162 65.2705 225.153 65.2348C223.681 65.4399 222.21 65.6272 220.747 65.8591C219.873 66.0018 219.071 66.3139 219.213 67.4376C219.338 68.4543 220.043 68.8468 220.997 68.7754C223.128 68.597 225.251 68.3919 227.374 68.1868C228.096 68.1154 228.613 67.7409 228.631 66.965C228.649 66.1266 228.265 65.4934 227.4 65.3864C226.669 65.2794 225.92 65.3507 225.171 65.3507ZM265.464 55.1301C265.322 54.8715 265.215 54.4077 264.956 54.274C263.003 53.284 261.041 52.2941 259.016 51.4557C258.401 51.1971 257.821 51.8214 257.545 52.4457C257.295 53.0165 257.447 53.614 257.964 53.8994C259.819 54.8983 261.674 55.9328 263.618 56.7176C264.733 57.1725 265.241 56.236 265.464 55.1301Z" fill="#FCFCFC"/>
<path d="M110.577 325.627C108.865 319.991 107.893 314.247 107.242 308.459C103.371 273.981 113.253 243.381 133.498 215.707C137.565 210.151 142.104 205.014 146.67 199.886C148.053 198.325 149.168 198.325 150.951 199.119C168.324 206.869 175.807 220.666 176.057 239.198C176.191 249.232 174.728 258.908 171.731 268.487C168.708 278.163 166.987 288.134 166.835 298.319C166.817 299.327 166.906 300.103 165.408 299.844C141.426 295.706 124.035 305.659 111.175 325.28C111.086 325.422 110.872 325.467 110.577 325.627Z" fill="#FCFCFC"/>
<path d="M283.48 287.911C285.914 284.995 288.661 282.373 290.953 279.314C294.788 274.168 295.493 268.514 294.378 262.396C294.155 261.147 292.942 259.319 295.154 258.605C297.152 257.963 298.891 258.775 299.943 260.523C302.369 264.554 302.797 268.942 301.433 273.392C300.095 277.735 298.079 281.829 296.037 285.896C295.707 286.556 295.359 287.216 295.029 287.876C294.565 288.83 294.102 289.873 295.413 290.489C296.652 291.068 297.312 290.212 297.758 289.205C301.058 281.74 305.883 274.757 305.045 265.972C309.022 266.998 311.064 269.513 311.198 273.57C311.377 278.797 309.878 283.666 307.711 288.331C306.579 290.765 305.25 293.111 303.965 295.474C303.457 296.411 302.824 297.347 304.099 298.087C305.321 298.801 305.945 297.918 306.507 296.981C310.547 290.132 313.963 283.069 314.141 274.881C314.15 274.427 314.034 273.936 314.605 273.597C315.863 274.284 315.996 275.631 316.237 276.861C317.95 285.61 316.023 293.806 312.367 301.726C312.17 302.145 311.956 302.564 311.716 302.957C311.127 303.884 311.136 304.821 312.108 305.347C313.151 305.918 313.82 305.151 314.329 304.295C315.943 301.557 317.031 298.605 317.914 295.563C318.387 293.913 318.797 292.246 319.332 290.248C320.572 292.692 320.598 295.01 320.625 297.285C320.75 308.156 316.674 317.761 311.359 326.921C305.642 336.776 298.32 345.4 290.32 353.471C289.696 354.095 288.92 354.577 288.215 355.121C287.199 355.112 286.173 355.023 285.156 355.094C271.761 355.995 258.383 357.056 244.979 357.796C231.663 358.537 218.33 358.983 205.006 359.509C193.252 359.973 181.488 360.338 169.733 360.829C166.781 360.954 163.847 361.364 160.895 361.64C160.432 350.555 161.76 339.647 164.177 328.847C164.543 327.224 164.953 325.61 165.346 323.995C165.827 326.912 166.567 329.819 166.719 332.762C166.844 335.268 167.834 335.804 170.144 335.795C187.214 335.705 204.284 335.732 221.363 335.732C242.794 335.732 264.225 335.732 285.656 335.768C287.35 335.768 288.492 335.723 288.251 333.431C287.261 324.049 286.521 314.64 285.477 305.267C284.835 299.47 284.675 293.628 283.48 287.911Z" fill="#FBFBFB"/>
<path d="M298.373 354.122C298.828 358.251 300.621 359.812 304.812 359.553C308.059 359.357 310.913 358.1 313.419 356.022C315.452 354.345 317.798 353.614 320.42 353.935C321.775 354.095 322.988 354.586 323.372 356.066C323.773 357.6 323.184 358.751 321.882 359.634C319.992 360.918 317.842 361.542 315.648 361.899C309.156 362.969 302.618 363.816 296.144 364.985C290.088 366.082 288.67 368.017 288.866 374.162C288.893 374.982 288.42 375.286 288.019 375.776C286.003 378.246 285.923 380.503 287.876 383.089C288.483 383.883 288.911 384.222 288.019 385.283C285.281 388.538 286.414 392.676 290.391 394.309C292.095 395.004 293.932 395.388 295.885 395.959C295.029 397.154 293.682 397.466 292.523 398.028C262.03 412.725 231.538 427.405 201.037 442.094C195.686 444.671 190.317 447.186 185.019 449.871C183.147 450.825 182.219 450.638 181.309 448.595C175.887 436.466 171.383 424.016 167.958 411.173C166.505 405.706 165.087 400.23 164.168 394.639C164.025 393.756 163.624 392.864 164.141 391.731C166.924 392.703 169.662 393.818 172.48 394.621C208.591 404.931 241.054 396.931 270.619 374.831C279.029 368.543 286.628 361.319 294.119 353.988C295.546 354.033 296.964 354.077 298.373 354.122ZM191.369 421.688C191.369 424.382 191.387 427.075 191.36 429.76C191.352 431.151 191.976 431.641 193.278 431.178C199.289 429.037 205.291 426.897 211.284 424.712C211.837 424.507 212.685 424.391 212.747 423.615C212.8 422.883 212.123 422.518 211.57 422.215C205.737 418.986 199.904 415.775 194.063 412.583C192.618 411.789 191.343 411.494 191.369 413.885C191.396 416.489 191.378 419.093 191.369 421.688Z" fill="#FF8500"/>
<path d="M160.895 361.622C163.838 361.346 166.781 360.936 169.733 360.811C181.488 360.329 193.251 359.964 205.006 359.491C218.33 358.965 231.663 358.51 244.978 357.779C258.383 357.038 271.761 355.977 285.156 355.076C286.173 355.005 287.198 355.094 288.215 355.103C284.523 359.643 279.921 363.21 275.533 367.018C260.497 380.075 243.543 389.502 223.958 393.711C203.829 398.037 184.128 396.583 164.989 388.717C163.517 388.11 162.804 387.29 162.607 385.729C161.573 377.729 160.69 369.72 160.895 361.622Z" fill="#FF911A"/>
<path d="M45.4092 151.325C58.0199 151.146 70.6306 151.075 83.2413 151.352C83.4821 153.51 82.3495 155.311 81.5646 157.14C80.6104 159.36 81.0295 160.208 83.5178 160.038C92.0795 159.45 100.65 158.888 109.221 158.388C119.736 157.782 130.242 157.193 140.765 156.729C143.04 156.631 144.003 156.132 142.808 153.858C142.308 152.903 142.237 151.922 142.353 150.888C143.744 150.817 145.127 150.701 146.518 150.683C165.265 150.442 184.02 150.219 202.767 149.996C204.06 152.68 203.123 154.107 200.519 155.534C182.807 165.264 166.263 176.698 151.771 190.834C148.569 193.955 146.17 194.08 142.219 192.805C130.759 189.104 118.969 186.526 107.508 182.78C86.2558 175.833 65.8146 167.235 47.9063 153.492C47.0234 152.823 46.2297 152.047 45.4092 151.325Z" fill="#FF911A"/>
<path d="M159.709 386.291C149.979 381.582 141.836 375.678 134.621 368.499C124.383 358.296 117.123 346.256 112.628 332.521C112.2 331.202 112.111 330.078 112.753 328.802C120.307 313.926 140.579 297.775 164.212 302.573C166.496 303.037 166.451 303.947 166.085 305.73C163.544 318.172 160.253 330.461 158.737 343.108C157.345 354.675 157.515 366.26 158.683 377.836C158.951 380.494 159.325 383.152 159.709 386.291Z" fill="#FCFCFC"/>
<path d="M283.48 287.911C284.675 293.628 284.835 299.461 285.478 305.24C286.521 314.613 287.261 324.022 288.251 333.404C288.492 335.696 287.35 335.741 285.656 335.741C264.225 335.705 242.794 335.705 221.363 335.705C204.293 335.705 187.223 335.678 170.144 335.768C167.834 335.777 166.844 335.241 166.719 332.735C166.568 329.801 165.827 326.894 165.346 323.968C166.175 319.902 166.996 315.835 167.807 311.839C168.512 311.777 168.672 312.125 168.779 312.446C172.98 324.468 182.362 329.774 194.17 331.023C216.547 333.377 235.775 326.118 251.989 310.68C257.367 305.561 259.525 298.934 260.434 291.773C260.978 287.456 261.086 283.068 262.182 278.823C263.922 272.081 273.589 265.071 280.367 265.579C281.982 265.704 282.392 266.293 281.509 267.666C280.537 269.164 279.172 270.288 277.87 271.474C273.705 275.274 270.566 279.644 270.343 285.539C270.245 288.107 270.512 290.729 272.974 292.165C275.355 293.548 277.433 291.942 279.413 290.783C280.84 289.936 282.133 288.874 283.48 287.911Z" fill="#7BADE9"/>
<path d="M181.273 223.449C180.007 224.269 178.741 225.09 177.474 225.919C174.281 212.024 165.666 202.669 152.913 196.898C150.558 195.828 151.45 195.097 152.663 193.928C165.925 181.22 180.667 170.491 196.497 161.215C198.548 160.011 200.626 158.843 203.177 157.381C203.079 159.164 203.07 160.422 202.936 161.661C201.768 172.462 202.178 183.155 205.202 193.661C205.327 194.098 205.3 194.571 205.344 195.025C204.845 195.427 204.283 195.766 203.864 196.238C198.736 201.928 194.036 207.975 189.238 213.941C186.651 217.179 183.931 220.291 181.273 223.449ZM187.855 191.289C183.075 191.289 183.075 191.289 181.086 195.703C181.05 195.783 181.006 195.873 180.961 195.953C179.891 197.799 180.703 198.664 182.531 199.057C184.868 199.556 187.204 200.055 189.532 200.599C190.896 200.912 191.726 200.314 192.047 199.092C192.306 198.129 192.386 197.094 192.404 196.096C192.466 190.593 193.126 191.369 187.855 191.289Z" fill="#FF8500"/>
<path d="M329.009 277.967C333.539 280.875 337.499 284.023 341.441 287.171C350.226 294.181 358.448 301.797 366.172 309.967C367.349 311.215 367.59 312.205 366.948 313.846C362.025 326.43 353.552 335.233 340.415 339.175C337.829 339.951 335.144 340.156 332.46 340.388C330.427 340.566 329.731 339.915 329.713 337.801C329.633 327.135 329.383 316.468 329.214 305.802C329.08 297.079 328.982 288.366 328.875 279.644C328.866 279.216 328.946 278.779 329.009 277.967Z" fill="#FBFBFB"/>
<path d="M205.407 53.9885C211.98 84.6502 212.631 114.607 205.577 144.556C205.336 144.573 205.095 144.6 204.854 144.618C203.516 137.956 202.179 131.303 200.841 124.641C200.02 120.556 199.137 116.48 198.379 112.378C198.067 110.683 197.309 110.032 195.525 110.282C192.841 110.665 190.157 110.594 187.552 109.658C184.413 108.525 182.353 106.402 181.898 103.04C181.434 99.5887 183.138 97.1539 185.992 95.4594C189.657 93.2744 193.76 92.4807 197.925 92.0793C201.813 91.6958 202.089 91.5531 202.5 87.629C203.062 82.1263 201.982 76.7039 201.59 71.2458C201.189 65.7342 201.037 60.2671 204.31 55.3887C204.515 55.0855 204.756 54.809 205.407 53.9885Z" fill="#F8F8F8"/>
<path d="M181.273 223.449C183.931 220.291 186.651 217.17 189.238 213.95C194.036 207.984 198.736 201.937 203.864 196.247C204.283 195.775 204.845 195.436 205.344 195.034C207.191 198.727 208.475 202.677 210.642 206.227C214.192 212.033 218.562 217.09 223.788 221.442C224.555 222.084 225.233 222.833 225.946 223.538C211.061 223.511 196.167 223.475 181.273 223.449Z" fill="#FBFBFB"/>
<path d="M298.373 354.122C296.964 354.077 295.546 354.033 294.137 353.997C302.137 345.328 309.744 336.356 315.416 325.931C319.751 317.966 323.05 309.646 323.639 300.477C323.987 295.037 323.612 289.695 320.196 285.084C319.483 284.121 319.813 283.131 319.777 282.15C319.617 277.851 319.394 273.579 316.014 270.315C316.237 270.092 316.451 269.878 316.665 269.655C325.797 274.997 325.833 274.997 326.011 285.387C326.306 302.716 326.511 320.044 326.894 337.364C326.948 339.799 326.243 340.263 323.978 340.102C315.559 339.505 307.96 341.315 302.163 348.057C300.567 349.903 299.086 351.759 298.373 354.122Z" fill="#F8F8F8"/>
<path d="M281.151 262.422C280.866 258.498 280.572 254.574 280.286 250.65C284.531 252.005 288.375 254.244 292.692 256.063C290.542 258.097 290.828 260.523 291.372 262.815C293.441 271.555 289.445 277.851 283.345 283.363C282.596 279.599 283.104 275.711 282.123 271.974C282.658 271.234 283.238 270.52 283.729 269.744C286.039 266.079 285.272 263.92 281.151 262.422Z" fill="#F8F8F8"/>
<path d="M282.115 271.974C283.096 275.711 282.588 279.608 283.337 283.363C281.527 285.78 279.101 287.439 276.568 288.999C274.543 290.239 273.66 289.338 273.366 287.43C273.036 285.28 273.42 283.193 274.312 281.187C276.024 277.352 278.708 274.355 282.115 271.974Z" fill="#7BADE9"/>
<path d="M316.656 269.655C316.442 269.878 316.219 270.101 316.005 270.315C314.587 269.602 312.554 269.584 312.5 267.042C314.034 267.889 315.506 268.496 316.656 269.655Z" fill="#7BADE9"/>
<path d="M353.418 121.787C329.918 121.715 311.591 103.129 311.698 79.5043C311.814 55.0588 329.062 38.2028 353.838 38.3099C376.945 38.408 395.335 57.226 395.264 80.6905C395.192 104.521 377.534 121.867 353.418 121.787ZM350.404 74.5635C350.413 74.5635 350.422 74.5635 350.431 74.5635C350.716 79.2813 351.073 83.9903 351.26 88.7171C351.331 90.5632 351.938 91.4194 353.882 91.3837C358.698 91.3034 363.523 91.3659 368.339 91.3391C369.436 91.3302 370.818 91.4283 370.747 89.8051C370.685 88.2979 369.374 88.289 368.241 88.2801C364.442 88.2622 360.633 88.1463 356.843 88.3158C354.801 88.4049 354.15 87.8252 354.069 85.7472C353.82 79.2724 353.329 72.7976 352.946 66.3317C352.874 65.1901 352.937 63.9059 351.323 63.9951C349.664 64.0843 349.958 65.4309 350.003 66.519C350.127 69.2035 350.27 71.879 350.404 74.5635Z" fill="#FCFCFC"/>
<path d="M142.353 150.897C142.246 151.931 142.309 152.912 142.808 153.867C144.003 156.15 143.04 156.64 140.766 156.738C130.251 157.202 119.736 157.791 109.221 158.397C100.651 158.897 92.0889 159.458 83.5182 160.047C81.021 160.216 80.6108 159.369 81.5651 157.149C82.3499 155.311 83.4825 153.51 83.2417 151.36C85.2306 148.694 85.7033 145.412 86.711 142.371C87.3799 140.346 88.2539 139.552 90.5371 139.338C102.042 138.286 113.511 136.921 124.998 135.709C128.307 135.361 131.642 135.218 134.951 134.87C136.788 134.683 137.484 135.396 137.983 137.18C139.303 141.791 140.275 146.527 142.353 150.897Z" fill="#F477B3"/>
<path d="M231.288 301.343C230.539 301.414 230.12 301.084 229.754 300.629C229.237 299.978 229.531 299.38 229.897 298.845C230.825 297.463 231.708 296.036 232.787 294.779C233.794 293.61 233.794 292.727 232.59 291.791C232.305 291.568 232.073 291.265 231.823 290.988C230.807 289.9 229.353 288.571 230.816 287.251C232.225 285.976 233.322 287.635 234.08 288.714C235.373 290.569 236.372 290.159 237.433 288.562C238.049 287.644 238.61 286.663 239.386 285.896C240.109 285.182 241.09 285.218 241.91 285.905C242.775 286.627 242.017 287.233 241.669 287.822C241.339 288.375 240.938 288.883 240.546 289.401C238.013 292.727 237.986 292.745 240.528 295.938C241.331 296.955 242.16 297.989 240.858 299.015C239.574 300.023 238.753 298.712 238.182 297.9C236.559 295.599 235.453 296.25 234.169 298.239C233.384 299.425 232.715 300.843 231.288 301.343Z" fill="#F8F8F8"/>
<path d="M208.181 273.686C209.323 266.944 210.473 260.21 211.606 253.468C211.775 252.451 212.168 251.569 213.363 251.836C214.575 252.113 214.843 253.165 214.691 254.253C213.978 259.283 213.238 264.313 212.48 269.343C212.248 270.895 211.82 272.429 211.668 273.99C211.525 275.408 211.267 276.79 209.563 276.594C207.931 276.398 208.19 274.908 208.181 273.686Z" fill="#F73F5F"/>
<path d="M201.376 315.139C201.358 312 203.436 309.672 206.308 309.619C209.117 309.565 211.9 312.339 211.837 315.139C211.775 318.27 209.456 320.526 206.344 320.499C203.16 320.481 201.385 318.564 201.376 315.139Z" fill="#F477B3"/>
<path d="M209.287 243.89C208.502 247.832 207.628 252.184 206.781 256.536C206.594 257.517 206.112 258.061 205.086 257.883C204.123 257.704 203.579 257 203.722 256.081C204.498 251.247 205.318 246.422 206.21 241.606C206.362 240.759 207.2 240.518 208.003 240.768C209.349 241.187 209.438 242.293 209.287 243.89Z" fill="#F73F5F"/>
<path d="M261.513 95.3703C261.593 100.052 256.439 104.066 252.47 103.272C251.694 103.112 251.302 102.719 251.248 102.023C251.186 101.176 251.632 100.579 252.488 100.445C254.048 100.186 255.574 99.8384 256.902 98.9198C257.973 98.1885 258.624 97.2253 258.436 95.8876C258.258 94.6657 257.473 93.9433 256.323 93.5509C254.833 93.0336 253.335 92.5342 251.73 92.5877C249.741 92.6501 248.724 91.9456 248.572 89.7338C248.332 86.2289 247.734 82.7506 247.297 79.2635C247.146 78.0684 246.807 76.5969 248.564 76.4542C250.294 76.3204 250.196 77.8633 250.329 79.0406C250.668 81.8945 251.087 84.7395 251.302 87.5934C251.417 89.0828 251.97 89.6803 253.469 89.7695C255.226 89.8765 256.938 90.3224 258.499 91.2143C260.416 92.3202 261.513 93.9166 261.513 95.3703Z" fill="#131313"/>
<path d="M260.265 76.9804C260.265 79.0317 259.15 80.0127 257.179 80.0127C254.922 80.0127 253.879 78.2201 253.986 74.5635C254.039 72.6817 255.128 71.7007 256.956 71.6205C259.212 71.5313 260.229 73.2258 260.265 76.9804Z" fill="#131313"/>
<path d="M219.641 79.1832C219.435 77.2122 220.202 75.8299 222.245 75.6515C224.251 75.4731 225.313 76.5969 225.446 78.6214C225.491 79.2635 225.669 79.8967 225.75 80.5388C225.973 82.3671 225.304 83.6781 223.404 83.9992C221.406 84.3381 220.211 83.4195 219.926 81.3861C219.828 80.6458 219.739 79.9145 219.641 79.1832Z" fill="#131313"/>
<path d="M272.215 107.49C270.948 109.363 269.843 111.62 268.059 113.386C267.542 113.894 266.837 113.742 266.284 113.261C265.722 112.779 265.553 112.182 265.972 111.539C267.14 109.765 268.317 107.99 269.53 106.242C269.932 105.662 270.529 105.439 271.243 105.734C271.929 106.01 272.268 106.492 272.215 107.49Z" fill="#131313"/>
<path d="M225.17 65.3508C225.911 65.3508 226.66 65.2794 227.391 65.3686C228.256 65.4756 228.64 66.1088 228.622 66.9472C228.604 67.732 228.096 68.0976 227.364 68.169C225.242 68.383 223.119 68.5882 220.988 68.7576C220.033 68.8379 219.338 68.4365 219.204 67.4198C219.061 66.2961 219.873 65.984 220.738 65.8413C222.2 65.6005 223.672 65.4221 225.144 65.217C225.161 65.2705 225.17 65.3062 225.17 65.3508Z" fill="#131313"/>
<path d="M265.464 55.1301C265.232 56.236 264.732 57.1635 263.627 56.7176C261.682 55.9328 259.827 54.8893 257.972 53.8993C257.446 53.614 257.294 53.0164 257.553 52.4456C257.83 51.8214 258.409 51.1971 259.025 51.4557C261.049 52.294 263.011 53.284 264.964 54.2739C265.223 54.4077 265.321 54.8715 265.464 55.1301Z" fill="#131313"/>
<path d="M191.369 421.688C191.369 419.093 191.396 416.489 191.369 413.893C191.343 411.494 192.618 411.798 194.063 412.591C199.904 415.784 205.746 419.004 211.57 422.223C212.123 422.535 212.809 422.901 212.747 423.624C212.685 424.399 211.846 424.515 211.284 424.721C205.291 426.906 199.289 429.046 193.278 431.186C191.976 431.65 191.352 431.16 191.36 429.768C191.387 427.075 191.369 424.382 191.369 421.688Z" fill="#F477B3"/>
<path d="M187.855 191.289C193.126 191.369 192.466 190.593 192.403 196.087C192.395 197.086 192.305 198.12 192.047 199.083C191.726 200.305 190.896 200.912 189.532 200.591C187.204 200.047 184.867 199.547 182.531 199.048C180.702 198.664 179.891 197.79 180.961 195.944C181.006 195.864 181.05 195.784 181.086 195.694C183.075 191.289 183.075 191.289 187.855 191.289Z" fill="#F477B3"/>
<path d="M350.403 74.5635C350.269 71.879 350.127 69.1945 350.002 66.5101C349.957 65.422 349.654 64.0753 351.322 63.9862C352.936 63.897 352.883 65.1812 352.945 66.3228C353.328 72.7976 353.819 79.2635 354.069 85.7383C354.149 87.8163 354.8 88.396 356.842 88.3068C360.633 88.1374 364.441 88.2533 368.24 88.2712C369.373 88.2801 370.675 88.289 370.746 89.7962C370.818 91.4283 369.435 91.3302 368.338 91.3302C363.522 91.357 358.697 91.2945 353.881 91.3748C351.928 91.4105 351.331 90.5543 351.259 88.7082C351.072 83.9903 350.715 79.2724 350.43 74.5546C350.421 74.5635 350.412 74.5635 350.403 74.5635Z" fill="#131313"/>
</svg>
