<svg width="539" height="412" viewBox="0 0 539 412" fill="none" xmlns="http://www.w3.org/2000/svg">
<path d="M49.9028 410.24C50.3155 410.248 50.7202 410.256 51.1329 410.264C51.6963 410.185 52.2519 410.042 52.8153 410.042C91.0355 410.121 129.256 410.177 167.484 410.335C171.753 410.351 176.047 410.129 180.309 410.693C226.917 410.415 273.526 410.693 320.134 410.947C336.499 411.034 352.863 411.042 369.227 411.153C371.291 411.169 371.997 410.431 371.973 408.407C371.894 401.717 372.013 395.019 371.902 388.329C371.87 386.392 372.402 385.869 374.354 385.876C402.622 385.94 430.883 385.892 459.151 385.972C461.579 385.98 462.452 385.361 462.548 382.829C463.238 363.425 464.063 344.022 464.849 324.618C465.349 312.317 465.849 300.016 466.341 287.715C466.468 284.604 466.397 284.556 463.23 284.501C458.77 284.422 454.31 284.215 449.85 284.295C447.834 284.334 447.437 283.683 447.469 281.779C447.993 247.82 448.485 213.862 448.913 179.903C449.667 120.994 450.366 62.0761 451.135 3.16655C451.167 0.865085 450.612 -0.00788252 448.104 5.35724e-05C387.861 0.254008 327.61 0.420667 267.367 0.627005C235.052 0.738111 202.744 0.880961 170.428 1C167.166 1.01587 167.166 1.00794 167.166 4.35696C167.166 20.8005 167.135 37.2521 167.198 53.6956C167.206 55.3225 166.809 56.1161 165.222 56.7986C156.064 60.727 151.294 67.7504 150.794 77.7261C149.009 113.288 147.207 148.857 145.398 184.419C144.802 196.053 144.128 207.68 143.549 219.322C142.985 230.686 149.461 240.194 159.714 243.201C161.548 243.741 163.428 244.154 165.325 244.09C166.976 244.035 167.214 244.749 167.19 246.154C167.119 250.201 167.111 254.256 167.19 258.304C167.222 259.82 166.944 260.462 165.19 260.455C152.381 260.375 139.573 260.455 126.764 260.391C119.058 260.351 113.764 254.725 114.193 246.955C114.526 240.868 112.622 235.948 107.582 232.345C104.844 230.385 101.733 229.663 98.4637 229.663C85.7342 229.663 73.0126 229.71 60.2831 229.75C53.4264 229.774 48.4584 232.837 45.4348 239.019C44.5221 241.273 44.1491 243.606 44.1967 246.035C44.2444 248.344 44.0618 250.669 44.2364 252.971C44.3872 255.002 43.6015 255.558 41.7048 255.415C38.5542 255.177 35.467 255.598 32.3957 256.375C22.7931 258.804 13.8729 268.605 13.0714 278.096C11.4762 297.008 10.016 315.928 8.52402 334.847C8.23831 338.427 8.42874 338.562 12.1111 338.562C29.7054 338.562 47.2917 338.562 64.8861 338.562C69.1001 338.562 69.2192 338.387 69.4573 334.109C69.9175 325.951 70.4493 317.801 70.9334 309.642C71.489 300.254 72.2191 290.866 72.5127 281.461C72.719 274.636 69.8858 268.787 65.2829 263.812C60.8387 259.01 55.2596 256.375 48.8314 255.526C47.5378 255.36 47.1886 254.86 47.2124 253.653C47.2759 250.431 47.1886 247.209 47.2838 243.995C47.3235 242.606 47.5457 241.194 48.4505 240.019C50.3234 235.4 54.5295 232.694 59.9895 232.678C72.5365 232.646 85.0993 232.877 97.6383 232.543C106.376 232.313 112.011 239.083 111.344 246.947C110.558 256.193 117.606 263.327 126.875 263.335C139.589 263.351 152.302 263.375 165.024 263.312C166.73 263.304 167.293 263.724 167.238 265.502C167.103 269.629 167.111 273.755 167.23 277.882C167.277 279.565 166.722 279.961 165.127 279.922C156.381 279.715 147.628 279.676 138.882 279.438C134.605 279.319 130.303 279.636 126.042 278.969C125.057 279.049 124.081 279.208 123.097 279.192C115.907 279.088 108.725 278.961 101.535 278.835C97.5431 278.763 97.4955 278.811 97.4955 282.755C97.4955 309.031 97.4716 335.316 97.5431 361.592C97.551 363.886 96.9638 364.378 94.6306 364.282C81.0122 363.735 67.378 363.433 53.7597 363.005C52.0217 362.949 50.9186 363.314 50.8233 365.362C50.1726 379.305 49.4742 393.241 48.7441 407.177C48.633 408.463 48.9981 409.415 49.9028 410.24ZM396.678 68.306C397.368 69.5678 397.654 70.9646 397.749 72.3454C398.107 77.8689 397.805 83.3925 397.591 88.908C397.575 89.3842 397.805 90.035 397.115 90.4238C395.694 88.6144 394.369 86.8367 392.956 85.1305C388.385 79.6228 383.353 74.639 376.489 72.0677C374.584 71.3534 372.902 70.5201 371.576 68.9885C365.124 65.1236 358.18 62.6634 350.72 61.719C335.586 59.7985 320.65 58.9731 307.897 69.7503C303.754 74.8612 301.032 80.599 300.318 87.1939C299.921 90.8921 299.382 94.5982 299.39 98.2964C299.398 101.399 297.802 102.963 295.358 104.114C294.088 104.709 292.803 105.296 291.461 105.701C288.073 106.733 284.652 107.685 281.232 108.629C273.248 110.835 267.772 115.756 265.042 123.613C263.836 127.081 263.439 130.684 263.272 134.326C262.741 146.04 269.098 156.103 279.93 160.539C285.216 162.706 290.803 163.269 296.445 163.23C298.199 163.214 299.08 163.769 299.683 165.467C301.889 171.705 306.365 175.745 312.452 178.11C314.143 178.768 315.825 179.467 317.571 179.967C319.388 180.483 318.928 182.054 319.238 183.213C319.579 184.459 318.325 184.379 317.65 184.617C303.969 189.474 291.961 197.037 281.533 207.068C272.216 216.028 265.042 226.393 261.836 239.138C261.487 240.535 260.677 240.67 259.487 240.67C252.543 240.654 245.599 240.646 238.663 240.741C237.147 240.765 236.56 240.225 236.083 238.797C234.083 232.853 232.028 226.917 230.409 220.853C227.616 210.386 225.155 199.855 225.608 188.895C225.782 184.625 226.528 180.53 229.203 176.999C232.512 172.626 235.226 167.888 236.988 162.69C239.028 156.69 239.671 150.714 235.155 145.357C234.012 144 232.52 140.31 232.385 138.675C232.322 137.945 232.115 137.215 231.877 136.517C230.869 133.572 229.227 131.017 226.981 128.874C222.219 124.319 217.568 123.859 211.95 127.358C210.934 127.993 209.95 128.684 208.648 129.557C208.783 126.533 208.942 123.906 209.013 121.271C209.125 117.311 209.474 113.343 208.458 109.439C207.998 107.669 207.085 106.217 205.22 105.709C203.188 105.161 201.49 105.796 200.125 107.407C199.728 107.875 199.522 108.621 198.712 108.645C196.228 103.844 193.554 103.431 189.824 107.272C189.38 107.732 188.919 108.518 188.475 107.264C184.8 104.495 182.332 105.018 180.174 109.161C178.269 112.812 177.706 116.867 177.19 120.867C175.769 131.945 175.579 143.112 175.388 154.262C174.991 177.34 175.539 200.362 179.618 223.163C180.689 229.155 182.229 235.051 184.189 241.114C178.237 241.114 172.547 241.114 166.857 241.114C154.731 241.114 145.977 232.281 146.469 220.219C147.048 206.188 147.874 192.164 148.596 178.141C149.667 157.27 150.763 136.398 151.818 115.518C152.469 102.645 152.866 89.7572 153.762 76.9007C154.556 65.5601 162.77 58.2113 174.087 58.0605C181.856 57.9573 189.618 57.8621 197.387 57.751C235.306 57.2034 273.232 56.6399 311.151 56.1161C333.292 55.8066 355.434 55.5606 377.576 55.2828C386.353 55.1876 394.345 60.6397 396.678 68.306ZM400.249 68.5361C400.083 68.2583 399.876 67.9965 399.749 67.7028C395.123 56.9653 387.734 52.2195 375.933 52.3862C329.824 53.0528 283.716 53.7194 237.607 54.3781C215.624 54.6876 193.641 54.9337 171.666 55.3067C169.674 55.3384 170.039 54.2432 170.039 53.1401C170.031 37.4346 170.071 21.737 170 6.03148C169.992 4.29348 170.444 3.85699 172.174 3.85699C198.125 3.80143 224.076 3.65858 250.027 3.57129C300.858 3.39669 351.68 3.24591 402.511 3.09513C417.058 3.05545 431.605 3.06338 446.152 2.97608C447.953 2.96814 448.445 3.56336 448.271 5.25375C448.096 6.97588 448.128 8.72182 448.104 10.4519C447.461 61.6 446.85 112.756 446.183 163.904C445.668 203.315 445.088 242.733 444.58 282.144C444.556 283.763 444.16 284.223 442.517 284.183C432.851 283.953 423.185 283.842 413.518 283.691C352.871 282.731 292.215 281.763 231.568 280.826C211.815 280.517 192.07 280.287 172.317 280.017C171.198 280.001 170.008 280.319 170.015 278.414C170.071 267.502 170.039 256.598 170.039 245.685C170.039 244.916 170.023 244.074 171.103 244.114C175.468 244.273 179.84 243.662 184.197 244.336C185.054 243.924 185.975 244.019 186.872 244.019C202.736 243.908 218.6 243.789 234.456 243.709C281.303 243.463 328.15 243.233 374.997 242.987C375.981 242.979 376.981 242.932 377.957 242.773C389.599 240.876 397.194 232.115 397.495 220.1C398.432 182.609 399.456 145.119 400.154 107.621C400.384 94.5982 401.717 81.5672 400.249 68.5361ZM184.181 366.806C181.626 367.155 179.078 366.719 176.531 366.647C151.778 365.941 127.026 365.211 102.265 364.552C100.718 364.513 100.337 364.02 100.337 362.544C100.368 336.371 100.376 310.19 100.313 284.017C100.305 282.096 100.964 281.684 102.757 281.731C112.082 281.985 121.407 282.112 130.74 282.287C146.517 282.541 162.302 282.803 178.078 283.041C230.79 283.842 283.509 284.644 336.221 285.445C377.782 286.072 419.344 286.723 460.905 287.279C463.071 287.31 463.452 287.969 463.365 289.961C462.087 320.261 460.873 350.561 459.706 380.861C459.643 382.599 459.111 383.043 457.413 383.043C429.565 382.996 401.71 382.996 373.862 383.035C372.409 383.035 371.751 382.773 371.894 381.162C372.037 379.52 371.925 377.861 371.925 376.21C371.917 372.774 371.917 372.766 368.505 372.663C353.553 372.218 338.602 371.798 323.658 371.338C287.731 370.234 251.797 369.131 215.87 367.996C205.307 367.663 194.744 367.203 184.181 366.806ZM210.355 407.859C210.355 407.701 210.355 407.542 210.355 407.383C194.244 407.383 178.134 407.415 162.024 407.375C126.161 407.288 90.3054 407.137 54.4422 407.105C52.1566 407.105 51.5693 406.55 51.7122 404.272C52.4423 392.479 53.0851 380.686 53.5692 368.885C53.6645 366.504 54.3073 365.885 56.6643 365.965C76.1474 366.671 95.6385 367.258 115.122 367.862C163.349 369.346 211.577 370.838 259.804 372.298C295.477 373.385 331.15 374.449 366.83 375.448C368.775 375.504 369.1 376.131 369.084 377.885C368.997 387.059 368.957 396.225 369.1 405.399C369.132 407.677 368.513 408.232 366.275 408.217C333.967 408.034 301.659 407.923 269.359 407.852C249.686 407.828 230.02 407.859 210.355 407.859ZM299.405 140.548C299.977 123.089 301.651 105.487 303.183 87.8843C303.532 83.9004 303.62 83.9163 307.675 84.2575C308.167 84.2972 308.667 84.3051 309.159 84.3369C319.333 84.8606 329.483 84.4162 339.578 83.1782C346.276 82.3529 353.069 81.7973 359.339 78.9245C360.934 78.1943 360.704 79.3371 360.72 80.218C360.823 85.0114 361.069 89.7969 361.68 94.5506C362.743 102.828 363.981 111.066 367.83 118.645C368.783 120.517 369.965 121.486 372.235 121.47C376.465 121.438 380.647 122.033 384.409 124.232C387.012 125.747 388.337 127.985 387.948 131.033C387.559 134.064 385.75 135.945 382.861 136.771C380.147 137.548 377.354 137.921 374.544 137.937C366.664 137.985 362.616 142.905 361.378 149.341C359.482 159.19 361.22 168.245 368.632 175.618C369.156 176.134 369.719 176.57 369.632 177.475C369.354 180.411 369.219 183.221 366.64 185.482C363.346 188.363 360.212 191.426 356.521 193.815C350.204 197.902 343.594 201.164 335.777 200.847C331.785 200.68 328.404 199.212 325.848 196.053C323.753 193.458 323.777 193.474 326.991 192.395C331.912 190.744 336.491 188.522 339.649 184.173C340.308 183.268 341.237 182.276 340.745 181.038C340.181 179.641 338.776 180.125 337.681 180.07C330.57 179.697 323.587 178.649 316.73 176.626C307.326 173.856 302.096 167.658 300.556 158.039C299.651 152.302 299.445 146.548 299.405 140.548ZM321.484 240.059C321.484 240.241 321.484 240.432 321.484 240.614C303.31 240.614 285.136 240.575 266.963 240.662C264.685 240.67 264.431 239.876 265.106 238.083C265.947 235.845 266.613 233.519 267.653 231.377C278.153 209.838 296.009 196.712 317.587 187.855C318.904 187.316 319.381 187.53 319.674 189.014C320.936 195.371 323.983 200.434 330.42 202.759C335.372 204.545 340.34 204.013 345.252 202.521C354.855 199.609 362.608 193.847 369.402 186.681C370.624 185.387 371.703 184.998 373.473 185.49C380.163 187.355 386.663 189.72 393.043 192.466C394.678 193.172 395.17 194.101 395.107 195.839C394.837 203.68 394.678 211.529 394.535 219.369C394.305 231.893 386.083 240.035 373.528 240.051C356.18 240.075 338.832 240.059 321.484 240.059ZM178.206 161.023C178.467 148.714 178.594 136.406 179.713 124.136C180.142 119.454 180.816 114.788 182.761 110.431C183.158 109.542 183.642 108.455 184.816 108.55C186.189 108.661 186.332 109.962 186.483 110.978C186.919 113.931 186.999 116.899 186.816 119.875C186.388 126.882 185.959 133.89 185.53 140.897C185.467 141.977 185.277 143.254 186.848 143.318C188.38 143.381 188.38 142.088 188.443 141.024C188.88 134.096 189.332 127.176 189.697 120.248C189.856 117.176 190.332 114.169 191.229 111.248C191.697 109.732 192.062 107.534 194.133 107.812C196.212 108.09 195.911 110.335 196.014 111.899C196.363 117.018 196.086 122.136 195.76 127.247C195.474 131.699 195.173 136.152 194.887 140.604C194.832 141.469 194.903 142.326 196.014 142.469C197.197 142.612 197.617 141.881 197.72 140.85C197.768 140.358 197.847 139.866 197.879 139.374C198.26 133.437 198.601 127.501 199.014 121.565C199.252 118.176 199.887 114.851 201.157 111.693C201.712 110.312 202.141 108.28 204.133 108.59C205.998 108.875 205.76 110.859 205.918 112.264C206.498 117.383 205.974 122.494 205.696 127.604C205.45 132.144 205.101 136.667 204.807 141.207C204.752 142.127 204.712 143.151 205.942 143.318C207.323 143.5 207.553 142.445 207.656 141.413C207.767 140.35 207.823 139.27 207.894 138.199C208.236 133.12 213.894 127.93 218.965 128.041C223.163 128.128 229.147 134.287 229.33 138.707C229.409 140.635 227.989 141.604 226.235 140.818C225.457 140.469 224.933 139.842 224.386 139.207C222.608 137.128 220.394 135.858 217.624 136.477C214.743 137.12 213.18 139.326 212.537 142.024C211.426 146.715 211.68 151.429 213.434 155.912C215.751 161.825 221.14 162.793 225.552 158.206C227.512 156.166 228.766 153.825 228.179 150.825C227.925 149.524 227.973 148.183 228.306 146.889C228.846 144.834 229.83 144.508 231.48 145.897C234.409 148.357 235.679 151.524 235.449 155.333C235.083 161.301 232.56 166.467 229.425 171.364C226.758 175.523 223.655 179.411 222.854 184.522C221.759 191.474 222.338 198.355 223.481 205.219C225.409 216.735 228.901 227.821 232.885 238.757C233.496 240.448 233.226 240.86 231.441 240.86C217.315 240.876 203.188 240.94 189.062 241.075C187.602 241.09 187.015 240.543 186.634 239.273C185.292 234.765 183.983 230.25 183.07 225.631C178.88 204.299 178.317 182.681 178.206 161.023ZM38.9668 335.617V335.609C30.9514 335.609 22.9359 335.609 14.9125 335.609C11.2461 335.609 11.3413 335.609 11.6429 331.871C12.7936 317.801 13.9285 303.722 14.9443 289.636C15.0792 287.763 15.5157 287.096 17.4997 287.04C33.8481 286.612 50.1964 286.056 66.5527 285.556C69.6001 285.461 69.6001 285.477 69.4017 288.469C68.4335 303.301 67.4415 318.134 66.5447 332.974C66.4257 334.966 65.8146 335.681 63.7592 335.657C55.4977 335.554 47.2283 335.617 38.9668 335.617ZM52.7121 282.596C52.7121 282.842 52.7121 283.096 52.7121 283.342C47.6807 283.342 42.6492 283.31 37.6177 283.366C36.2606 283.382 35.5861 283.088 35.9114 281.565C37.4749 274.319 39.0224 267.065 40.5302 259.804C40.7603 258.685 41.3159 258.344 42.3952 258.351C45.8633 258.359 49.2837 258.415 52.6883 259.351C61.5767 261.812 69.0605 271.01 69.5843 280.16C69.6874 282.001 69.1875 282.668 67.3066 282.628C62.4339 282.541 57.577 282.596 52.7121 282.596ZM23.9914 283.644C23.9914 283.787 23.9914 283.93 23.9914 284.072C21.7693 284.072 19.5472 284.017 17.3251 284.096C15.9125 284.144 15.5077 283.628 15.5395 282.215C15.8172 270.51 24.0787 260.796 35.6813 258.598C37.1098 258.328 37.8161 258.367 37.4034 260.224C35.8242 267.375 34.3481 274.549 32.9354 281.731C32.6577 283.136 32.1021 283.715 30.6736 283.66C28.4436 283.588 26.2135 283.644 23.9914 283.644ZM214.918 147.976C214.902 144.984 215.251 142.905 215.838 141.675C217.132 138.969 219.426 138.501 221.584 140.524C223.965 142.762 227.203 144.611 225.219 148.841C224.909 149.5 225.171 150.476 225.298 151.278C225.711 153.825 224.393 155.571 222.568 156.96C219.878 159.008 217.616 158.333 216.307 155.206C215.251 152.651 214.981 149.952 214.918 147.976ZM391.496 183.419C395.424 183.427 395.424 183.427 395.345 187.062C395.337 187.474 395.265 187.895 395.313 188.3C395.519 190.18 394.726 190.109 393.337 189.474C387.861 186.958 382.226 184.863 376.393 183.316C375.282 183.022 374.155 182.752 373.06 182.395C371.473 181.879 372.195 180.681 372.386 179.721C372.616 178.562 373.29 179.149 373.838 179.459C379.417 182.562 385.544 183.189 391.496 183.419Z" fill="#0B090B"/>
<path d="M49.9028 410.24C48.9981 409.423 48.641 408.463 48.7045 407.185C49.4346 393.249 50.133 379.305 50.7837 365.37C50.879 363.322 51.9821 362.957 53.7201 363.013C67.3463 363.433 80.9726 363.743 94.5909 364.29C96.9242 364.386 97.5035 363.893 97.5035 361.6C97.4321 335.324 97.4559 309.039 97.4559 282.763C97.4559 278.819 97.5035 278.771 101.495 278.842C108.685 278.969 115.868 279.104 123.058 279.2C124.034 279.215 125.018 279.057 126.002 278.977C125.018 277.485 123.454 276.652 122.105 275.604C106.987 263.915 90.4007 254.804 72.6397 247.836C64.7353 244.733 56.7675 241.797 48.4267 240.027C47.5299 241.202 47.2998 242.614 47.2601 244.003C47.1649 247.225 47.2521 250.447 47.1886 253.661C47.1648 254.867 47.5141 255.367 48.8076 255.534C55.2359 256.383 60.8229 259.018 65.2591 263.819C69.8621 268.795 72.6952 274.644 72.4889 281.469C72.2032 290.866 71.4731 300.254 70.9096 309.65C70.4255 317.809 69.8938 325.959 69.4335 334.117C69.1954 338.395 69.0685 338.569 64.8623 338.569C47.268 338.569 29.6816 338.569 12.0873 338.569C8.40499 338.569 8.21452 338.435 8.50021 334.855C9.9922 315.936 11.4525 297.016 13.0476 278.104C13.8492 268.621 22.7693 258.812 32.372 256.383C35.4432 255.606 38.5383 255.185 41.681 255.423C43.5777 255.566 44.3634 255.01 44.2126 252.979C44.038 250.677 44.2206 248.36 44.1729 246.043C44.1253 243.614 44.4983 241.273 45.411 239.027C34.5941 236.273 23.6661 234.202 12.5476 233.107C10.0954 232.869 9.69063 233.805 9.59539 235.932C8.42879 260.931 7.19868 285.921 5.96066 310.912C4.96864 331.038 3.96871 351.164 2.95289 371.282C2.34975 383.154 1.7466 395.035 1.01649 406.899C0.873634 409.224 1.58788 409.796 3.84967 409.812C18.3013 409.962 32.7609 410.264 47.2125 410.502C48.1251 410.51 49.0457 410.701 49.9028 410.24Z" fill="#FF8500"/>
<path d="M475.314 227.972C475.711 229.274 476.925 229.94 477.941 230.734C484.075 235.464 488.218 241.535 490.631 248.892C491.9 252.756 492.67 256.693 493.337 260.677C493.503 261.669 493.249 263.026 494.694 263.28C496.337 263.573 496.456 262.073 496.9 261.097C501.241 251.637 505.876 242.352 512.764 234.416C514.891 231.964 517.264 229.789 520.645 229.21C521.494 229.067 521.994 228.615 521.978 227.734C521.962 226.813 521.256 226.512 520.534 226.274C516.994 225.099 513.582 223.647 510.511 221.528C504.416 217.346 499.63 212.195 498.392 204.521C498.257 203.695 498.091 202.846 497.027 202.711C495.845 202.561 495.503 203.465 495.107 204.283C491.908 210.854 488.012 216.925 482.591 221.933C480.822 223.567 478.877 224.94 476.782 226.107C476.068 226.504 475.314 226.877 475.314 227.972ZM515.788 227.71C506.146 235.234 501.265 245.789 495.757 256.177C495.503 255.375 495.273 254.844 495.154 254.28C493.027 244.312 488.813 235.543 480.583 229.123C479.298 228.123 479.877 227.678 480.861 227.02C484.607 224.512 487.623 221.258 490.408 217.734C492.551 215.02 494.17 211.957 496.305 208.933C500.138 218.107 507.066 223.774 515.788 227.71Z" fill="#111111"/>
<path d="M89.7425 45.1009C88.5203 45.0454 88.2664 46.0056 87.9728 46.8469C86.449 51.2117 84.7031 55.4893 82.4175 59.505C80.0446 63.6793 77.4971 67.7109 73.0608 70.1314C71.6403 70.9091 71.672 72.044 73.1005 73.0201C80.9731 78.4008 86.1792 85.7099 88.7664 94.8682C89.0203 95.7491 89.3616 96.4236 90.3853 96.3919C91.417 96.3522 91.671 95.5665 91.9408 94.7491C93.6074 89.6383 95.6708 84.702 98.7024 80.2181C100.869 77.012 103.432 74.3058 107.218 72.9963C108.773 72.4567 109.273 71.2821 107.797 70.298C99.2261 64.584 95.0518 55.8385 91.3139 46.7755C90.7583 45.4263 90.4647 45.1327 89.7425 45.1009ZM90.3615 90.0589C87.2506 82.6863 83.0524 76.8691 77.1955 72.3217C76.1559 71.5123 77.0368 71.0916 77.5447 70.6472C79.2986 69.1235 80.7589 67.3537 82.1318 65.4729C85.3142 61.1001 87.4252 56.1797 89.7187 50.9578C93.282 58.624 97.258 65.7189 103.766 71.1393C96.8771 75.6152 93.655 82.4879 90.3615 90.0589Z" fill="#111111"/>
<path d="M180.303 410.693C176.041 410.129 171.748 410.351 167.478 410.335C129.258 410.169 91.0376 410.113 52.8095 410.042C52.246 410.042 51.6905 410.185 51.127 410.264C51.9683 410.748 52.9047 410.55 53.7936 410.566C94.4104 411.192 135.027 411.446 175.644 411.065C177.2 411.05 178.787 411.264 180.303 410.693Z" fill="#FF8500"/>
<path d="M54.5227 148.326C53.0942 148.358 52.499 149.382 51.6816 150.032C46.6422 154.024 41.8646 158.334 37.1665 162.722C36.8649 163 36.5634 163.294 36.3015 163.611C35.6269 164.428 35.1348 165.309 36.1348 166.206C37.0712 167.039 37.7855 166.373 38.4839 165.738C41.8964 162.635 45.293 159.516 48.7373 156.453C50.888 154.54 53.126 152.715 55.3084 150.826C55.8322 150.374 56.1655 149.834 55.7449 149.088C55.4195 148.509 54.9592 148.279 54.5227 148.326Z" fill="#ED84B6"/>
<path d="M519.601 258.186C519.585 258.837 520.038 259.233 520.451 259.63C525.553 264.566 530.664 269.495 535.767 274.423C536.624 275.248 537.569 275.764 538.553 274.748C539.561 273.709 538.648 272.955 537.942 272.264C532.783 267.265 527.617 262.281 522.45 257.289C521.966 256.821 521.474 256.353 520.72 256.638C520.006 256.908 519.792 257.543 519.601 258.186Z" fill="#ED84B6"/>
<path d="M513.484 199.069C513.468 199.871 513.714 200.378 514.294 200.64C514.96 200.934 515.627 200.799 516.095 200.259C517.595 198.513 519 196.696 519.992 194.593C520.404 193.72 520.317 192.998 519.524 192.426C518.555 191.72 518 192.434 517.508 193.109C516.302 194.768 515.119 196.442 513.952 198.133C513.73 198.442 513.595 198.839 513.484 199.069Z" fill="#ED84B6"/>
<path d="M184.186 366.807C194.749 367.204 205.312 367.664 215.883 367.997C251.809 369.132 287.736 370.235 323.671 371.338C338.622 371.799 353.574 372.219 368.517 372.664C371.93 372.767 371.93 372.775 371.938 376.211C371.938 377.862 372.049 379.528 371.906 381.163C371.763 382.774 372.422 383.036 373.874 383.036C401.722 382.996 429.578 382.996 457.425 383.044C459.124 383.044 459.648 382.6 459.719 380.862C460.886 350.562 462.1 320.262 463.378 289.962C463.465 287.97 463.076 287.311 460.917 287.279C419.356 286.724 377.795 286.073 336.233 285.446C283.522 284.644 230.802 283.851 178.091 283.041C162.314 282.803 146.529 282.533 130.752 282.287C130.998 283.049 131.665 283.438 132.212 283.922C141.426 292.12 149.648 301.215 156.941 311.159C165.52 322.857 172.504 335.459 178.012 348.847C180.408 354.704 182.852 360.577 184.186 366.807ZM374.993 343.3C374.993 343.673 374.993 344.038 374.993 344.411C357.232 344.411 339.471 344.411 321.718 344.411C319.266 344.411 318.893 343.951 319.25 341.419C319.647 338.554 320.226 335.697 320.337 332.824C320.433 330.221 321.377 329.515 323.956 329.594C345.669 330.229 367.39 330.713 389.112 331.269C402.079 331.602 415.039 331.991 428.006 332.293C429.911 332.34 430.72 333.031 430.586 334.967C430.474 336.61 430.562 338.269 430.57 339.919C430.57 343.197 430.53 343.292 427.292 343.292C409.857 343.308 392.429 343.3 374.993 343.3ZM286.768 344.419C282.808 344.419 278.855 344.395 274.895 344.427C273.094 344.443 272.292 343.832 272.761 341.879C273.594 338.443 274.34 334.975 275.038 331.507C275.34 330.007 276.133 329.531 277.617 329.539C285.117 329.594 292.617 329.586 300.124 329.547C301.886 329.539 302.489 330.269 302.267 331.967C301.815 335.396 301.402 338.832 301.029 342.276C300.846 343.927 299.997 344.475 298.378 344.443C294.521 344.363 290.648 344.419 286.768 344.419Z" fill="#FDFDFD"/>
<path d="M184.181 244.338C179.832 243.663 175.451 244.266 171.086 244.116C170.007 244.076 170.023 244.917 170.023 245.687C170.023 256.599 170.054 267.503 169.999 278.415C169.991 280.32 171.181 280.01 172.3 280.018C192.053 280.288 211.798 280.518 231.551 280.828C292.199 281.764 352.854 282.733 413.502 283.693C423.168 283.844 432.834 283.955 442.5 284.185C444.143 284.225 444.548 283.764 444.564 282.145C445.064 242.735 445.651 203.316 446.167 163.905C446.834 112.757 447.445 61.6013 448.087 10.4532C448.111 8.71516 448.08 6.97715 448.254 5.25502C448.429 3.56463 447.937 2.96148 446.135 2.97736C431.588 3.07259 417.041 3.05672 402.495 3.0964C351.664 3.24719 300.841 3.39797 250.01 3.57256C224.059 3.65986 198.108 3.80271 172.157 3.85826C170.427 3.85826 169.975 4.29475 169.983 6.03276C170.054 21.7383 170.023 37.4359 170.023 53.1414C170.023 54.2445 169.657 55.3397 171.649 55.3079C193.632 54.935 215.615 54.6889 237.59 54.3794C283.699 53.7287 329.808 53.0541 375.917 52.3875C387.726 52.2208 395.106 56.9666 399.733 67.7041C399.86 67.9978 400.066 68.2597 400.233 68.5374C400.884 67.7914 401.764 68.0454 402.558 68.0375C406.193 67.9978 409.835 68.1009 413.462 67.9581C427.049 67.4105 436.977 77.8623 436.477 91.0759C436.152 99.6469 435.787 108.226 435.652 116.797C435.445 129.836 435.025 142.867 434.699 155.906C434.342 170.429 434.144 184.952 433.668 199.475C433.287 211.109 433.31 222.752 432.977 234.386C432.763 241.846 429.604 247.806 423.374 252.163C418.597 255.504 413.161 255.758 407.732 255.813C381.885 256.099 356.029 255.877 330.181 256.266C298.802 256.742 267.406 256.123 236.019 256.782C225.282 257.004 214.536 256.789 203.799 256.909C199.338 256.956 195.243 255.853 191.625 253.425C188.307 251.179 185.276 248.512 184.181 244.338ZM426.144 267.797V267.805C430.35 267.805 434.548 267.805 438.755 267.805C439.842 267.805 441.088 267.71 441.08 269.273C441.072 270.836 439.802 270.741 438.731 270.741C430.406 270.749 422.081 270.741 413.756 270.741C412.637 270.741 411.383 270.709 411.399 269.249C411.407 267.789 412.669 267.789 413.78 267.789C417.899 267.805 422.017 267.797 426.144 267.797ZM426.319 276.249C422.2 276.249 418.081 276.249 413.962 276.249C412.812 276.249 411.391 276.423 411.399 274.757C411.407 273.281 412.716 273.336 413.811 273.336C422.136 273.336 430.453 273.336 438.778 273.344C439.858 273.344 441.128 273.265 441.08 274.844C441.032 276.408 439.747 276.249 438.691 276.249C434.556 276.265 430.438 276.249 426.319 276.249Z" fill="#FCFDFD"/>
<path d="M188.476 107.28C188.921 108.526 189.381 107.74 189.825 107.288C193.555 103.447 196.238 103.852 198.714 108.661C199.515 108.637 199.722 107.891 200.126 107.423C201.491 105.812 203.19 105.177 205.221 105.725C207.086 106.233 207.999 107.685 208.459 109.455C209.475 113.359 209.134 117.335 209.015 121.287C208.943 123.914 208.785 126.549 208.65 129.573C209.951 128.708 210.935 128.009 211.951 127.374C217.57 123.874 222.22 124.335 226.982 128.89C229.22 131.033 230.863 133.596 231.879 136.533C232.117 137.231 232.323 137.961 232.387 138.691C232.529 140.326 234.021 144.024 235.156 145.373C239.664 150.738 239.021 156.706 236.99 162.706C235.228 167.896 232.514 172.634 229.204 177.015C226.53 180.546 225.784 184.649 225.609 188.911C225.157 199.87 227.617 210.402 230.41 220.869C232.029 226.933 234.085 232.861 236.085 238.813C236.561 240.233 237.148 240.773 238.664 240.757C245.608 240.662 252.544 240.67 259.488 240.686C260.671 240.686 261.488 240.543 261.837 239.154C265.036 226.409 272.218 216.044 281.535 207.084C291.963 197.053 303.978 189.482 317.652 184.633C318.326 184.395 319.58 184.482 319.239 183.229C318.922 182.07 319.382 180.498 317.573 179.983C315.835 179.491 314.152 178.784 312.454 178.126C306.367 175.769 301.883 171.721 299.685 165.483C299.081 163.785 298.201 163.23 296.447 163.245C290.804 163.285 285.217 162.722 279.932 160.555C269.091 156.111 262.742 146.056 263.274 134.342C263.44 130.699 263.845 127.089 265.044 123.628C267.774 115.764 273.25 110.851 281.233 108.645C284.654 107.701 288.066 106.748 291.463 105.717C292.796 105.312 294.09 104.725 295.359 104.129C297.804 102.979 299.399 101.415 299.391 98.3123C299.383 94.6141 299.923 90.9 300.32 87.2097C301.034 80.6227 303.756 74.877 307.898 69.7661C307.041 69.3376 306.121 69.4566 305.216 69.4804C300.764 69.5598 296.312 69.6392 291.852 69.7741C278.813 70.1788 265.766 69.8773 252.711 70.2899C238.267 70.7502 223.816 70.7185 209.364 70.9328C199.507 71.0756 190.341 79.464 189.5 89.281C188.992 95.2489 188.809 101.272 188.476 107.28ZM232.783 112.081C232.696 111.288 233.093 110.867 233.68 110.431C236.712 108.169 239.672 105.828 242.719 103.598C243.632 102.931 244.862 102.804 245.656 103.749C246.576 104.844 245.775 105.78 244.894 106.463C242.688 108.177 240.45 109.835 238.196 111.486C237.204 112.216 236.204 112.954 235.117 113.526C233.601 114.319 233.053 113.343 232.783 112.081ZM228.165 97.0266C226.76 97.0981 225.895 95.5267 226.617 93.8919C227.506 91.8682 228.538 89.9 229.577 87.9477C230.093 86.9716 231.006 86.4399 232.061 86.9557C233.109 87.4716 233.244 88.4318 232.752 89.4873C231.736 91.638 230.744 93.7966 229.736 95.9553C229.418 96.606 228.847 96.9076 228.165 97.0266Z" fill="#7BAEEB"/>
<path d="M184.179 244.337C185.275 248.511 188.306 251.178 191.647 253.424C195.274 255.86 199.369 256.963 203.821 256.908C214.559 256.789 225.304 257.003 236.042 256.781C267.429 256.122 298.816 256.741 330.203 256.265C356.059 255.868 381.907 256.09 407.755 255.813C413.183 255.749 418.612 255.503 423.397 252.162C429.627 247.805 432.785 241.845 433 234.385C433.333 222.751 433.309 211.109 433.69 199.474C434.166 184.951 434.357 170.428 434.722 155.905C435.047 142.874 435.468 129.835 435.674 116.796C435.809 108.217 436.174 99.6462 436.5 91.0752C436.999 77.8616 427.071 67.4098 413.485 67.9573C409.858 68.1002 406.215 67.997 402.581 68.0367C401.787 68.0446 400.906 67.7907 400.255 68.5367C401.724 81.5677 400.398 94.5988 400.152 107.622C399.454 145.12 398.43 182.61 397.494 220.1C397.192 232.115 389.597 240.869 377.955 242.774C376.979 242.932 375.987 242.98 374.995 242.988C328.148 243.234 281.301 243.464 234.455 243.71C218.59 243.789 202.726 243.908 186.87 244.02C185.957 244.02 185.036 243.924 184.179 244.337Z" fill="#7BAEEB"/>
<path d="M210.356 407.859C230.022 407.859 249.687 407.82 269.353 407.867C301.661 407.947 333.969 408.05 366.269 408.232C368.515 408.248 369.134 407.693 369.094 405.415C368.951 396.249 368.991 387.075 369.078 377.901C369.094 376.139 368.769 375.512 366.824 375.464C331.151 374.464 295.471 373.393 259.798 372.314C211.57 370.845 163.343 369.361 115.115 367.877C95.6241 367.274 76.141 366.687 56.6579 365.981C54.2929 365.893 53.6581 366.52 53.5628 368.901C53.0787 380.702 52.4359 392.503 51.7058 404.288C51.5629 406.566 52.1502 407.113 54.4358 407.121C90.299 407.153 126.154 407.304 162.017 407.391C178.128 407.431 194.238 407.399 210.348 407.399C210.356 407.542 210.356 407.701 210.356 407.859ZM212.729 398.511C212.729 398.495 212.729 398.479 212.729 398.455C199.841 398.185 186.961 397.931 174.072 397.646C171.319 397.582 171.017 397.193 171.334 394.59C171.779 390.987 172.311 387.384 172.62 383.765C172.787 381.773 173.557 381.059 175.588 381.17C181.199 381.488 186.81 381.639 192.429 381.837C211.586 382.512 230.736 383.186 249.894 383.813C251.791 383.877 252.497 384.638 252.608 386.488C252.798 389.702 253.187 392.9 253.481 396.106C253.759 399.035 253.536 399.304 250.64 399.249C238.006 399.019 225.363 398.757 212.729 398.511ZM94.0925 399.265C86.077 399.265 78.0615 399.209 70.054 399.304C68.0224 399.328 67.2447 398.614 67.1494 396.63C66.9748 393.003 66.7288 389.368 66.324 385.757C66.0701 383.44 66.9748 382.821 69.1255 383.027C72.4984 383.353 75.8871 383.456 79.252 383.765C80.6487 383.892 81.3233 383.67 81.5217 382.075C81.847 379.464 82.5216 376.893 82.9581 374.29C83.1962 372.869 83.7438 372.068 85.3469 372.084C91.045 372.131 96.7431 372.107 102.449 372.091C104.132 372.084 104.814 372.861 104.743 374.536C104.655 376.766 104.79 379.004 104.663 381.226C104.576 382.742 104.981 383.202 106.576 383.091C110.695 382.813 114.829 382.829 118.956 382.567C121.162 382.432 121.916 383.194 121.726 385.4C121.416 389.019 121.202 392.654 121.186 396.289C121.178 398.527 120.424 399.328 118.139 399.296C110.115 399.193 102.1 399.265 94.0925 399.265ZM282.654 399.265C279.432 399.265 276.21 399.233 272.988 399.281C271.417 399.304 270.75 398.677 270.805 397.066C270.909 393.932 270.917 390.789 270.94 387.654C270.956 386.234 271.528 385.503 273.051 385.638C279.464 386.194 285.884 386.726 292.304 387.234C293.638 387.337 294.201 387.98 294.185 389.297C294.153 391.773 294.09 394.257 294.217 396.725C294.32 398.733 293.431 399.336 291.566 399.288C288.598 399.209 285.622 399.273 282.654 399.265ZM309.153 399.265C306.51 399.265 303.867 399.241 301.232 399.273C299.971 399.288 299.137 398.931 299.153 397.487C299.185 395.178 299.177 392.868 299.217 390.559C299.24 389.352 299.899 388.789 301.113 388.789C306.478 388.805 311.843 388.805 317.208 388.797C318.557 388.797 319.152 389.392 319.12 390.749C319.073 392.892 319.065 395.043 319.12 397.185C319.16 398.662 318.549 399.296 317.073 399.273C314.438 399.233 311.795 399.265 309.153 399.265ZM349.746 382.996C351.976 382.996 354.206 383.012 356.444 382.988C357.745 382.98 358.975 383.281 358.666 384.861C358.222 387.13 360.094 389.829 357.436 391.67C357.261 391.789 356.952 391.725 356.706 391.725C352.158 391.733 347.611 391.717 343.072 391.749C341.659 391.757 340.651 391.154 340.937 389.733C341.381 387.503 339.437 384.726 342.341 383.067C342.722 382.853 343.318 382.996 343.81 382.996C345.778 382.988 347.762 382.996 349.746 382.996Z" fill="#FBFBFB"/>
<path d="M188.478 107.281C188.812 101.273 188.994 95.2494 189.502 89.2577C190.343 79.4407 199.501 71.0523 209.366 70.9094C223.818 70.6952 238.269 70.7269 252.713 70.2666C265.76 69.8539 278.807 70.1555 291.854 69.7508C296.306 69.6159 300.758 69.5365 305.218 69.4571C306.123 69.4413 307.043 69.3222 307.901 69.7428C320.654 58.9656 335.59 59.791 350.724 61.7194C358.184 62.6638 365.128 65.124 371.58 68.9889C372.31 68.1794 373.286 68.5207 374.143 68.5127C381.659 68.4175 389.174 68.3699 396.682 68.2985C394.356 60.6322 386.357 55.1801 377.595 55.2912C355.454 55.569 333.312 55.815 311.17 56.1245C273.252 56.6483 235.325 57.2117 197.406 57.7593C189.637 57.8704 181.875 57.9657 174.106 58.0689C162.789 58.2117 154.575 65.5605 153.782 76.9091C152.877 89.7656 152.488 102.654 151.837 115.526C150.782 136.398 149.687 157.27 148.615 178.15C147.893 192.173 147.068 206.196 146.488 220.227C145.988 232.29 154.742 241.123 166.876 241.123C172.566 241.123 178.264 241.123 184.209 241.123C182.248 235.06 180.709 229.171 179.637 223.171C175.55 200.371 175.011 177.348 175.407 154.27C175.598 143.12 175.788 131.962 177.209 120.875C177.725 116.875 178.288 112.828 180.193 109.169C182.336 105.035 184.804 104.511 188.478 107.281ZM161.297 80.3216C161.257 79.5042 161.694 79.0916 162.107 78.7027C163.122 77.7345 164.107 76.7187 165.218 75.8695C166.392 74.9807 166.281 74.314 165.257 73.3855C163.734 71.9967 162.329 70.4809 160.869 69.0286C160.107 68.2667 159.504 67.4493 160.527 66.5128C161.4 65.7192 162.178 66.1637 162.884 66.8938C164.384 68.4254 165.94 69.9095 167.408 71.4729C168.352 72.4887 169.162 72.7347 170.313 71.711C171.67 70.5126 173.162 69.4651 174.63 68.3937C175.519 67.7509 176.519 66.5128 177.582 67.8461C178.733 69.2984 177.225 70.0285 176.312 70.7745C175.035 71.8142 173.733 72.8379 172.368 73.7664C171.201 74.568 171.074 75.2267 172.185 76.2187C173.598 77.4805 174.908 78.8693 176.225 80.2343C176.915 80.9486 177.701 81.7184 176.709 82.766C175.693 83.8373 174.955 83.0517 174.217 82.3454C173.685 81.8295 173.146 81.3137 172.622 80.7899C168.646 76.8139 168.646 76.8218 164.36 80.647C163.995 80.9724 163.607 81.3375 163.162 81.4883C162.003 81.8692 161.511 81.1708 161.297 80.3216Z" fill="#FBFCFC"/>
<path d="M299.408 140.548C299.448 146.548 299.654 152.302 300.567 158.04C302.098 167.658 307.336 173.856 316.74 176.626C323.597 178.642 330.581 179.689 337.692 180.07C338.787 180.126 340.192 179.642 340.755 181.038C341.255 182.268 340.318 183.26 339.66 184.173C336.501 188.522 331.922 190.744 327.002 192.395C323.788 193.474 323.764 193.458 325.859 196.053C328.414 199.212 331.795 200.68 335.787 200.847C343.596 201.164 350.215 197.903 356.532 193.815C360.222 191.427 363.357 188.363 366.65 185.483C369.23 183.229 369.365 180.419 369.642 177.475C369.73 176.57 369.166 176.134 368.642 175.618C361.222 168.237 359.484 159.19 361.389 149.342C362.635 142.905 366.674 137.985 374.555 137.937C377.364 137.922 380.158 137.549 382.872 136.771C385.761 135.945 387.578 134.057 387.959 131.033C388.348 127.993 387.014 125.755 384.419 124.232C380.658 122.033 376.483 121.438 372.245 121.47C369.976 121.486 368.793 120.518 367.841 118.645C363.992 111.066 362.746 102.828 361.69 94.5508C361.079 89.797 360.833 85.0116 360.73 80.2182C360.714 79.3373 360.944 78.1945 359.349 78.9246C353.08 81.7975 346.286 82.353 339.588 83.1784C329.494 84.4164 319.343 84.8687 309.169 84.337C308.677 84.3132 308.177 84.3053 307.685 84.2577C303.63 83.9085 303.543 83.9005 303.193 87.8845C301.654 105.495 299.971 123.089 299.408 140.548ZM316.391 128.017C316.296 126.43 317.217 124.898 319.034 123.867C320.399 123.089 321.827 122.399 323.391 122.232C324.827 122.073 325.319 121.462 325.351 120.034C325.414 117.319 325.7 114.605 325.843 111.891C325.899 110.82 326.065 109.764 327.367 109.82C328.668 109.867 328.803 110.947 328.74 112.018C328.525 115.47 328.256 118.923 328.113 122.383C328.049 123.986 327.47 124.819 325.787 124.875C324.216 124.922 322.692 125.327 321.256 125.986C320.169 126.486 319.193 127.152 319.248 128.517C319.296 129.803 320.121 130.612 321.24 131.112C322.375 131.62 323.573 131.898 324.827 131.985C325.692 132.049 326.2 132.612 326.272 133.414C326.343 134.144 325.843 134.628 325.168 134.866C321.756 136.049 316.431 132.208 316.391 128.017ZM345.286 111.844C345.255 109.756 345.501 107.86 348.12 107.741C350.032 107.661 350.818 108.891 350.715 111.59C350.604 114.478 349.731 115.677 347.786 115.486C345.517 115.256 345.001 113.772 345.286 111.844ZM313.471 110.272C313.55 109.177 313.534 108.51 313.661 107.868C313.963 106.383 314.844 105.558 316.431 105.653C318.002 105.757 318.812 106.653 318.939 108.169C318.994 108.82 318.867 109.479 318.851 110.137C318.812 112.121 318.074 113.669 315.852 113.462C313.796 113.28 313.241 111.724 313.471 110.272ZM341.176 150.421C340.311 150.524 339.628 150.088 339.517 149.127C339.39 148.016 340.239 147.826 341.12 147.707C343.191 147.421 344.929 146.723 345.501 144.389C345.699 143.588 346.421 143.199 347.255 143.461C348.151 143.739 348.151 144.477 348.032 145.278C347.644 147.881 344.239 150.5 341.176 150.421ZM350.723 97.6855C352.532 98.1061 354.564 98.7648 356.46 99.7965C357.095 100.146 357.476 100.717 357.143 101.439C356.841 102.098 356.207 102.463 355.5 102.233C353.548 101.598 351.612 100.892 349.691 100.17C349.001 99.9076 348.628 99.3521 348.882 98.5982C349.112 97.876 349.675 97.5824 350.723 97.6855ZM313.137 95.9475C313.233 95.7332 313.288 95.3444 313.51 95.1698C315.129 93.8921 316.955 92.9556 318.891 92.2969C319.502 92.0906 320.169 92.5826 320.391 93.3048C320.597 93.9794 320.185 94.4159 319.661 94.7095C318.161 95.5587 316.669 96.4396 315.121 97.1856C314.058 97.6935 313.399 97.1697 313.137 95.9475Z" fill="#FCFCFC"/>
<path d="M321.49 240.059C338.838 240.059 356.186 240.075 373.535 240.051C386.09 240.035 394.311 231.893 394.542 219.37C394.684 211.521 394.843 203.68 395.113 195.839C395.169 194.101 394.684 193.173 393.05 192.467C386.669 189.721 380.169 187.364 373.479 185.491C371.709 184.999 370.63 185.388 369.408 186.681C362.615 193.847 354.861 199.609 345.258 202.522C340.338 204.014 335.378 204.545 330.426 202.76C323.998 200.434 320.95 195.371 319.68 189.014C319.387 187.53 318.911 187.316 317.593 187.856C296.015 196.712 278.159 209.839 267.659 231.377C266.62 233.52 265.953 235.845 265.112 238.083C264.437 239.877 264.691 240.67 266.969 240.662C285.143 240.575 303.316 240.615 321.49 240.615C321.49 240.432 321.49 240.242 321.49 240.059Z" fill="#7AADEB"/>
<path d="M178.209 161.023C178.32 182.681 178.883 204.299 183.105 225.647C184.018 230.266 185.327 234.781 186.668 239.289C187.049 240.559 187.629 241.106 189.097 241.09C203.223 240.955 217.349 240.892 231.476 240.876C233.261 240.876 233.539 240.456 232.92 238.773C228.936 227.837 225.444 216.75 223.516 205.235C222.365 198.363 221.794 191.49 222.889 184.538C223.698 179.427 226.801 175.546 229.46 171.38C232.595 166.483 235.126 161.309 235.483 155.349C235.713 151.54 234.444 148.373 231.515 145.913C229.865 144.524 228.873 144.842 228.341 146.905C228.008 148.199 227.96 149.54 228.214 150.841C228.793 153.841 227.547 156.182 225.587 158.222C221.183 162.809 215.786 161.841 213.469 155.928C211.715 151.444 211.461 146.73 212.572 142.04C213.207 139.342 214.778 137.136 217.659 136.493C220.429 135.882 222.643 137.144 224.42 139.223C224.96 139.858 225.484 140.485 226.27 140.834C228.031 141.62 229.444 140.651 229.365 138.723C229.182 134.31 223.198 128.152 219 128.057C213.921 127.946 208.271 133.136 207.929 138.215C207.858 139.286 207.802 140.358 207.691 141.429C207.58 142.461 207.358 143.516 205.977 143.334C204.747 143.167 204.779 142.143 204.842 141.223C205.136 136.691 205.485 132.16 205.731 127.62C206.009 122.509 206.532 117.399 205.953 112.28C205.794 110.875 206.032 108.891 204.168 108.605C202.176 108.304 201.747 110.328 201.191 111.708C199.93 114.867 199.287 118.192 199.049 121.581C198.636 127.517 198.295 133.453 197.914 139.389C197.882 139.882 197.803 140.374 197.755 140.866C197.652 141.905 197.231 142.635 196.049 142.485C194.93 142.35 194.866 141.485 194.922 140.62C195.208 136.167 195.509 131.715 195.795 127.263C196.12 122.152 196.398 117.034 196.049 111.915C195.938 110.351 196.247 108.105 194.168 107.828C192.097 107.55 191.732 109.748 191.263 111.264C190.367 114.184 189.89 117.192 189.732 120.264C189.367 127.192 188.914 134.112 188.478 141.04C188.414 142.112 188.414 143.405 186.883 143.334C185.311 143.27 185.502 141.985 185.565 140.913C185.986 133.906 186.415 126.898 186.851 119.891C187.034 116.914 186.954 113.938 186.518 110.994C186.367 109.97 186.224 108.669 184.851 108.566C183.677 108.471 183.192 109.558 182.796 110.447C180.859 114.804 180.177 119.47 179.748 124.152C178.605 136.406 178.47 148.714 178.209 161.023ZM212.35 162.372C213.04 162.452 213.588 162.761 213.818 163.452C214.159 164.467 213.453 164.936 212.746 165.412C208.747 168.094 205.628 171.491 204.104 176.173C203.795 177.134 203.223 177.856 202.112 177.443C200.842 176.975 201.088 175.999 201.437 174.983C203.215 169.769 206.667 165.92 211.215 162.968C211.548 162.737 211.929 162.587 212.35 162.372Z" fill="#FBFBFB"/>
<path d="M184.182 366.807C182.848 360.569 180.412 354.704 177.999 348.855C172.492 335.459 165.508 322.864 156.929 311.167C149.636 301.215 141.414 292.128 132.2 283.93C131.653 283.446 130.986 283.049 130.74 282.295C121.415 282.121 112.082 281.994 102.757 281.74C100.964 281.692 100.305 282.105 100.313 284.025C100.377 310.198 100.369 336.372 100.337 362.553C100.337 364.029 100.718 364.521 102.265 364.561C127.018 365.219 151.771 365.95 176.531 366.656C179.079 366.719 181.618 367.156 184.182 366.807ZM122.502 326.96C121.899 318.531 126.804 311.103 134.962 308.579C137.454 307.81 139.509 307.262 138.843 304C138.684 303.231 139.128 302.532 140.065 302.445C141.073 302.358 141.62 302.897 141.763 303.842C141.835 304.326 141.882 304.842 141.811 305.326C141.565 307.072 142.279 307.778 144.033 308.103C146.207 308.508 148.303 309.341 150.16 310.659C158.35 316.436 160.492 327.142 155.04 335.427C148.596 345.228 136.676 344.935 129.748 341.046C124.28 337.983 122.915 332.681 122.502 326.96Z" fill="#FF8500"/>
<path d="M38.9672 335.617C47.2287 335.617 55.4981 335.562 63.7596 335.657C65.815 335.681 66.4261 334.959 66.5452 332.975C67.434 318.134 68.4339 303.302 69.4021 288.469C69.6005 285.477 69.6006 285.461 66.5531 285.556C50.2048 286.064 33.8564 286.612 17.5001 287.041C15.524 287.096 15.0796 287.755 14.9447 289.636C13.9289 303.722 12.794 317.793 11.6433 331.871C11.3338 335.609 11.2385 335.609 14.9129 335.609C22.9284 335.617 30.9439 335.609 38.9672 335.609C38.9672 335.609 38.9672 335.609 38.9672 335.617Z" fill="#FF8500"/>
<path d="M52.7129 282.597C57.5777 282.597 62.4425 282.533 67.2994 282.628C69.1803 282.66 69.6802 281.993 69.5771 280.16C69.0612 271.018 61.5696 261.82 52.6811 259.352C49.2766 258.407 45.8561 258.36 42.388 258.352C41.3087 258.352 40.7532 258.693 40.5231 259.804C39.0152 267.066 37.4677 274.319 35.9043 281.565C35.5709 283.089 36.2534 283.382 37.6105 283.366C42.642 283.311 47.6735 283.343 52.7049 283.343C52.7129 283.097 52.7129 282.851 52.7129 282.597Z" fill="#FF8500"/>
<path d="M23.9928 283.644C26.215 283.644 28.445 283.588 30.6671 283.668C32.1035 283.715 32.6511 283.144 32.9289 281.739C34.3415 274.557 35.8176 267.383 37.3969 260.232C37.8096 258.375 37.1032 258.336 35.6747 258.605C24.0722 260.796 15.8107 270.51 15.533 282.223C15.5012 283.628 15.9059 284.152 17.3186 284.104C19.5407 284.025 21.7628 284.08 23.9849 284.08C23.9928 283.929 23.9928 283.787 23.9928 283.644Z" fill="#FF8500"/>
<path d="M396.679 68.3059C389.164 68.3694 381.648 68.425 374.141 68.5202C373.284 68.5281 372.308 68.1789 371.578 68.9963C372.903 70.528 374.585 71.3613 376.49 72.0756C383.355 74.6468 388.386 79.6307 392.957 85.1384C394.37 86.8446 395.703 88.6223 397.116 90.4317C397.798 90.0429 397.568 89.3921 397.592 88.916C397.806 83.3924 398.108 77.8689 397.751 72.3533C397.656 70.9645 397.362 69.5677 396.679 68.3059Z" fill="#7AADEB"/>
<path d="M214.919 147.976C214.982 149.952 215.252 152.65 216.315 155.198C217.625 158.332 219.879 158.999 222.577 156.952C224.41 155.563 225.728 153.817 225.307 151.269C225.18 150.46 224.918 149.492 225.228 148.833C227.212 144.611 223.974 142.762 221.593 140.516C219.434 138.484 217.133 138.961 215.847 141.667C215.252 142.905 214.911 144.984 214.919 147.976Z" fill="#7AADEB"/>
<path d="M391.497 183.42C385.553 183.189 379.419 182.562 373.832 179.452C373.284 179.15 372.61 178.555 372.379 179.713C372.189 180.682 371.467 181.88 373.054 182.388C374.149 182.745 375.276 183.015 376.387 183.308C382.22 184.856 387.855 186.951 393.331 189.467C394.727 190.11 395.513 190.181 395.307 188.292C395.259 187.888 395.331 187.467 395.339 187.054C395.426 183.428 395.418 183.427 391.497 183.42Z" fill="#7AADEB"/>
<path d="M515.783 227.71C507.069 223.774 500.133 218.107 496.292 208.941C494.157 211.957 492.538 215.02 490.396 217.742C487.61 221.266 484.594 224.52 480.849 227.028C479.864 227.686 479.293 228.131 480.571 229.131C488.801 235.551 493.022 244.312 495.141 254.288C495.26 254.844 495.483 255.383 495.745 256.185C501.26 245.788 506.141 235.233 515.783 227.71Z" fill="#F9F9F9"/>
<path d="M90.3635 90.0582C93.657 82.4872 96.8791 75.6066 103.768 71.1307C97.252 65.7103 93.2761 58.6155 89.7207 50.9492C87.4192 56.1712 85.3162 61.0995 82.1338 65.4643C80.7688 67.3372 79.3085 69.1149 77.5467 70.6386C77.0388 71.0831 76.1579 71.5116 77.1975 72.3132C83.0543 76.8685 87.2526 82.6856 90.3635 90.0582Z" fill="#F9F9F9"/>
<path d="M374.992 343.299C392.42 343.299 409.848 343.307 427.283 343.291C430.521 343.291 430.561 343.195 430.561 339.918C430.561 338.267 430.466 336.609 430.577 334.966C430.704 333.029 429.902 332.339 427.998 332.291C415.03 331.99 402.07 331.601 389.103 331.268C367.382 330.712 345.669 330.228 323.948 329.593C321.368 329.514 320.424 330.22 320.329 332.823C320.226 335.696 319.646 338.553 319.241 341.418C318.892 343.949 319.257 344.41 321.71 344.41C339.471 344.41 357.232 344.41 374.985 344.41C374.993 344.045 374.992 343.672 374.992 343.299Z" fill="#040404"/>
<path d="M286.763 344.419C290.636 344.419 294.517 344.363 298.39 344.443C300.008 344.474 300.858 343.927 301.04 342.276C301.413 338.832 301.826 335.396 302.278 331.967C302.5 330.277 301.897 329.539 300.135 329.547C292.636 329.586 285.128 329.594 277.629 329.539C276.145 329.531 275.351 330.007 275.049 331.507C274.351 334.975 273.605 338.435 272.772 341.879C272.296 343.832 273.105 344.435 274.907 344.427C278.851 344.395 282.811 344.419 286.763 344.419Z" fill="#040404"/>
<path d="M426.15 267.796C422.031 267.796 417.913 267.796 413.786 267.796C412.675 267.796 411.413 267.796 411.405 269.256C411.397 270.716 412.643 270.748 413.762 270.748C422.087 270.748 430.412 270.756 438.737 270.748C439.808 270.748 441.078 270.843 441.086 269.28C441.094 267.717 439.856 267.812 438.761 267.812C434.555 267.812 430.356 267.812 426.15 267.812C426.15 267.804 426.15 267.804 426.15 267.796Z" fill="#111111"/>
<path d="M426.324 276.248C430.443 276.248 434.561 276.255 438.68 276.248C439.736 276.248 441.029 276.406 441.069 274.843C441.117 273.264 439.847 273.343 438.768 273.343C430.443 273.335 422.126 273.335 413.801 273.335C412.713 273.335 411.396 273.279 411.388 274.756C411.38 276.422 412.801 276.248 413.951 276.248C418.086 276.248 422.205 276.248 426.324 276.248Z" fill="#111111"/>
<path d="M228.167 97.0271C228.849 96.9002 229.42 96.6065 229.73 95.9558C230.746 93.8051 231.73 91.6385 232.746 89.4879C233.246 88.4324 233.103 87.4642 232.055 86.9562C231 86.4404 230.087 86.9721 229.571 87.9483C228.532 89.9005 227.5 91.8687 226.611 93.8924C225.897 95.5272 226.754 97.1065 228.167 97.0271Z" fill="#ED84B6"/>
<path d="M212.728 398.511C225.363 398.757 238.005 399.011 250.639 399.249C253.536 399.304 253.75 399.034 253.48 396.106C253.179 392.9 252.79 389.702 252.607 386.487C252.496 384.638 251.798 383.876 249.893 383.813C230.735 383.194 211.578 382.511 192.428 381.837C186.817 381.638 181.198 381.488 175.587 381.17C173.556 381.059 172.794 381.773 172.619 383.765C172.31 387.384 171.786 390.987 171.334 394.59C171.008 397.193 171.318 397.582 174.072 397.646C186.96 397.923 199.84 398.185 212.728 398.455C212.728 398.479 212.728 398.495 212.728 398.511ZM212.435 395.535C212.435 395.463 212.435 395.392 212.435 395.312C209.459 395.312 206.491 395.352 203.514 395.304C194.428 395.146 185.349 394.923 176.262 394.797C174.722 394.773 174.072 394.566 174.484 392.765C174.976 390.606 175.167 388.36 175.333 386.138C175.452 384.591 175.976 384.122 177.619 384.178C199.65 385.019 221.688 385.765 243.727 386.567C249.576 386.781 249.576 386.829 250.163 392.503C250.21 392.995 250.234 393.503 250.361 393.971C250.845 395.781 250.322 396.36 248.338 396.304C236.386 395.979 224.41 395.781 212.435 395.535Z" fill="#111111"/>
<path d="M94.0923 399.265C102.108 399.265 110.123 399.193 118.131 399.304C120.416 399.336 121.17 398.535 121.178 396.297C121.194 392.67 121.4 389.027 121.718 385.408C121.908 383.202 121.154 382.432 118.948 382.575C114.829 382.837 110.687 382.821 106.568 383.099C104.973 383.21 104.568 382.742 104.655 381.234C104.782 379.012 104.647 376.774 104.735 374.544C104.806 372.861 104.123 372.092 102.441 372.099C96.7429 372.115 91.0368 372.139 85.3387 372.092C83.7436 372.076 83.188 372.877 82.95 374.298C82.5135 376.901 81.8389 379.464 81.5135 382.083C81.3151 383.678 80.6406 383.908 79.2438 383.773C75.871 383.456 72.4823 383.361 69.1174 383.035C66.9667 382.829 66.062 383.448 66.3159 385.765C66.7207 389.376 66.9667 393.003 67.1413 396.638C67.2365 398.622 68.0142 399.336 70.0459 399.312C78.0613 399.209 86.0768 399.265 94.0923 399.265ZM94.1795 396.336C88.8148 396.336 83.4499 396.392 78.0851 396.313C75.4742 396.273 71.9109 397.487 70.5141 395.805C69.0856 394.075 69.7284 390.63 69.4665 387.932C69.4586 387.853 69.4665 387.765 69.4507 387.686C69.157 386.281 69.8475 386.027 71.0855 386.13C74.4583 386.416 77.8391 386.535 81.204 386.853C83.0055 387.019 83.7198 386.297 83.9816 384.583C84.3943 381.901 85.0054 379.25 85.4975 376.575C85.68 375.568 86.0212 374.988 87.2355 375.004C91.6083 375.068 95.981 375.052 100.354 375.004C101.449 374.988 101.79 375.393 101.766 376.441C101.703 378.75 101.838 381.067 101.687 383.369C101.536 385.583 102.409 386.289 104.56 386.146C108.679 385.877 112.806 385.845 116.924 385.623C118.313 385.551 118.837 385.892 118.686 387.384C118.456 389.599 118.369 391.829 118.377 394.059C118.385 395.813 117.837 396.416 115.948 396.384C108.711 396.257 101.441 396.336 94.1795 396.336Z" fill="#111111"/>
<path d="M282.655 399.264C285.632 399.264 288.608 399.2 291.576 399.288C293.441 399.343 294.329 398.732 294.226 396.724C294.099 394.256 294.163 391.772 294.195 389.296C294.21 387.979 293.647 387.336 292.314 387.233C285.893 386.725 279.473 386.185 273.061 385.638C271.537 385.503 270.958 386.233 270.95 387.653C270.926 390.788 270.918 393.931 270.815 397.066C270.759 398.677 271.426 399.304 272.997 399.28C276.211 399.232 279.433 399.264 282.655 399.264ZM282.417 396.336C281.433 396.336 280.441 396.336 279.457 396.336C273.521 396.336 273.561 396.336 273.823 390.328C273.878 389.011 274.243 388.653 275.545 388.78C279.306 389.153 283.084 389.415 286.862 389.709C291.29 390.05 291.226 390.05 291.242 394.391C291.25 395.875 290.901 396.455 289.33 396.367C287.028 396.24 284.719 396.336 282.417 396.336Z" fill="#111111"/>
<path d="M309.152 399.265C311.794 399.265 314.437 399.233 317.072 399.273C318.548 399.296 319.159 398.662 319.119 397.185C319.064 395.043 319.072 392.892 319.119 390.749C319.151 389.384 318.548 388.789 317.207 388.797C311.842 388.813 306.477 388.805 301.112 388.789C299.898 388.789 299.239 389.353 299.216 390.559C299.176 392.868 299.184 395.178 299.152 397.487C299.136 398.931 299.969 399.289 301.231 399.273C303.866 399.241 306.509 399.265 309.152 399.265ZM309.16 396.328C307.35 396.328 305.525 396.217 303.723 396.36C302.088 396.487 301.89 395.614 302.112 394.424C302.311 393.368 301.263 391.622 303.707 391.71C307.326 391.829 310.953 391.805 314.58 391.702C316.024 391.662 316.286 392.178 316.373 393.519C316.5 395.654 316 396.709 313.604 396.368C312.143 396.162 310.644 396.328 309.16 396.328Z" fill="#111111"/>
<path d="M349.748 382.997C347.764 382.997 345.78 382.989 343.796 382.997C343.304 382.997 342.708 382.846 342.328 383.068C339.423 384.735 341.375 387.504 340.923 389.734C340.637 391.155 341.645 391.758 343.058 391.75C347.605 391.719 352.144 391.734 356.692 391.726C356.938 391.726 357.247 391.79 357.422 391.671C360.081 389.83 358.208 387.131 358.652 384.862C358.962 383.282 357.739 382.981 356.43 382.989C354.208 383.013 351.978 382.997 349.748 382.997ZM349.78 388.798C348.375 388.798 346.97 388.774 345.565 388.806C344.581 388.83 343.796 388.822 343.812 387.433C343.827 386.211 344.288 385.878 345.43 385.901C348.399 385.965 351.375 385.957 354.343 385.917C355.382 385.901 355.787 386.227 355.827 387.314C355.866 388.552 355.374 388.877 354.232 388.822C352.756 388.742 351.264 388.798 349.78 388.798Z" fill="#111111"/>
<path d="M161.296 80.3223C161.502 81.1715 162.002 81.8699 163.153 81.481C163.597 81.3302 163.986 80.9651 164.351 80.6398C168.637 76.8066 168.637 76.8066 172.613 80.7826C173.136 81.3064 173.676 81.8222 174.208 82.3381C174.938 83.0444 175.676 83.8301 176.7 82.7587C177.692 81.7111 176.906 80.9413 176.216 80.2271C174.898 78.8621 173.597 77.4733 172.176 76.2114C171.065 75.2194 171.192 74.5607 172.359 73.7592C173.716 72.8306 175.025 71.8069 176.303 70.7673C177.215 70.0213 178.723 69.2991 177.573 67.8388C176.517 66.5056 175.509 67.7436 174.62 68.3864C173.152 69.4499 171.66 70.5054 170.303 71.7037C169.152 72.7275 168.343 72.4815 167.399 71.4656C165.938 69.8943 164.375 68.4182 162.875 66.8865C162.169 66.1643 161.391 65.712 160.518 66.5056C159.502 67.442 160.097 68.2594 160.859 69.0213C162.319 70.4736 163.724 71.9894 165.248 73.3782C166.272 74.3068 166.383 74.9655 165.208 75.8622C164.097 76.7114 163.121 77.7272 162.097 78.6954C161.7 79.1002 161.256 79.5049 161.296 80.3223Z" fill="#111111"/>
<path d="M316.39 128.017C316.43 132.207 321.755 136.048 325.168 134.866C325.842 134.636 326.334 134.144 326.271 133.414C326.192 132.612 325.684 132.041 324.827 131.985C323.581 131.898 322.382 131.62 321.239 131.112C320.12 130.612 319.295 129.803 319.247 128.517C319.2 127.152 320.176 126.485 321.255 125.985C322.692 125.327 324.215 124.922 325.787 124.874C327.469 124.819 328.049 123.986 328.112 122.382C328.255 118.922 328.517 115.478 328.739 112.018C328.802 110.955 328.676 109.875 327.366 109.82C326.065 109.772 325.898 110.82 325.842 111.891C325.699 114.605 325.414 117.319 325.35 120.033C325.319 121.462 324.819 122.073 323.39 122.232C321.835 122.398 320.398 123.089 319.033 123.867C317.216 124.898 316.295 126.43 316.39 128.017Z" fill="#111111"/>
<path d="M345.289 111.844C345.004 113.773 345.512 115.265 347.789 115.487C349.734 115.677 350.607 114.479 350.718 111.59C350.821 108.892 350.035 107.654 348.123 107.741C345.504 107.852 345.266 109.757 345.289 111.844Z" fill="#111111"/>
<path d="M313.469 110.272C313.247 111.724 313.803 113.279 315.85 113.47C318.064 113.676 318.81 112.129 318.85 110.145C318.866 109.486 318.993 108.827 318.937 108.176C318.818 106.661 318.001 105.764 316.429 105.661C314.842 105.558 313.961 106.391 313.66 107.875C313.525 108.51 313.549 109.176 313.469 110.272Z" fill="#111111"/>
<path d="M341.175 150.421C344.246 150.501 347.643 147.882 348.039 145.271C348.158 144.469 348.166 143.731 347.262 143.453C346.428 143.192 345.706 143.58 345.508 144.382C344.928 146.715 343.198 147.414 341.127 147.699C340.254 147.818 339.397 148.009 339.524 149.12C339.627 150.088 340.302 150.524 341.175 150.421Z" fill="#111111"/>
<path d="M350.723 97.6856C349.683 97.5824 349.112 97.8761 348.882 98.5903C348.628 99.3442 349.001 99.9077 349.691 100.162C351.612 100.884 353.548 101.59 355.5 102.225C356.207 102.455 356.834 102.09 357.143 101.431C357.476 100.709 357.103 100.138 356.461 99.7887C354.564 98.757 352.524 98.1062 350.723 97.6856Z" fill="#111111"/>
<path d="M313.134 95.9471C313.395 97.1693 314.054 97.693 315.118 97.1772C316.665 96.4233 318.157 95.5503 319.657 94.7011C320.181 94.3996 320.594 93.971 320.387 93.2965C320.165 92.5743 319.498 92.0822 318.887 92.2886C316.951 92.9473 315.126 93.8837 313.507 95.1614C313.284 95.344 313.229 95.7328 313.134 95.9471Z" fill="#111111"/>
<path d="M212.346 162.373C211.925 162.587 211.544 162.738 211.203 162.96C206.656 165.913 203.203 169.762 201.426 174.976C201.076 175.991 200.83 176.968 202.1 177.436C203.211 177.848 203.783 177.126 204.092 176.166C205.616 171.492 208.735 168.095 212.735 165.405C213.441 164.928 214.147 164.46 213.806 163.444C213.576 162.754 213.028 162.452 212.346 162.373Z" fill="#111111"/>
<path d="M122.501 326.959C122.914 332.689 124.287 337.983 129.747 341.054C136.675 344.943 148.595 345.236 155.039 335.435C160.483 327.15 158.348 316.452 150.158 310.667C148.293 309.349 146.206 308.516 144.032 308.111C142.278 307.786 141.564 307.08 141.81 305.334C141.881 304.85 141.834 304.342 141.762 303.85C141.619 302.905 141.072 302.365 140.064 302.453C139.127 302.54 138.683 303.238 138.842 304.008C139.516 307.27 137.453 307.818 134.961 308.587C126.803 311.095 121.89 318.531 122.501 326.959ZM141.826 320.357C141.826 317.96 141.945 315.555 141.794 313.167C141.659 311.032 142.421 310.556 144.373 311.159C149.904 312.857 154.317 317.968 154.888 323.46C155.563 329.88 152.508 335.8 146.984 338.8C142.119 341.443 133.985 340.879 130.025 337.602C125.779 334.086 125.334 329.229 125.612 324.269C125.953 318.055 130.207 312.936 136.096 311.222C138.548 310.508 138.85 310.706 138.857 313.182C138.873 318.142 138.865 323.103 138.897 328.055C138.905 329.015 138.723 330.253 140.167 330.308C141.643 330.356 141.81 329.15 141.826 328.047C141.857 325.483 141.826 322.92 141.826 320.357Z" fill="#0B090B"/>
<path d="M212.434 395.536C224.409 395.782 236.377 395.988 248.353 396.329C250.337 396.385 250.86 395.798 250.376 393.996C250.249 393.52 250.226 393.02 250.178 392.528C249.583 386.854 249.591 386.798 243.742 386.592C221.703 385.79 199.665 385.044 177.634 384.203C175.991 384.14 175.468 384.616 175.349 386.163C175.182 388.385 174.991 390.623 174.499 392.79C174.087 394.583 174.745 394.798 176.277 394.822C185.364 394.948 194.443 395.171 203.53 395.329C206.498 395.385 209.474 395.337 212.45 395.337C212.434 395.385 212.434 395.456 212.434 395.536Z" fill="#F9F9F9"/>
<path d="M94.1791 396.337C101.441 396.337 108.702 396.258 115.964 396.393C117.844 396.425 118.4 395.822 118.392 394.068C118.384 391.846 118.471 389.608 118.702 387.393C118.852 385.901 118.329 385.56 116.94 385.632C112.821 385.854 108.694 385.894 104.575 386.155C102.425 386.298 101.552 385.592 101.702 383.378C101.861 381.076 101.726 378.759 101.782 376.45C101.814 375.402 101.464 374.997 100.369 375.013C95.9964 375.061 91.6236 375.077 87.2509 375.013C86.0366 374.997 85.6954 375.577 85.5129 376.584C85.0208 379.259 84.4018 381.91 83.997 384.592C83.7351 386.306 83.013 387.028 81.2194 386.862C77.8545 386.544 74.4658 386.425 71.1009 386.14C69.8549 386.036 69.1724 386.282 69.4661 387.695C69.4819 387.774 69.474 387.862 69.4819 387.941C69.7438 390.639 69.101 394.084 70.5295 395.814C71.9263 397.496 75.4896 396.282 78.1005 396.322C83.4574 396.393 88.8222 396.337 94.1791 396.337Z" fill="#FBFBFB"/>
<path d="M282.415 396.336C284.717 396.336 287.026 396.241 289.327 396.368C290.899 396.455 291.248 395.876 291.24 394.392C291.216 390.051 291.288 390.051 286.859 389.709C283.09 389.416 279.312 389.154 275.542 388.781C274.249 388.654 273.884 389.011 273.82 390.328C273.558 396.336 273.511 396.336 279.455 396.336C280.439 396.336 281.431 396.336 282.415 396.336Z" fill="#F9F9F9"/>
<path d="M309.163 396.328C310.647 396.328 312.154 396.162 313.607 396.368C316.003 396.709 316.503 395.654 316.376 393.519C316.297 392.178 316.027 391.662 314.583 391.702C310.964 391.805 307.337 391.829 303.71 391.71C301.266 391.63 302.322 393.376 302.115 394.424C301.893 395.614 302.091 396.487 303.726 396.36C305.528 396.217 307.345 396.328 309.163 396.328Z" fill="#F9F9F9"/>
<path d="M349.775 388.798C351.259 388.798 352.751 388.742 354.235 388.822C355.377 388.885 355.869 388.56 355.83 387.314C355.79 386.219 355.385 385.901 354.346 385.917C351.378 385.965 348.402 385.965 345.434 385.901C344.283 385.877 343.83 386.211 343.815 387.433C343.799 388.822 344.592 388.822 345.568 388.806C346.965 388.774 348.37 388.798 349.775 388.798Z" fill="#F9F9F9"/>
<path d="M141.827 320.356C141.827 322.919 141.851 325.483 141.819 328.038C141.803 329.149 141.637 330.355 140.161 330.3C138.716 330.252 138.899 329.006 138.891 328.046C138.859 323.086 138.867 318.126 138.851 313.174C138.843 310.706 138.542 310.499 136.089 311.213C130.209 312.928 125.947 318.046 125.606 324.26C125.336 329.22 125.773 334.077 130.018 337.593C133.978 340.871 142.113 341.434 146.978 338.791C152.501 335.792 155.557 329.871 154.882 323.451C154.311 317.959 149.89 312.848 144.367 311.15C142.415 310.555 141.653 311.031 141.788 313.158C141.946 315.555 141.827 317.959 141.827 320.356Z" fill="#FF8500"/>
</svg>
