<svg width="27" height="36" viewBox="0 0 27 36" fill="none" xmlns="http://www.w3.org/2000/svg">
<path d="M9.58686 35.5412C10.8888 35.0538 11.108 33.9201 11.6506 33.0587C15.0023 27.7664 18.0119 22.2658 20.9233 16.7176C21.1114 16.3651 21.2944 15.998 21.4334 15.6217C21.7915 14.6526 21.9616 13.6836 20.7562 13.1785C19.6294 12.7116 19.1866 13.5545 18.7482 14.3632C16.6065 18.3151 14.4844 22.2766 12.3008 26.2022C10.9373 28.6533 9.4656 31.0519 8.06527 33.4912C7.72889 34.0758 7.5954 34.6796 8.22044 35.2317C8.70468 35.6608 9.20116 35.7251 9.58686 35.5412Z" fill="#FF8500"/>
<path d="M14.4983 4.44167C14.507 3.18346 14.1918 2.13879 12.5931 2.57704C11.448 2.89391 10.3358 3.38451 9.24039 3.87088C6.75322 4.96818 4.2795 6.0764 1.82423 7.24417C0.844296 7.70859 -0.115263 8.43905 0.530802 9.66799C1.08626 10.7342 2.28122 10.8722 3.28797 10.4296C6.6505 8.94772 9.95508 7.33414 13.3075 5.82627C13.9494 5.53262 14.4146 5.21565 14.4983 4.44167Z" fill="#FF8500"/>
</svg>
