<svg width="27" height="36" viewBox="0 0 27 36" fill="none" xmlns="http://www.w3.org/2000/svg">
<path d="M17.4131 0.458782C16.1112 0.946216 15.892 2.07985 15.3494 2.94129C11.9977 8.23358 8.98805 13.7342 6.07674 19.2824C5.88861 19.6349 5.70558 20.002 5.56658 20.3783C5.2085 21.3474 5.03838 22.3164 6.24381 22.8215C7.37062 23.2884 7.81342 22.4455 8.25177 21.6368C10.3935 17.6849 12.5156 13.7234 14.6992 9.79776C16.0627 7.34672 17.5344 4.94806 18.9347 2.50875C19.2711 1.9242 19.4046 1.32035 18.7796 0.768327C18.2953 0.339221 17.7988 0.274929 17.4131 0.458782Z" fill="#FF8500"/>
<path d="M12.5017 31.5583C12.493 32.8165 12.8082 33.8612 14.4069 33.423C15.552 33.1061 16.6642 32.6155 17.7596 32.1291C20.2468 31.0318 22.7205 29.9236 25.1758 28.7558C26.1557 28.2914 27.1153 27.561 26.4692 26.332C25.9137 25.2658 24.7188 25.1278 23.712 25.5704C20.3495 27.0523 17.0449 28.6659 13.6925 30.1737C13.0506 30.4674 12.5854 30.7843 12.5017 31.5583Z" fill="#FF8500"/>
</svg>
