<svg width="183" height="21" viewBox="0 0 183 21" fill="none" xmlns="http://www.w3.org/2000/svg">
<path d="M17.875 7.45L15.675 19.775H15.625L13.725 7.45H8.3L6.375 19.775H6.325L4.15 7.45H0.625L3.25 20H9L10.925 7.675H10.975L12.925 20H18.675L21.3 7.45H17.875ZM35.8518 13.725C35.8518 9.6 33.5518 7.2 29.7018 7.2C25.8018 7.2 23.5018 9.6 23.5018 13.725C23.5018 17.825 25.8018 20.25 29.7018 20.25C33.1018 20.25 35.4018 18.5 35.8518 15.525H32.6518C32.3268 16.9 31.2518 17.75 29.7018 17.75C27.9268 17.75 26.8268 16.4 26.7018 14.1H35.8518V13.725ZM29.7018 9.675C31.3518 9.675 32.4268 10.875 32.6268 12.975H26.7268C26.9518 10.875 28.0268 9.675 29.7018 9.675ZM39.1602 20H42.4602V0.749999H39.1602V20ZM52.2775 20.25C55.7775 20.25 58.0025 18.4 58.4775 15.175H55.2275C54.8525 16.725 53.8275 17.625 52.2775 17.625C50.3275 17.625 49.1775 16.175 49.1775 13.725C49.1775 11.275 50.3275 9.8 52.2775 9.8C53.7525 9.8 54.7525 10.65 55.1775 12.1H58.4275C57.9275 9 55.7025 7.2 52.2775 7.2C48.2275 7.2 45.8025 9.625 45.8025 13.725C45.8025 17.825 48.2275 20.25 52.2775 20.25ZM67.4824 20.25C71.5824 20.25 74.0074 17.825 74.0074 13.725C74.0074 9.625 71.5824 7.2 67.4824 7.2C63.3824 7.2 60.9324 9.625 60.9324 13.725C60.9324 17.825 63.3824 20.25 67.4824 20.25ZM67.4824 17.625C65.4824 17.625 64.3074 16.175 64.3074 13.725C64.3074 11.275 65.4824 9.8 67.4824 9.8C69.4824 9.8 70.6574 11.275 70.6574 13.725C70.6574 16.175 69.4824 17.625 67.4824 17.625ZM92.8732 7.2C90.3982 7.2 88.9482 8.9 88.9482 11.8H88.8982C88.8982 8.975 87.3482 7.2 84.7232 7.2C82.1982 7.2 80.6732 8.9 80.6732 11.8H80.6232V7.45H77.3232V20H80.6232V13.075C80.6232 11.025 81.5982 9.8 83.2732 9.8C84.7482 9.8 85.5982 10.75 85.5982 12.375V20H88.8982V13.075C88.8982 11.025 89.8732 9.8 91.5232 9.8C92.9982 9.8 93.8732 10.75 93.8732 12.375V20H97.1732V12.225C97.1732 9.05 95.5732 7.2 92.8732 7.2ZM112.722 13.725C112.722 9.6 110.422 7.2 106.572 7.2C102.672 7.2 100.372 9.6 100.372 13.725C100.372 17.825 102.672 20.25 106.572 20.25C109.972 20.25 112.272 18.5 112.722 15.525H109.522C109.197 16.9 108.122 17.75 106.572 17.75C104.797 17.75 103.697 16.4 103.572 14.1H112.722V13.725ZM106.572 9.675C108.222 9.675 109.297 10.875 109.497 12.975H103.597C103.822 10.875 104.897 9.675 106.572 9.675ZM130.025 7.2C127.225 7.2 125.55 8.9 125.55 11.75H125.5V0.749999H122.2V20H125.5V15.675H125.55C125.55 18.55 127.225 20.25 130.025 20.25C133.175 20.25 135.05 17.825 135.05 13.725C135.05 9.625 133.175 7.2 130.025 7.2ZM128.5 17.625C126.5 17.625 125.325 16.025 125.325 13.725C125.325 11.4 126.5 9.8 128.5 9.8C130.5 9.8 131.675 11.275 131.675 13.725C131.675 16.175 130.5 17.625 128.5 17.625ZM144.279 20.25C148.379 20.25 150.804 17.825 150.804 13.725C150.804 9.625 148.379 7.2 144.279 7.2C140.179 7.2 137.729 9.625 137.729 13.725C137.729 17.825 140.179 20.25 144.279 20.25ZM144.279 17.625C142.279 17.625 141.104 16.175 141.104 13.725C141.104 11.275 142.279 9.8 144.279 9.8C146.279 9.8 147.454 11.275 147.454 13.725C147.454 16.175 146.279 17.625 144.279 17.625ZM159.995 20.25C164.095 20.25 166.52 17.825 166.52 13.725C166.52 9.625 164.095 7.2 159.995 7.2C155.895 7.2 153.445 9.625 153.445 13.725C153.445 17.825 155.895 20.25 159.995 20.25ZM159.995 17.625C157.995 17.625 156.82 16.175 156.82 13.725C156.82 11.275 157.995 9.8 159.995 9.8C161.995 9.8 163.17 11.275 163.17 13.725C163.17 16.175 161.995 17.625 159.995 17.625ZM176.836 13.425L182.161 7.45H178.261L173.186 13.35H173.136V0.749999H169.836V20H173.136V13.575H173.186L178.686 20H182.736L176.836 13.425Z" fill="black"/>
</svg>
